<svg version="1.0" xmlns="http://www.w3.org/2000/svg"
    width="1024.000000pt" height="1024.000000pt" viewBox="0 0 1024.000000 1024.000000"
    preserveAspectRatio="xMidYMid meet">

    <g transform="translate(0.000000,1024.000000) scale(0.100000,-0.100000)"
        fill="#7E0000" stroke="none">
        <path d="M5935 9550 c-330 -18 -560 -70 -930 -212 -319 -123 -546 -248 -769
-426 -48 -39 -84 -61 -95 -58 -183 57 -508 96 -795 96 -440 0 -806 -79 -1229
-264 -312 -136 -555 -311 -837 -602 -249 -257 -412 -541 -504 -878 -45 -165
-64 -293 -71 -479 -3 -82 -7 -152 -9 -156 -3 -4 -17 -72 -31 -151 -24 -132
-28 -180 -36 -540 -11 -436 -7 -581 21 -745 23 -131 46 -203 111 -350 87 -193
179 -339 292 -461 l63 -67 -43 -113 c-23 -61 -55 -156 -70 -210 -26 -95 -27
-110 -27 -339 -1 -132 0 -271 1 -310 1 -38 0 -144 -3 -236 -11 -345 55 -583
251 -898 319 -512 962 -925 1660 -1066 363 -73 768 -84 1130 -29 271 41 588
134 808 237 102 47 75 53 234 -54 563 -381 1226 -562 1905 -521 475 29 870
129 1254 318 257 125 465 275 660 476 161 165 275 320 359 487 48 96 135 324
135 354 0 13 10 43 21 68 36 73 96 242 118 330 54 218 59 314 49 974 -5 325
-7 360 -31 485 -15 74 -27 151 -27 171 0 20 -9 61 -20 93 -19 56 -19 57 1 90
31 53 75 182 97 286 39 180 48 358 46 925 0 210 -15 341 -55 499 -24 93 -80
248 -116 321 -53 105 -196 338 -260 422 l-66 88 -14 135 c-53 511 -210 895
-517 1259 -39 46 -86 102 -104 125 -160 199 -475 427 -851 616 -156 78 -443
178 -661 229 -145 35 -418 72 -595 81 -188 10 -245 10 -450 0z m-338 -232 c6
-24 36 -126 66 -228 31 -102 55 -186 53 -187 -1 -1 -42 -11 -91 -22 -171 -38
-390 -126 -536 -214 l-56 -34 -82 101 c-44 56 -105 129 -133 164 -29 34 -63
80 -76 102 l-22 40 158 79 c177 89 357 157 542 206 165 44 163 44 177 -7z
m1554 -47 c90 -27 205 -66 254 -86 117 -47 367 -175 363 -186 -3 -10 -68 -94
-211 -275 l-98 -124 -42 25 c-128 78 -406 196 -558 235 l-87 22 23 57 c12 31
50 113 83 183 34 69 68 143 76 162 8 20 19 36 24 36 5 0 83 -22 173 -49z
m-3466 -476 c120 -16 279 -40 324 -51 23 -5 17 -13 -81 -112 -102 -104 -206
-222 -225 -256 -9 -16 -17 -15 -108 8 -55 14 -108 26 -118 26 -12 0 -17 5 -14
14 3 7 20 92 37 187 17 96 33 180 35 187 5 15 6 15 150 -3z m2670 -125 c408
-38 761 -158 1065 -361 284 -190 517 -490 619 -797 59 -179 76 -286 76 -492
-1 -167 -3 -197 -28 -302 -60 -254 -149 -455 -274 -622 -137 -183 -374 -395
-566 -508 -90 -52 -297 -147 -397 -181 -114 -39 -300 -85 -424 -104 -172 -27
-511 -25 -677 5 -479 86 -859 283 -1165 605 -151 158 -241 308 -311 512 -65
190 -74 243 -80 455 -6 230 8 345 62 506 62 185 148 332 310 529 164 199 344
363 502 457 97 58 348 167 464 202 303 91 557 121 824 96z m-3999 -185 c196
-221 197 -223 172 -231 -13 -4 -77 -33 -143 -64 -120 -58 -260 -144 -367 -227
-39 -30 -63 -41 -72 -36 -23 13 -316 285 -316 294 0 9 113 92 205 151 130 83
406 222 426 215 4 -1 46 -47 95 -102z m1564 -307 c41 -23 246 -132 313 -166
15 -7 27 -15 27 -17 0 -2 -29 -48 -65 -102 -80 -119 -152 -265 -195 -393 -18
-52 -34 -97 -36 -99 -2 -2 -52 8 -111 22 -60 15 -155 38 -213 52 -178 42 -195
49 -193 77 5 81 202 498 298 629 l47 65 42 -21 c22 -11 61 -33 86 -47z m4793
-93 c51 -87 127 -271 162 -390 36 -125 65 -259 57 -267 -4 -4 -41 -13 -82 -21
-41 -9 -142 -29 -225 -47 -236 -49 -211 -48 -220 -4 -20 112 -78 256 -202 510
l-40 81 31 15 c48 23 356 175 406 201 53 27 49 30 113 -78z m-5561 -633 l77
-91 -25 -92 c-14 -51 -26 -94 -27 -94 -1 -1 -29 -16 -62 -35 -132 -73 -313
-203 -367 -264 l-28 -30 -41 39 c-22 22 -100 102 -172 179 l-132 138 35 30
c95 79 292 204 445 282 l170 87 25 -29 c14 -16 60 -70 102 -120z m-1887 -131
c72 -23 144 -43 162 -47 l32 -6 -15 -37 c-60 -136 -101 -300 -112 -441 l-7
-85 -40 2 c-36 2 -315 37 -404 49 l-34 5 6 102 c7 111 36 241 93 418 20 63 38
117 40 120 2 4 36 -4 76 -17 40 -13 132 -41 203 -63z m2670 -823 c27 -134 129
-386 209 -515 l27 -42 -38 -24 c-51 -32 -293 -175 -365 -216 l-58 -32 -44 68
c-59 92 -113 201 -178 363 -51 124 -98 275 -98 312 0 17 76 37 235 63 55 9
114 20 131 26 17 5 48 9 70 9 21 0 46 5 54 10 29 19 48 11 55 -22z m4705 -109
c91 -25 199 -49 216 -49 10 0 0 -34 -48 -153 -64 -160 -160 -330 -269 -475
l-82 -110 -96 62 c-53 34 -149 93 -213 131 -65 37 -118 74 -118 80 0 7 20 37
44 66 59 74 192 325 259 490 l15 36 108 -29 c60 -16 143 -38 184 -49z m-6855
-147 c28 -6 120 -28 205 -51 196 -51 200 -52 200 -58 0 -3 -13 -42 -30 -88
-39 -111 -70 -275 -77 -406 l-6 -107 -166 -6 c-91 -3 -205 -9 -253 -12 l-88
-6 -2 79 c-4 122 2 211 18 293 13 61 84 340 99 388 4 10 9 10 27 -2 13 -8 46
-19 73 -24z m7654 -34 c32 -104 55 -358 48 -546 -3 -85 -8 -156 -11 -160 -4
-3 -34 -1 -69 6 -34 6 -79 14 -99 17 l-38 6 0 77 c0 108 -24 251 -70 429 -22
83 -40 154 -40 157 0 7 104 28 180 36 36 4 70 8 77 9 6 0 16 -14 22 -31z
m-6434 -141 l130 -12 11 -80 c14 -98 35 -184 68 -290 19 -61 25 -106 27 -190
l3 -110 -120 -16 c-214 -28 -366 -41 -374 -33 -5 5 -12 70 -16 144 -6 129 -5
146 31 345 21 116 41 220 46 233 10 26 8 25 194 9z m-1571 -154 c-7 -32 -18
-87 -24 -123 -11 -67 -81 -299 -90 -300 -17 0 -230 310 -230 335 0 6 40 23 88
39 48 16 125 45 172 66 47 21 88 38 92 39 3 1 0 -25 -8 -56z m7686 -427 c0
-73 -40 -358 -67 -481 -51 -231 -75 -288 -108 -256 -6 6 -52 19 -103 30 -50
12 -118 30 -150 40 -31 11 -90 29 -130 41 l-73 21 53 62 c85 98 252 338 335
482 l41 70 101 0 c56 0 101 -4 101 -9z m-4194 -182 c127 -85 310 -164 477
-206 51 -12 93 -23 94 -23 1 -1 -8 -28 -21 -60 -104 -268 -150 -381 -157 -389
-18 -20 -472 143 -654 235 -66 34 -122 63 -123 64 -8 7 296 423 309 424 4 1
37 -20 75 -45z m2360 -101 c26 -38 62 -84 80 -103 35 -38 164 -218 164 -230 0
-11 -276 -139 -370 -172 -152 -52 -442 -128 -490 -128 -4 0 -10 24 -14 53 -4
28 -20 135 -37 236 -16 101 -28 186 -25 188 2 2 64 20 137 39 207 53 457 140
486 169 8 8 16 15 18 15 2 0 25 -30 51 -67z m-4948 -467 c29 -54 145 -230 165
-250 8 -8 24 -52 35 -99 12 -46 35 -122 51 -168 16 -46 29 -84 28 -85 -1 -1
-51 -34 -112 -74 -60 -39 -119 -81 -131 -91 -11 -10 -27 -19 -35 -19 -21 0
-273 258 -341 350 -50 67 -158 235 -158 246 0 2 39 22 88 45 156 73 353 172
358 181 12 18 30 6 52 -36z m1324 -364 c61 -81 159 -182 227 -232 33 -25 60
-48 61 -51 0 -3 -33 -35 -72 -70 -40 -35 -119 -105 -175 -156 l-101 -93 -64
47 c-119 89 -327 312 -426 460 -49 72 -59 93 -43 93 19 0 412 199 435 220 5 5
33 -29 63 -78 30 -48 73 -111 95 -140z m5725 -232 c24 -122 27 -333 9 -475
-10 -71 -20 -138 -23 -149 -6 -21 -2 -21 -208 23 l-130 27 1 30 c1 16 11 70
22 119 12 50 22 110 22 134 0 24 12 76 26 115 14 39 34 107 43 151 l17 80 70
6 c38 3 85 5 104 5 35 -1 35 -1 47 -66z m-1099 -212 c18 -16 58 -43 88 -60
l55 -31 -38 -39 c-73 -77 -232 -208 -348 -288 -141 -98 -310 -194 -324 -185
-6 3 -25 26 -41 51 l-31 44 59 73 c117 144 239 329 339 514 l34 62 87 -56 c48
-30 102 -69 120 -85z m-1316 -33 c57 -41 123 -92 147 -112 45 -38 101 -108
101 -127 0 -21 -247 -172 -433 -263 -103 -51 -191 -93 -195 -93 -4 0 -31 46
-59 103 -29 56 -77 147 -108 201 -30 55 -53 101 -52 103 2 1 75 39 163 84 202
103 302 158 309 170 11 17 24 10 127 -66z m-2116 -229 c150 -51 401 -96 533
-96 50 0 71 -4 71 -13 0 -6 -9 -98 -20 -202 -11 -105 -20 -200 -20 -212 0 -21
-5 -23 -52 -23 -81 0 -227 17 -398 46 -154 26 -379 79 -392 92 -4 4 9 40 28
80 18 41 34 76 34 78 0 3 18 43 40 90 22 47 40 87 40 90 0 11 52 94 59 94 4 0
39 -11 77 -24z m-3376 -66 c0 -27 65 -210 110 -306 22 -47 69 -130 105 -186
36 -55 65 -102 63 -103 -2 -2 -51 -29 -110 -60 l-107 -56 -35 55 c-81 126
-176 350 -222 521 -33 125 -34 122 32 131 31 3 77 12 102 19 53 14 62 12 62
-15z m7357 -958 c46 -29 86 -58 89 -63 9 -15 -17 -49 -118 -154 -131 -138
-390 -355 -423 -355 -12 0 -185 172 -185 184 0 4 17 21 38 38 94 81 280 272
350 360 l77 97 45 -26 c25 -15 82 -51 127 -81z m-6352 -278 c122 -74 344 -177
503 -234 34 -13 62 -24 62 -25 0 -2 -16 -37 -36 -79 -36 -76 -37 -77 -68 -70
-81 17 -471 179 -630 262 l-69 36 30 25 c16 14 54 47 84 73 30 26 56 48 59 48
3 0 32 -16 65 -36z m4792 -664 l21 -49 -26 -5 c-89 -18 -254 -35 -362 -38
-297 -7 -457 10 -233 26 102 6 281 41 443 85 58 16 112 29 120 29 9 1 24 -19
37 -48z"/>
        <path d="M5426 8177 c-60 -90 -176 -217 -289 -315 -190 -166 -223 -222 -215
-363 3 -58 8 -73 34 -106 50 -61 113 -88 209 -88 88 0 118 12 192 71 38 31 41
32 36 11 -24 -107 -61 -174 -145 -261 -26 -27 -48 -51 -48 -53 0 -2 105 -3
233 -3 l232 0 -54 52 c-97 93 -151 200 -151 300 l0 32 50 -56 c28 -31 69 -66
93 -77 84 -41 194 -19 275 54 65 58 87 113 78 191 -12 105 -45 151 -247 353
-158 158 -191 196 -216 250 l-30 64 -37 -56z"/>
        <path d="M6523 8091 c-89 -23 -180 -108 -209 -194 -35 -106 -11 -212 74 -324
26 -34 132 -151 235 -260 l188 -198 243 245 c208 209 248 255 275 311 38 79
44 164 18 244 -64 190 -306 239 -470 96 l-37 -33 -42 36 c-23 20 -61 45 -85
57 -47 23 -140 33 -190 20z"/>
        <path d="M6735 6896 c-128 -41 -194 -120 -195 -232 0 -78 25 -138 85 -200 58
-59 56 -65 -8 -32 -59 30 -166 36 -243 13 -177 -51 -233 -265 -103 -394 101
-102 286 -96 406 13 42 38 50 41 71 28 9 -7 9 -19 -5 -58 -23 -69 -71 -141
-136 -201 l-56 -53 224 0 224 0 -50 47 c-34 31 -62 72 -89 127 -56 117 -57
122 -19 135 30 10 35 8 76 -30 113 -104 274 -115 380 -25 102 88 111 249 20
345 -84 89 -219 106 -359 46 -29 -12 -21 11 22 60 64 73 84 121 84 191 -1 96
-52 169 -146 208 -51 22 -137 27 -183 12z"/>
        <path d="M5174 6678 c-215 -227 -304 -324 -304 -334 0 -3 47 -58 104 -122 57
-64 165 -188 241 -274 75 -87 140 -158 144 -158 11 0 291 286 420 429 l111
123 -27 37 c-15 20 -88 106 -163 191 -74 86 -166 195 -205 242 -45 56 -77 87
-90 87 -14 1 -89 -72 -231 -221z"/>
    </g>
</svg>