<svg version="1.1" xmlns="http://www.w3.org/2000/svg" width="512" height="512">
    <path d="M0 0 C1.26597869 -0.00538554 2.53195738 -0.01077108 3.83629906 -0.01631981 C7.3251011 -0.03069734 10.81366536 -0.02655403 14.30247998 -0.019153 C18.07491565 -0.01440442 21.84730112 -0.02694607 25.61972046 -0.03717041 C33.00052675 -0.0543309 40.3812478 -0.05520413 47.76206885 -0.04995751 C53.76383394 -0.04590935 59.76557391 -0.04736702 65.7673378 -0.05270576 C66.62288021 -0.05345419 67.47842262 -0.05420261 68.35989056 -0.05497371 C70.09815645 -0.05650525 71.83642233 -0.0580436 73.57468821 -0.05958868 C89.86100849 -0.07330383 106.14728067 -0.06788301 122.43359984 -0.05640347 C137.31731558 -0.04647266 152.20090697 -0.05941086 167.08460353 -0.08333766 C182.3853589 -0.10774867 197.68605639 -0.11733158 212.98683083 -0.11068493 C221.5697778 -0.10719709 230.15262917 -0.10939598 238.73556137 -0.12693596 C246.04214834 -0.14168302 253.34857239 -0.14226079 260.65515624 -0.12486505 C264.37925442 -0.11637309 268.10306187 -0.11416086 271.82714462 -0.1295166 C275.87327817 -0.14599303 279.91871514 -0.1311701 283.96484375 -0.11352539 C285.12926243 -0.1231304 286.2936811 -0.1327354 287.4933852 -0.14263147 C301.09706748 -0.02099049 313.27713971 4.7429543 323.29690552 14.01268005 C335.51546723 26.97325969 337.56194407 40.91930911 337.49708557 57.90986633 C337.50126224 59.69186174 337.50674159 61.47385449 337.51340538 63.25584233 C337.52783495 68.13561467 337.52362303 73.01521776 337.51623857 77.89499927 C337.51150305 83.1643753 337.52402016 88.43371491 337.53425598 93.70307922 C337.55144178 104.01962189 337.55228443 114.33610364 337.54704308 124.6526569 C337.54299973 133.03904994 337.5444469 141.42542499 337.54979134 149.81181717 C337.55053976 151.00595365 337.55128818 152.20009013 337.55205928 153.43041257 C337.55359078 155.85639246 337.55512912 158.28237234 337.55667425 160.70835222 C337.57039851 183.45275289 337.56496212 206.19711915 337.55348904 228.94151904 C337.54355683 249.74209286 337.55649728 270.54257774 337.58042323 291.34313785 C337.60481486 312.7097961 337.61442193 334.07641293 337.6077705 355.44308484 C337.60427842 367.43539398 337.60650968 379.42763471 337.62402153 391.41993332 C337.63874427 401.62871027 337.63937793 411.83737064 337.62195062 422.04614531 C337.61343891 427.25270955 337.6112954 432.45906552 337.62660217 437.6656189 C337.64045388 442.43637441 337.63567973 447.20674332 337.61636294 451.97747649 C337.61260413 453.69877831 337.61552143 455.42011112 337.62597459 457.1413853 C337.71804082 473.46886366 334.19653617 486.79058454 322.92190552 499.13768005 C311.76735442 509.54192502 299.03609585 512.85154632 284.21881104 512.77536011 C282.95283234 512.78074565 281.68685365 512.78613118 280.38251197 512.79167992 C276.89370994 512.80605745 273.40514568 512.80191414 269.91633105 512.79451311 C266.14389539 512.78976453 262.37150992 512.80230618 258.59909058 512.81253052 C251.21828429 512.82969101 243.83756324 512.83056424 236.45674218 512.82531761 C230.4549771 512.82126946 224.45323713 512.82272713 218.45147324 512.82806587 C217.59593083 512.82881429 216.74038842 512.82956272 215.85892048 512.83033382 C214.12065459 512.83186536 212.3823887 512.83340371 210.64412282 512.83494879 C194.35780255 512.84866394 178.07153036 512.84324312 161.78521119 512.83176357 C146.90149545 512.82183277 132.01790406 512.83477096 117.1342075 512.85869776 C101.83345214 512.88310877 86.53275464 512.89269168 71.2319802 512.88604504 C62.64903324 512.8825572 54.06618186 512.88475609 45.48324966 512.90229607 C38.1766627 512.91704312 30.87023865 512.9176209 23.5636548 512.90022516 C19.83955662 512.8917332 16.11574916 512.88952096 12.39166641 512.90487671 C8.34553287 512.92135313 4.3000959 512.90653021 0.25396729 512.8888855 C-0.91045139 512.8984905 -2.07487007 512.90809551 -3.27457416 512.91799158 C-17.28122007 512.79274739 -29.30338848 507.63949957 -39.64059448 498.20018005 C-51.51769167 485.46656144 -53.34151111 471.43116751 -53.27827454 454.86549377 C-53.28245121 453.08349837 -53.28793055 451.30150562 -53.29459435 449.51951778 C-53.30902391 444.63974544 -53.30481199 439.76014235 -53.29742754 434.88036084 C-53.29269201 429.61098481 -53.30520913 424.3416452 -53.31544495 419.07228088 C-53.33263074 408.75573822 -53.3334734 398.43925647 -53.32823204 388.12270321 C-53.32418869 379.73631017 -53.32563587 371.34993512 -53.3309803 362.96354294 C-53.33172872 361.76940646 -53.33247714 360.57526997 -53.33324825 359.34494754 C-53.33477974 356.91896765 -53.33631809 354.49298777 -53.33786321 352.06700788 C-53.35158748 329.32260722 -53.34615109 306.57824095 -53.334678 283.83384107 C-53.32474579 263.03326724 -53.33768624 242.23278237 -53.36161219 221.43222226 C-53.38600382 200.065564 -53.39561089 178.69894717 -53.38895947 157.33227527 C-53.38546739 145.33996613 -53.38769864 133.3477254 -53.40521049 121.35542679 C-53.41993323 111.14664984 -53.42056689 100.93798947 -53.40313958 90.7292148 C-53.39462788 85.52265056 -53.39248437 80.31629459 -53.40779114 75.10974121 C-53.42164285 70.3389857 -53.4168687 65.56861679 -53.3975519 60.79788361 C-53.39379309 59.0765818 -53.3967104 57.35524898 -53.40716355 55.63397481 C-53.49922979 39.30649644 -49.97772513 25.98477557 -38.70309448 13.63768005 C-27.54854339 3.23343508 -14.81728482 -0.07618622 0 0 Z M144.10940552 145.38768005 C142.24735356 147.61906463 140.51232148 149.85893567 138.79690552 152.20018005 C138.00872437 153.26268982 138.00872437 153.26268982 137.20462036 154.34666443 C132.5291056 160.70216191 128.05827346 167.19476959 123.65115356 173.73851013 C120.27990988 178.7366217 116.77357471 183.59996276 113.10940552 188.38768005 C103.3243432 186.77189719 93.70085579 184.51017098 84.04690552 182.26268005 C81.64517832 181.70404933 79.24328406 181.1462048 76.84074402 180.59107971 C75.35673016 180.24817307 73.87317849 179.9032585 72.39015198 179.55610657 C68.78737971 178.68874623 68.78737971 178.68874623 65.10940552 178.38768005 C67.40046217 186.05142589 70.7109255 192.90774528 74.35940552 200.01268005 C79.14429709 209.39106753 83.65257282 218.83732426 88.10940552 228.38768005 C130.34940552 228.38768005 172.58940552 228.38768005 216.10940552 228.38768005 C222.31318455 203.79734113 222.31318455 203.79734113 228.18582153 179.12986755 C228.6980139 176.89896238 229.22124911 174.67077974 229.74417114 172.44236755 C230.0762037 170.99980922 230.40761403 169.55710748 230.73831177 168.11424255 C231.02778687 166.86207947 231.31726196 165.60991638 231.61550903 164.31980896 C232.39293519 161.46343262 232.39293519 161.46343262 231.10940552 159.38768005 C226.75214843 161.96307041 222.39634536 164.54089775 218.04177856 167.12083435 C216.56527199 167.99517674 215.08839419 168.8688926 213.6111145 169.7419281 C211.46759747 171.00884915 209.32551876 172.27817451 207.18362427 173.5478363 C206.48510345 173.95998383 205.78658264 174.37213135 205.06689453 174.79676819 C200.04845889 177.77517611 195.19147259 180.94403571 190.41726685 184.30345154 C187.4851415 185.68095801 186.13278135 185.45533878 183.10940552 184.38768005 C180.96930732 182.38002113 179.08823587 180.40486105 177.17190552 178.20018005 C170.30796463 170.55691875 163.09703722 163.30064858 155.78912354 156.08680725 C154.36674747 154.68240138 152.947006 153.27532871 151.52737427 151.8681488 C150.70003784 151.05241394 149.87270142 150.23667908 149.02029419 149.39622498 C147.10940552 147.38768005 147.10940552 147.38768005 146.10940552 145.38768005 C145.44940552 145.38768005 144.78940552 145.38768005 144.10940552 145.38768005 Z M89.10940552 240.38768005 C82.42015549 253.71172165 82.42015549 253.71172165 76.10940552 267.20018005 C75.71624146 268.05676208 75.32307739 268.91334412 74.91799927 269.79588318 C74.54803833 270.61637146 74.17807739 271.43685974 73.79690552 272.2822113 C73.47077271 273.00255554 73.14463989 273.72289978 72.80862427 274.46507263 C71.93851482 276.51660197 71.93851482 276.51660197 72.10940552 279.38768005 C72.85963989 279.46244568 73.60987427 279.5372113 74.38284302 279.61424255 C83.1571644 280.74142238 90.17610218 282.94972648 96.17971802 289.72361755 C100.24076017 295.24595521 104.10940552 301.34278275 104.10940552 308.38768005 C103.70850708 307.86818787 103.30760864 307.34869568 102.89456177 306.8134613 C97.86032827 300.63767826 92.1208416 295.91366788 84.10940552 294.38768005 C74.35622078 293.43728985 66.52161083 295.39367191 58.79690552 301.51268005 C52.45370272 307.4706681 49.51707628 315.08796014 48.85940552 323.63768005 C49.46822284 332.76993994 53.22206977 339.8797721 59.92190552 346.07518005 C67.25539848 352.18193063 75.08561204 353.91561224 84.50003052 353.20799255 C91.14807037 352.06899272 97.2538926 348.97444602 101.49368286 343.64891052 C106.10969627 337.11169454 109.20197084 329.96007253 112.35940552 322.63768005 C112.88792114 321.43240662 113.41643677 320.22713318 113.96096802 318.9853363 C116.07784412 314.14445973 118.16930115 309.30246019 120.10940552 304.38768005 C120.46131958 305.38025818 120.81323364 306.3728363 121.17581177 307.39549255 C129.60351779 330.76941217 141.23691967 351.61860119 164.10940552 363.38768005 C178.10294167 369.07717889 192.67729196 370.66131323 207.10940552 365.38768005 C217.99042109 360.61348892 225.82540086 353.70925389 234.10940552 345.38768005 C232.56104554 341.03909457 230.3200212 337.26616989 227.85940552 333.38768005 C227.43409546 332.71140564 227.0087854 332.03513123 226.57058716 331.33836365 C222.06008854 324.2177004 217.37192697 317.21422001 212.66897583 310.2197113 C212.09115356 309.35990662 211.5133313 308.50010193 210.91799927 307.61424255 C210.40036011 306.84676697 209.88272095 306.07929138 209.34939575 305.28855896 C208.10940552 303.38768005 208.10940552 303.38768005 207.10940552 301.38768005 C207.76167114 301.1453363 208.41393677 300.90299255 209.08596802 300.65330505 C218.68606442 296.97185215 223.78576826 293.22265252 229.10940552 284.38768005 C227.71137205 281.31748891 226.0258085 278.96394306 223.85940552 276.38768005 C215.52441962 265.79530214 211.36513323 253.69839381 210.10940552 240.38768005 C206.47940552 240.38768005 202.84940552 240.38768005 199.10940552 240.38768005 C198.60557253 256.16772922 205.82745002 271.01173939 215.10940552 283.38768005 C215.10940552 284.04768005 215.10940552 284.70768005 215.10940552 285.38768005 C201.04674913 293.60812992 188.25810737 294.67099061 172.10940552 294.38768005 C168.60703885 302.65922687 165.29300248 310.98840295 162.10940552 319.38768005 C157.35854684 315.42395481 152.8732744 311.28973224 148.51956177 306.89549255 C147.93017319 306.30468903 147.34078461 305.7138855 146.73353577 305.10517883 C144.87726825 303.24337602 143.02453467 301.37810261 141.17190552 299.51268005 C139.90325879 298.23900995 138.63438061 296.96557034 137.36526489 295.69236755 C134.27729998 292.59345962 131.19249623 289.49143704 128.10940552 286.38768005 C129.68498759 281.18691078 131.88652223 276.43776536 134.24221802 271.55955505 C134.63891693 270.72933838 135.03561584 269.8991217 135.44433594 269.04374695 C137.13381425 265.50802818 138.83140017 261.97622305 140.52883911 258.44432068 C141.76977935 255.85922579 143.0061454 253.27198003 144.24221802 250.68455505 C144.62967194 249.88249634 145.01712585 249.08043762 145.4163208 248.2540741 C147.39228182 244.49024527 147.39228182 244.49024527 148.10940552 240.38768005 C128.63940552 240.38768005 109.16940552 240.38768005 89.10940552 240.38768005 Z M172.10940552 257.38768005 C172.10940552 258.04768005 172.10940552 258.70768005 172.10940552 259.38768005 C180.95590598 262.08837189 180.95590598 262.08837189 190.10940552 262.38768005 C191.45345327 261.26931782 191.45345327 261.26931782 191.23440552 258.38768005 C191.45345327 255.50604229 191.45345327 255.50604229 190.10940552 254.38768005 C183.7252117 253.83253277 178.18660025 255.54144368 172.10940552 257.38768005 Z " fill="#EE5858" transform="translate(113.89059448242188,-0.3876800537109375)"/>
</svg>
