<svg version="1.0" xmlns="http://www.w3.org/2000/svg"
    width="1024.000000pt" height="1024.000000pt" viewBox="0 0 1024.000000 1024.000000"
    preserveAspectRatio="xMidYMid meet">

    <g transform="translate(0.000000,1024.000000) scale(0.100000,-0.100000)"
        fill="#7E0000" stroke="none">
        <path d="M4745 9069 c-970 -91 -1904 -566 -2544 -1295 -561 -638 -866 -1346
-957 -2221 -20 -196 -24 -798 -5 -978 34 -335 71 -553 136 -800 201 -764 676
-1501 1281 -1985 600 -480 1290 -760 2074 -842 154 -16 625 -16 770 0 488 54
898 167 1298 358 317 150 655 376 930 618 327 290 703 794 889 1194 198 427
312 848 370 1377 23 204 26 935 5 1110 -60 498 -187 930 -397 1345 -404 797
-1106 1458 -1924 1811 -381 164 -805 274 -1191 309 -134 12 -604 11 -735 -1z
m737 -164 c85 -8 216 -26 289 -40 187 -34 199 -37 203 -44 3 -4 -7 -58 -20
-121 -53 -252 -117 -536 -124 -556 l-8 -21 -143 28 c-207 40 -339 53 -569 53
-220 0 -392 -17 -582 -58 -59 -12 -111 -20 -116 -17 -5 3 -41 150 -82 326 -40
176 -77 330 -81 342 -7 20 -4 24 29 32 71 19 308 59 417 71 61 6 119 13 130
14 68 10 523 4 657 -9z m-159 -1245 c817 -60 1580 -569 1980 -1320 267 -502
346 -1131 213 -1690 -145 -609 -532 -1144 -1081 -1495 -281 -180 -596 -298
-935 -352 -177 -28 -588 -25 -765 5 -298 51 -520 125 -765 253 -698 367 -1167
1018 -1285 1784 -9 55 -18 177 -22 270 -31 872 381 1668 1112 2147 465 305
986 439 1548 398z m-3340 -1553 c142 -36 261 -67 264 -71 4 -4 -5 -57 -20
-119 -51 -212 -77 -447 -77 -707 0 -186 10 -298 41 -483 13 -75 18 -131 13
-136 -5 -5 -168 -48 -363 -96 -262 -65 -355 -84 -361 -75 -4 6 -17 67 -28 133
-97 555 -77 1087 60 1588 l20 76 97 -23 c53 -13 212 -52 354 -87z m6762 -27
c29 -113 68 -337 87 -495 22 -184 16 -606 -11 -810 -20 -148 -56 -353 -64
-361 -5 -5 -720 175 -729 184 -5 5 -2 36 6 73 38 166 50 301 50 564 0 284 -13
414 -61 625 -15 63 -27 130 -27 149 l-1 35 95 23 c52 13 212 52 355 87 252 61
260 63 268 43 4 -11 18 -63 32 -117z m-4155 -3773 c347 -66 702 -62 1114 13
75 14 121 18 125 12 10 -17 174 -703 168 -708 -6 -7 -144 -39 -247 -58 -183
-33 -324 -47 -540 -53 -242 -6 -404 4 -612 38 -116 18 -346 67 -359 75 -6 3
39 215 105 489 59 243 53 228 84 222 15 -2 88 -16 162 -30z"/>
        <path d="M4208 7062 c-43 -76 -167 -212 -306 -335 -262 -231 -320 -304 -351
-437 -42 -180 36 -356 189 -429 45 -21 69 -26 135 -26 107 1 166 27 240 107
l55 59 0 -49 c0 -65 -34 -174 -72 -235 -17 -26 -58 -72 -91 -101 -96 -86 -98
-86 233 -86 226 0 282 3 286 13 3 8 -21 40 -55 75 -85 88 -137 205 -154 349
l-5 43 61 -63 c105 -107 207 -137 335 -98 89 27 168 95 208 179 39 81 45 210
14 301 -40 120 -81 167 -352 408 -118 106 -246 246 -305 334 -14 21 -28 39
-32 39 -3 0 -18 -22 -33 -48z"/>
        <path d="M5543 6930 c-75 -38 -125 -92 -167 -179 -29 -62 -31 -73 -31 -181 1
-106 3 -121 33 -195 41 -102 80 -153 275 -360 133 -142 196 -219 330 -409 13
-19 16 -16 56 42 76 112 203 265 326 392 66 69 137 148 157 175 164 228 171
470 18 638 -63 69 -126 100 -212 105 -132 8 -234 -56 -300 -186 l-34 -70 -32
62 c-67 130 -149 187 -277 194 -74 3 -85 1 -142 -28z"/>
        <path d="M4012 5022 c-122 -152 -273 -335 -336 -406 -87 -99 -113 -133 -106
-145 5 -9 65 -81 134 -160 145 -164 248 -289 398 -481 58 -74 114 -143 125
-152 19 -17 25 -11 208 220 105 130 256 315 338 410 130 152 147 175 135 190
-7 9 -49 57 -92 107 -76 86 -331 398 -484 591 -40 51 -78 94 -86 97 -9 4 -91
-92 -234 -271z"/>
        <path d="M5903 5286 c-89 -29 -177 -108 -216 -194 -52 -118 -26 -286 59 -381
25 -28 44 -51 42 -51 -2 0 -23 9 -46 20 -175 85 -361 20 -448 -154 -33 -67
-36 -82 -36 -153 1 -99 27 -173 84 -238 159 -181 411 -159 555 49 l35 51 -5
-65 c-14 -161 -121 -352 -239 -426 -25 -16 -35 -29 -32 -39 9 -23 669 -23 678
0 3 10 -7 23 -32 39 -79 50 -170 174 -207 284 -28 82 -44 209 -23 178 75 -108
131 -152 232 -181 77 -22 151 -14 232 25 73 36 126 91 162 169 22 47 27 70 27
146 0 77 -4 98 -27 147 -14 31 -45 77 -68 102 -95 103 -242 132 -365 71 -33
-16 -64 -31 -70 -34 -5 -2 11 19 36 47 69 76 92 131 97 232 3 70 0 95 -18 142
-28 75 -104 159 -176 194 -66 32 -167 41 -231 20z"/>
    </g>
</svg>



