<svg version="1.0" xmlns="http://www.w3.org/2000/svg"
    width="1024.000000pt" height="1024.000000pt" viewBox="0 0 1024.000000 1024.000000"
    preserveAspectRatio="xMidYMid meet">

    <g transform="translate(0.000000,1024.000000) scale(0.100000,-0.100000)"
        fill="#7E0000" stroke="none">
        <path d="M5880 9373 c-94 -8 -310 -42 -425 -68 -597 -134 -1137 -440 -1557
-884 l-104 -111 -200 -10 c-322 -16 -537 -50 -808 -130 -819 -242 -1492 -802
-1856 -1545 -146 -297 -229 -576 -271 -910 -26 -199 -13 -659 27 -985 74 -606
312 -1123 707 -1536 256 -269 638 -519 992 -649 l100 -37 55 -90 c82 -133 168
-245 288 -369 435 -455 1070 -762 1757 -850 140 -18 540 -16 680 4 l109 15
102 -34 c124 -41 283 -77 436 -99 130 -18 483 -37 572 -30 34 2 108 7 166 10
415 23 899 165 1280 375 695 383 1203 1005 1405 1723 118 420 191 1125 156
1504 -31 324 -113 642 -245 949 l-57 130 21 89 c159 683 70 1392 -246 1959
-77 138 -170 277 -266 399 -103 130 -361 387 -503 500 -580 464 -1258 691
-2045 685 -124 -1 -245 -3 -270 -5z m-231 -449 c40 -129 71 -237 69 -239 -2
-2 -64 -20 -138 -39 -193 -50 -323 -97 -500 -182 -145 -70 -155 -74 -168 -57
-8 10 -47 83 -87 163 -40 80 -89 173 -108 207 -26 45 -32 64 -24 71 23 19 201
104 306 147 168 68 484 161 562 164 12 1 33 -56 88 -235z m1474 167 c216 -67
422 -156 602 -262 58 -34 105 -67 103 -73 -4 -16 -272 -415 -279 -416 -3 0
-41 21 -85 46 -178 102 -351 176 -539 230 -65 19 -120 36 -122 38 -2 1 31 104
73 227 41 123 77 230 80 238 5 16 40 11 167 -28z m-663 -752 c378 -41 756
-199 1053 -439 323 -261 544 -595 638 -967 164 -651 -20 -1326 -493 -1803
-312 -316 -687 -511 -1133 -591 -147 -26 -474 -32 -625 -11 -361 52 -736 211
-1025 436 -155 120 -339 327 -445 501 -359 585 -358 1344 2 1933 99 162 293
380 451 507 236 190 546 336 845 399 251 53 471 63 732 35z m-4202 -569 c7
-11 73 -99 147 -194 74 -96 135 -176 135 -179 0 -2 -48 -35 -107 -73 -152 -97
-288 -208 -420 -342 l-113 -115 -62 49 c-35 27 -117 92 -183 144 -66 53 -131
103 -145 113 l-25 17 105 106 c169 171 382 336 610 471 44 27 43 27 58 3z
m1594 -97 c134 -58 245 -108 247 -110 3 -2 -5 -20 -18 -41 -84 -138 -196 -430
-222 -579 -8 -40 -18 -73 -24 -73 -20 0 -526 118 -532 124 -17 17 86 342 165
524 41 94 129 262 137 262 3 0 114 -48 247 -107z m5043 -77 c68 -142 109 -250
150 -390 28 -98 68 -286 62 -292 -3 -4 -466 -87 -526 -96 -23 -3 -25 1 -38 77
-28 166 -106 401 -185 559 -16 32 -26 62 -21 66 18 17 478 218 487 213 5 -3
37 -65 71 -137z m-7762 -1700 c125 -12 229 -25 231 -27 2 -2 -3 -38 -10 -79
-28 -148 -28 -547 -1 -694 2 -8 -521 -112 -528 -104 -16 15 -30 217 -30 418 1
218 6 281 36 457 l11 61 31 -4 c18 -3 134 -15 260 -28z m2770 -167 c44 -132
153 -360 225 -477 29 -46 52 -87 52 -90 0 -7 -452 -272 -463 -272 -10 0 -119
173 -173 274 -100 191 -225 516 -200 525 22 9 501 149 511 150 6 1 27 -49 48
-110z m4843 -35 c132 -42 242 -79 246 -83 12 -11 -81 -244 -167 -416 -85 -170
-211 -372 -230 -367 -8 2 -381 229 -445 271 -12 9 -12 12 2 28 63 71 259 436
309 576 13 37 29 67 35 67 6 0 119 -34 250 -76z m-6256 -1015 l225 -12 1 -301
c1 -213 5 -327 16 -389 8 -49 11 -90 7 -92 -19 -12 -504 -124 -511 -117 -13
14 -48 288 -54 437 -6 134 5 357 22 453 7 38 -15 37 294 21z m2616 -278 c129
-64 319 -136 454 -172 47 -12 88 -25 92 -28 7 -6 -135 -487 -147 -500 -9 -9
-239 53 -353 94 -135 50 -464 214 -459 229 3 7 37 63 77 126 40 63 100 159
134 213 33 53 66 97 72 97 7 0 65 -27 130 -59z m2372 -209 l120 -233 -80 -40
c-188 -94 -461 -190 -668 -234 -63 -13 -115 -23 -115 -22 -6 13 -136 515 -135
523 0 5 55 23 123 38 146 33 408 119 532 175 50 22 93 37 97 33 4 -4 60 -112
126 -240z m1645 -52 c121 -16 221 -31 222 -32 12 -12 -51 -333 -97 -496 -34
-125 -127 -362 -143 -368 -11 -5 -451 171 -468 186 -5 4 12 66 36 137 57 164
110 357 137 496 11 59 20 111 20 114 0 3 17 2 37 -2 20 -4 136 -20 256 -35z
m-7256 -93 c28 -29 79 -78 115 -110 l65 -57 22 -139 c24 -151 72 -352 119
-498 16 -51 27 -93 23 -93 -3 0 -56 27 -116 61 -230 127 -400 257 -588 447
l-99 99 49 45 c114 106 343 298 354 298 3 0 29 -24 56 -53z m1468 -1185 c131
-122 335 -266 484 -342 46 -23 61 -35 57 -47 -7 -17 -232 -418 -251 -445 -10
-16 -21 -12 -121 43 -216 120 -478 312 -608 447 l-39 41 99 94 c129 122 298
277 303 277 2 0 36 -31 76 -68z m4737 -469 c85 -104 157 -194 162 -201 5 -8 1
-19 -10 -28 -35 -26 -239 -160 -289 -189 -142 -82 -421 -205 -472 -208 -21 -2
-35 23 -133 231 -61 128 -110 236 -110 240 0 4 44 22 98 41 184 64 460 201
557 277 17 13 33 23 37 24 3 0 76 -84 160 -187z m-2076 -217 c57 -125 104
-232 104 -237 0 -21 -235 -108 -415 -154 -121 -31 -341 -66 -496 -80 l-66 -5
-12 87 c-9 64 -60 447 -61 459 0 1 46 5 103 8 226 16 436 57 637 125 47 16 89
28 93 27 5 -1 55 -104 113 -230z"/>
        <path d="M5405 7766 c-18 -30 -112 -133 -231 -251 -110 -110 -216 -222 -234
-249 -94 -139 -91 -297 8 -395 53 -53 101 -71 186 -71 66 0 109 16 179 67 l50
37 -6 -63 c-9 -103 -58 -183 -157 -254 l-25 -18 35 5 c19 3 126 6 238 7 111 2
202 4 202 6 0 1 -20 21 -45 44 -63 58 -108 153 -113 238 l-4 66 46 -51 c54
-62 107 -85 191 -86 82 0 136 24 190 84 85 94 97 218 34 347 -28 56 -60 94
-226 256 -122 119 -212 216 -242 261 l-47 70 -29 -50z"/>
        <path d="M6537 7685 c-130 -48 -234 -211 -212 -334 25 -142 89 -236 309 -454
95 -95 190 -198 211 -229 l37 -57 40 62 c22 34 125 147 228 252 244 248 290
319 290 451 0 94 -31 166 -100 236 -43 43 -69 60 -110 72 -135 40 -249 1 -320
-111 l-27 -42 -32 49 c-37 58 -68 82 -134 104 -58 19 -128 20 -180 1z"/>
        <path d="M5160 6072 c-146 -174 -265 -322 -265 -328 0 -15 527 -634 536 -631
6 2 93 103 437 505 l112 131 -216 253 c-120 139 -242 283 -272 321 -31 37 -58
67 -61 66 -4 0 -125 -143 -271 -317z"/>
        <path d="M6787 6356 c-67 -25 -132 -84 -163 -151 -28 -60 -32 -156 -9 -212 9
-21 45 -67 80 -104 65 -67 88 -108 43 -75 -104 76 -229 93 -325 43 -85 -44
-134 -128 -136 -232 -1 -102 57 -196 148 -239 43 -21 137 -32 188 -22 50 9
123 61 158 113 40 58 53 46 47 -44 -5 -90 -41 -167 -114 -243 l-57 -60 185 0
c102 0 206 3 231 6 l47 7 -51 55 c-73 80 -101 141 -113 245 -8 67 2 72 46 22
22 -25 64 -58 92 -73 69 -36 189 -38 252 -5 48 26 105 86 134 142 31 62 28
154 -8 222 -73 140 -228 175 -396 89 l-59 -30 50 53 c72 76 95 126 101 219 4
64 1 84 -17 122 -26 52 -82 106 -143 137 -54 28 -158 35 -211 15z"/>
        <path d="M1902 3895 c0 -16 2 -22 5 -12 2 9 2 23 0 30 -3 6 -5 -1 -5 -18z"/>
        <path d="M1902 3650 c0 -14 2 -19 5 -12 2 6 2 18 0 25 -3 6 -5 1 -5 -13z"/>
        <path d="M1911 3554 c0 -11 3 -14 6 -6 3 7 2 16 -1 19 -3 4 -6 -2 -5 -13z"/>
        <path d="M1942 3330 c0 -14 2 -19 5 -12 2 6 2 18 0 25 -3 6 -5 1 -5 -13z"/>
    </g>
</svg>
