<svg version="1.1" xmlns="http://www.w3.org/2000/svg" width="512" height="512">
    <path d="M0 0 C10.29138078 1.94231694 20.02517269 7.05836293 29.54833984 11.24243164 C30.19148132 11.52490753 30.8346228 11.80738342 31.49725342 12.09841919 C32.80638958 12.6734373 34.11534966 13.24885647 35.4241333 13.82467651 C61.24292391 25.15510062 81.93456479 31.89851941 109.3671875 21.41796875 C121.77008352 16.56500624 134.03217576 11.35456585 146.27075195 6.10327148 C147.80928833 5.44500366 147.80928833 5.44500366 149.37890625 4.7734375 C150.27762451 4.38671875 151.17634277 4 152.10229492 3.6015625 C158.04881332 1.20143223 163.34289409 -0.57825709 169.7734375 0.5234375 C194.42703314 17.5461583 206.77718209 73.18520739 216.0859375 100.3359375 C216.36283417 101.14130951 216.63973083 101.94668152 216.92501831 102.77645874 C219.60761948 110.61179693 222.23870346 118.36609352 223.7734375 126.5234375 C224.81564453 126.63558594 224.81564453 126.63558594 225.87890625 126.75 C233.31248726 127.71099526 240.42878565 129.3446142 247.6484375 131.3359375 C248.98491333 131.69002686 248.98491333 131.69002686 250.34838867 132.05126953 C256.06282997 133.67845789 260.22229919 135.66592188 264.7734375 139.5234375 C265.6484375 142.3359375 265.6484375 142.3359375 264.7734375 145.5234375 C257.14006663 158.22811359 239.92722499 164.26751391 226.7734375 169.5234375 C226.1134375 169.5234375 225.4534375 169.5234375 224.7734375 169.5234375 C224.78391113 170.07467285 224.79438477 170.6259082 224.80517578 171.19384766 C225.68295984 225.09423336 208.79488999 272.92211462 172.7734375 313.5234375 C172.01160156 314.16796875 171.24976563 314.8125 170.46484375 315.4765625 C167.09380111 319.55606907 167.46536847 325.0657682 167.7578125 330.12890625 C168.66867575 336.05587818 172.20229934 338.8059651 176.80151367 342.26879883 C178.12147314 343.22032897 179.4493723 344.16093426 180.78466797 345.09082031 C184.02297217 347.42354424 186.96923312 350.07465427 189.9609375 352.7109375 C195.81547956 357.74782882 201.71661719 362.73064925 207.7734375 367.5234375 C208.3195166 367.97807373 208.8655957 368.43270996 209.42822266 368.90112305 C215.25506198 373.56274613 221.62252969 376.53080527 228.3984375 379.5859375 C229.62428524 380.14754088 230.84986558 380.70972824 232.07519531 381.27246094 C239.88148099 384.84071427 247.75213198 388.24954289 255.64648438 391.61743164 C299.36807231 410.27515122 299.36807231 410.27515122 308.9453125 432.20703125 C318.81492365 457.41745105 313.7734375 486.81868948 313.7734375 512.5234375 C160.6534375 512.5234375 7.5334375 512.5234375 -150.2265625 512.5234375 C-150.2265625 432.54828222 -150.2265625 432.54828222 -133.33984375 414.5078125 C-121.11607658 402.67986256 -104.10086918 396.65629283 -88.75634766 390.05175781 C-83.03128069 387.57292816 -77.32936254 385.04298604 -71.63314819 382.49865723 C-69.77696548 381.67091412 -67.91848028 380.84851576 -66.05981445 380.02636719 C-53.06167095 374.31142543 -53.06167095 374.31142543 -41.8515625 365.7734375 C-38.31642643 362.44884277 -34.75580103 359.2556356 -30.9765625 356.2109375 C-25.6877027 351.94326965 -20.55556526 347.51259807 -15.44042969 343.03979492 C-14.83618164 342.51232666 -14.23193359 341.9848584 -13.609375 341.44140625 C-13.03348633 340.9314209 -12.45759766 340.42143555 -11.86425781 339.89599609 C-10.2265625 338.5234375 -10.2265625 338.5234375 -7.34375 336.63671875 C-4.83465675 334.13225482 -4.43618746 332.24215229 -4.2253418 328.73852539 C-4.2293616 321.44419276 -4.61499208 317.10161226 -9.9140625 311.5859375 C-10.92640499 310.62413732 -11.94217642 309.66593634 -12.9609375 308.7109375 C-34.84180101 288.17294287 -48.78939162 255.02000849 -56.2265625 226.5234375 C-56.54367188 225.32589844 -56.86078125 224.12835938 -57.1875 222.89453125 C-61.32793465 205.5334018 -61.59401742 187.28355492 -62.2265625 169.5234375 C-63.25394531 169.08773437 -64.28132813 168.65203125 -65.33984375 168.203125 C-94.39431737 155.77180519 -94.39431737 155.77180519 -101.2265625 145.5234375 C-101.2890625 142.0859375 -101.2890625 142.0859375 -100.2265625 138.5234375 C-95.62655499 135.462552 -91.15379018 133.64143687 -85.8515625 132.0234375 C-85.16964844 131.79809326 -84.48773438 131.57274902 -83.78515625 131.34057617 C-80.03209327 130.14979902 -76.62768881 129.4040267 -72.6875 129.23046875 C-68.06715662 128.91554807 -63.93291921 128.50769548 -60.2265625 125.5234375 C-56.2298898 118.93341406 -55.01938025 110.85439146 -53.25341797 103.44628906 C-51.51810162 96.53401413 -48.95314778 89.88433054 -46.4765625 83.2109375 C-45.96197493 81.8093337 -45.44740793 80.40772235 -44.93286133 79.00610352 C-15.37793091 -1.0451021 -15.37793091 -1.0451021 0 0 Z " fill="#EFC6B6" transform="translate(174.2265625,-0.5234375)"/>
    <path d="M0 0 C10.29138078 1.94231694 20.02517269 7.05836293 29.54833984 11.24243164 C30.19148132 11.52490753 30.8346228 11.80738342 31.49725342 12.09841919 C32.80638958 12.6734373 34.11534966 13.24885647 35.4241333 13.82467651 C61.24292391 25.15510062 81.93456479 31.89851941 109.3671875 21.41796875 C121.77008352 16.56500624 134.03217576 11.35456585 146.27075195 6.10327148 C147.80928833 5.44500366 147.80928833 5.44500366 149.37890625 4.7734375 C150.72698364 4.19335938 150.72698364 4.19335938 152.10229492 3.6015625 C158.04881332 1.20143223 163.34289409 -0.57825709 169.7734375 0.5234375 C194.42703314 17.5461583 206.77718209 73.18520739 216.0859375 100.3359375 C216.36283417 101.14130951 216.63973083 101.94668152 216.92501831 102.77645874 C219.60761948 110.61179693 222.23870346 118.36609352 223.7734375 126.5234375 C224.81564453 126.63558594 224.81564453 126.63558594 225.87890625 126.75 C233.31248726 127.71099526 240.42878565 129.3446142 247.6484375 131.3359375 C248.98491333 131.69002686 248.98491333 131.69002686 250.34838867 132.05126953 C256.06282997 133.67845789 260.22229919 135.66592188 264.7734375 139.5234375 C265.6484375 142.3359375 265.6484375 142.3359375 264.7734375 145.5234375 C256.91365161 158.60494966 237.53845116 166.16096886 223.484375 170.55078125 C220.59158813 171.27202865 217.68814877 171.89748501 214.7734375 172.5234375 C212.39570139 173.15912349 210.02085942 173.80569716 207.6484375 174.4609375 C183.16769146 180.97098422 158.44360213 184.79556707 133.15087891 186.31884766 C130.80851517 186.46073726 128.46703548 186.61771393 126.12646484 186.78662109 C110.57356697 187.8531593 94.98028891 187.76919887 79.3984375 187.7734375 C78.28167381 187.77410028 78.28167381 187.77410028 77.14234924 187.77477646 C54.24026478 187.78189598 31.51378137 187.52290378 8.7734375 184.5234375 C7.79410248 184.39615265 7.79410248 184.39615265 6.79498291 184.26629639 C-12.85538284 181.69297019 -32.08182916 177.61673491 -51.2265625 172.5234375 C-52.0520459 172.30719727 -52.8775293 172.09095703 -53.72802734 171.86816406 C-69.30793352 167.7075226 -92.31830004 160.10853388 -101.2265625 145.5234375 C-101.3515625 142.0234375 -101.3515625 142.0234375 -100.2265625 138.5234375 C-95.62207933 135.46920746 -91.15443507 133.64163367 -85.8515625 132.0234375 C-85.16964844 131.79809326 -84.48773438 131.57274902 -83.78515625 131.34057617 C-80.03209327 130.14979902 -76.62768881 129.4040267 -72.6875 129.23046875 C-68.06715662 128.91554807 -63.93291921 128.50769548 -60.2265625 125.5234375 C-56.2298898 118.93341406 -55.01938025 110.85439146 -53.25341797 103.44628906 C-51.51810162 96.53401413 -48.95314778 89.88433054 -46.4765625 83.2109375 C-45.96197493 81.8093337 -45.44740793 80.40772235 -44.93286133 79.00610352 C-15.37793091 -1.0451021 -15.37793091 -1.0451021 0 0 Z " fill="#656C77" transform="translate(174.2265625,-0.5234375)"/>
    <path d="M0 0 C7.26849087 21.00771141 13.50510994 42.37253172 19.73339844 63.70776367 C21.10672373 68.38226891 22.5241204 73.04298537 23.9453125 77.703125 C24.39134575 79.16714249 24.39134575 79.16714249 24.84638977 80.66073608 C29.3718263 95.50884487 33.90938589 110.35325934 38.44586182 125.19799805 C39.44030969 128.45231665 40.43456795 131.70669318 41.42882824 134.96106911 C42.40081078 138.14243378 43.37291597 141.32376097 44.34505653 144.50507736 C44.80231749 146.001508 45.25954209 147.49794975 45.7167263 148.99440384 C46.14870168 150.40830031 46.58076213 151.82217079 47.0129137 153.23601341 C47.42338939 154.57927726 47.83354446 155.92263912 48.24335003 157.26610756 C49.21734361 160.45605277 50.19906391 163.64332278 51.19692993 166.8258667 C51.56418182 168.00143127 51.93143372 169.17699585 52.30981445 170.38818359 C52.63633499 171.42526459 52.96285553 172.46234558 53.29927063 173.53085327 C54 176 54 176 54 178 C-12.33 178 -78.66 178 -147 178 C-147 98.02484472 -147 98.02484472 -130.11328125 79.984375 C-117.88951408 68.15642506 -100.87430668 62.13285533 -85.52978516 55.52832031 C-79.80471819 53.04949066 -74.10280004 50.51954854 -68.40658569 47.97521973 C-66.55040298 47.14747662 -64.69191778 46.32507826 -62.83325195 45.50292969 C-49.83510845 39.78798793 -49.83510845 39.78798793 -38.625 31.25 C-35.08986393 27.92540527 -31.52923853 24.7321981 -27.75 21.6875 C-22.4611402 17.41983215 -17.32900276 12.98916057 -12.21386719 8.51635742 C-2.45784448 0 -2.45784448 0 0 0 Z " fill="#535B65" transform="translate(171,334)"/>
    <path d="M0 0 C4.46046822 1.41923989 7.3282346 3.86639504 10.625 7.0625 C15.26676577 11.44071575 20.03528948 15.54862451 25.015625 19.54296875 C27.27778788 21.4054039 29.48243776 23.29343284 31.671875 25.23828125 C32.31600342 25.80820801 32.96013184 26.37813477 33.6237793 26.96533203 C34.87072036 28.0729913 36.11225406 29.1867841 37.34692383 30.30810547 C46.26416822 38.20766736 56.76712003 42.90550696 67.5625 47.6875 C68.93311422 48.30103041 70.30347201 48.91513397 71.67358398 49.52978516 C78.1289574 52.41996707 84.60091395 55.26907037 91.09375 58.07421875 C132.7322272 76.06680029 132.7322272 76.06680029 142.171875 97.68359375 C152.04148615 122.89401355 147 152.29525198 147 178 C80.67 178 14.34 178 -54 178 C-47.10749095 153.87621833 -47.10749095 153.87621833 -43.72265625 142.8515625 C-43.34821884 141.62625824 -42.97378143 140.40095398 -42.58799744 139.13851929 C-41.61097498 135.94134053 -40.63174025 132.74484415 -39.6519165 129.54852295 C-38.67354289 126.35566341 -37.69722096 123.16217762 -36.72070312 119.96875 C-35.57187579 116.21200231 -34.42279372 112.45533418 -33.27259827 108.69900513 C-31.50936831 102.94019064 -29.74927745 97.18047589 -27.99975586 91.41748047 C-27.68723373 90.38819427 -27.37471161 89.35890808 -27.05271912 88.2984314 C-26.48129097 86.41505574 -25.91054927 84.53147158 -25.3407135 82.64761353 C-23.4359267 76.36940583 -21.45001896 70.11942299 -19.4375 63.875 C-16.89825278 55.95273047 -14.53054672 47.99836621 -12.27587891 39.99072266 C-10.36449917 33.2200324 -8.36122633 26.48036919 -6.3125 19.75 C-6.02697266 18.80970947 -5.74144531 17.86941895 -5.44726562 16.90063477 C-3.71641653 11.23737354 -1.90283638 5.60781629 0 0 Z " fill="#545B66" transform="translate(341,334)"/>
    <path d="M0 0 C1.9375 0.8125 1.9375 0.8125 4 2 C4.33 2.99 4.66 3.98 5 5 C6.32024642 5.69222223 7.65563223 6.35587461 9 7 C10.18754903 8.12417634 11.33028935 9.29661738 12.4375 10.5 C30.55759753 28.95257639 57.83073434 45.30295792 84.046875 46.98828125 C116.26303322 47.11612315 144.22678433 25.28316241 166.49389648 4.16503906 C170.90046807 0 170.90046807 0 172 0 C173.48501175 13.83948452 169.49591955 25.16933279 164.98681641 38.11767578 C163.71221293 41.84057748 162.58151408 45.59231309 161.5 49.375 C161.11214654 50.71228814 160.72411883 52.04952575 160.3359375 53.38671875 C160.12936523 54.10134277 159.92279297 54.8159668 159.70996094 55.55224609 C155.48838774 70.10709234 151.2098081 84.64300428 146.52197266 99.05541992 C144.83104093 104.27939808 143.24607779 109.52984947 141.70678711 114.80029297 C139.16981421 123.45436623 136.57238146 132.08927464 133.953125 140.71875 C133.7272747 141.46315842 133.50142441 142.20756683 133.26873016 142.97453308 C132.08191661 146.88580473 130.89413349 150.79678041 129.70556641 154.70751953 C128.48006266 158.7405972 127.2582945 162.77479724 126.03725052 166.80922699 C125.09228654 169.92896907 124.14453688 173.04785969 123.19600677 176.16651917 C122.74359413 177.65580443 122.2922587 179.14541736 121.84201813 180.63536072 C121.21827996 182.69857679 120.5906073 184.76055497 119.96191406 186.82226562 C119.60615295 187.99454712 119.25039185 189.16682861 118.8838501 190.37463379 C118 193 118 193 117 194 C115.06693502 194.09396057 113.13041162 194.11743517 111.19506836 194.11352539 C109.95385727 194.11344986 108.71264618 194.11337433 107.43382263 194.11329651 C106.0691626 194.10818911 104.70450298 194.1029731 103.33984375 194.09765625 C101.95121817 194.095792 100.56259193 194.09436813 99.17396545 194.09336853 C95.51278885 194.08954387 91.8516517 194.07971403 88.19049072 194.06866455 C84.45707737 194.05844932 80.72365766 194.05387067 76.99023438 194.04882812 C69.66013823 194.03809171 62.33007464 194.02101591 55 194 C49.1303712 176.89401639 43.86778325 159.6178552 38.65612793 142.30358887 C37.56705348 138.68745647 36.47485659 135.07226773 35.3828125 131.45703125 C34.10619854 127.23017437 32.82980818 123.00325098 31.55490112 118.77587891 C28.05686144 107.17773463 24.53478735 95.58699421 21 84 C20.18908455 81.34049687 19.37826684 78.68096396 18.56747437 76.02142334 C18.03299627 74.26825229 17.49844672 72.51510302 16.96386719 70.76196289 C15.16116902 64.8398438 13.37024681 58.91426339 11.58505249 52.98684692 C10.3984868 49.04710723 9.21069858 45.10773634 8.02301025 41.16833496 C7.4251329 39.18375439 6.82792239 37.1989728 6.23138428 35.21398926 C5.38763207 32.4064962 4.54167875 29.59967467 3.6953125 26.79296875 C3.43832581 25.93569687 3.18133911 25.07842499 2.91656494 24.19517517 C1.6916589 20.00873601 1.6916589 20.00873601 0 16 C-0.07181821 13.28239892 -0.09299506 10.59140612 -0.0625 7.875 C-0.05798828 7.12089844 -0.05347656 6.36679687 -0.04882812 5.58984375 C-0.03703499 3.72652873 -0.01909942 1.86325445 0 0 Z " fill="#F4F6F9" transform="translate(170,318)"/>
    <path d="M0 0 C1.994523 0.54525457 3.98932381 1.08949372 5.984375 1.6328125 C9.77828726 2.67199366 13.55611414 3.7515023 17.328125 4.8671875 C37.43325343 10.5789344 58.3180229 12.32272003 79.0625 14.3125 C80.42544189 14.44968697 80.42544189 14.44968697 81.81591797 14.58964539 C89.85298524 15.34094192 97.83747521 15.47364452 105.90625 15.48046875 C107.32417837 15.4836989 108.74210643 15.48706413 110.16003418 15.49055481 C113.12508918 15.4965048 116.09011525 15.49839951 119.05517578 15.49780273 C122.03147567 15.49772228 125.007619 15.50454107 127.98388672 15.51831055 C153.96180657 15.6364243 179.66715122 14.52167978 205.4375 11 C206.23946808 10.89234314 207.04143616 10.78468628 207.8677063 10.67376709 C222.9430141 8.63630705 237.64781261 5.99478585 252.1796875 1.40625 C253.21359619 1.08060059 254.24750488 0.75495117 255.31274414 0.41943359 C257.28726422 -0.21370997 259.25589035 -0.86569157 261.21655273 -1.54052734 C267.2752913 -3.52898601 271.82467394 -4.00414158 278.0625 -2.6875 C278.86469971 -2.52282227 279.66689941 -2.35814453 280.4934082 -2.18847656 C283.02992168 -1.63013231 285.54471618 -1.01219298 288.0625 -0.375 C289.31933594 -0.07432617 289.31933594 -0.07432617 290.6015625 0.23242188 C306.55922068 4.22183642 306.55922068 4.22183642 311.0625 9.3125 C311.87822993 12.50126246 311.62883579 14.35606577 309.9453125 17.19921875 C298.99391676 31.06553823 277.81739975 38.71428042 261.0625 42.3125 C258.68476389 42.94818599 256.30992192 43.59475966 253.9375 44.25 C229.45675396 50.76004672 204.73266463 54.58462957 179.43994141 56.10791016 C177.09757767 56.24979976 174.75609798 56.40677643 172.41552734 56.57568359 C156.86262947 57.6422218 141.26935141 57.55826137 125.6875 57.5625 C124.57073631 57.56316278 124.57073631 57.56316278 123.43141174 57.56383896 C100.52932728 57.57095848 77.80284387 57.31196628 55.0625 54.3125 C54.40960999 54.22764343 53.75671997 54.14278687 53.08404541 54.05535889 C33.43367966 51.48203269 14.20723334 47.40579741 -4.9375 42.3125 C-6.1757251 41.98813965 -6.1757251 41.98813965 -7.43896484 41.65722656 C-23.01887102 37.4965851 -46.02923754 29.89759638 -54.9375 15.3125 C-55.0625 11.8125 -55.0625 11.8125 -53.9375 8.3125 C-49.32869525 5.24964993 -44.67825729 3.32459977 -39.375 1.75 C-38.68607666 1.54165527 -37.99715332 1.33331055 -37.28735352 1.11865234 C-23.68445042 -2.90502686 -13.77724562 -3.8981029 0 0 Z " fill="#656D78" transform="translate(127.9375,129.6875)"/>
    <path d="M0 0 C1.01317291 -0.01073296 1.01317291 -0.01073296 2.04681396 -0.02168274 C4.26888668 -0.0385257 6.48892895 -0.01919687 8.7109375 0.00219727 C10.26123216 0.00136814 11.81152673 -0.00109288 13.36181641 -0.00511169 C16.60671535 -0.00796664 19.85092288 0.00670062 23.09570312 0.03417969 C27.24877482 0.06826296 31.40061059 0.06224195 35.55374146 0.04351711 C38.75376634 0.03293318 41.95350512 0.04189738 45.15350342 0.05690193 C46.68445994 0.06207405 48.21544645 0.06161372 49.74639893 0.05535698 C51.88887452 0.04988748 54.02959914 0.07033081 56.171875 0.09765625 C57.3892334 0.10385483 58.6065918 0.11005341 59.86083984 0.11643982 C63.68884873 0.72731658 65.34675869 1.94169907 68.0859375 4.63110352 C69.0859375 6.63110352 69.0859375 6.63110352 69.0859375 17.63110352 C77.0059375 17.63110352 84.9259375 17.63110352 93.0859375 17.63110352 C93.0859375 14.00110352 93.0859375 10.37110352 93.0859375 6.63110352 C94.88712228 3.62912888 95.98926482 2.17943985 99.0859375 0.63110352 C101.24450497 0.52384464 103.40643091 0.48220414 105.56762695 0.4699707 C106.56551239 0.46252335 106.56551239 0.46252335 107.58355713 0.45492554 C109.78878813 0.4402973 111.99394716 0.43350026 114.19921875 0.42797852 C115.73137921 0.42222685 117.26353965 0.41646911 118.79570007 0.41070557 C122.01118302 0.40019318 125.22664095 0.39435233 128.44213867 0.39086914 C132.5580564 0.3853891 136.67364253 0.36137285 140.78945637 0.33289719 C143.95593727 0.314251 147.12233869 0.30906412 150.28886986 0.30753326 C151.805898 0.3045098 153.32292485 0.29649154 154.83989906 0.28334808 C156.965542 0.26624832 159.0903802 0.26817707 161.21606445 0.2746582 C162.42470657 0.27101257 163.63334869 0.26736694 164.87861633 0.26361084 C168.39478544 0.6664911 170.27457208 1.51879368 173.0859375 3.63110352 C175.33636856 8.13196564 174.39581074 14.22999658 174.43603516 19.23413086 C174.45259919 20.74535518 174.47989593 22.256501 174.51806641 23.76733398 C174.57287958 25.94889845 174.59471108 28.12863047 174.609375 30.31079102 C174.62919434 31.61773926 174.64901367 32.9246875 174.66943359 34.27124023 C174.0859375 37.63110352 174.0859375 37.63110352 171.98733521 39.8067627 C168.42103148 42.04918312 166.27460559 42.14912616 162.08007812 42.18041992 C161.05227486 42.19575272 161.05227486 42.19575272 160.00370789 42.21139526 C157.74950773 42.23908802 155.49653701 42.23728288 153.2421875 42.23266602 C151.66946969 42.24044446 150.09675607 42.24911474 148.52404785 42.25863647 C145.23220175 42.27353851 141.94078475 42.27299454 138.64892578 42.26245117 C134.43503026 42.25085189 130.22289017 42.28475161 126.00928497 42.33114052 C122.76293717 42.36063337 119.51701163 42.36235676 116.27055359 42.35612106 C114.71722429 42.35714625 113.16387098 42.36759907 111.610672 42.3877449 C109.43655891 42.41248891 107.26585724 42.39889863 105.09179688 42.37573242 C103.23911194 42.3776207 103.23911194 42.3776207 101.34899902 42.37954712 C98.0859375 41.63110352 98.0859375 41.63110352 95.14807129 39.20956421 C93.0859375 35.63110352 93.0859375 35.63110352 93.0859375 25.63110352 C85.1659375 25.63110352 77.2459375 25.63110352 69.0859375 25.63110352 C69.0859375 28.93110352 69.0859375 32.23110352 69.0859375 35.63110352 C67.28946896 38.56533547 66.1418304 40.10315707 63.0859375 41.63110352 C60.89698978 41.74871528 58.70443526 41.80094409 56.51245117 41.82397461 C55.49993538 41.83624084 55.49993538 41.83624084 54.46696472 41.84875488 C52.22928759 41.87360174 49.99167389 41.89012323 47.75390625 41.90454102 C46.98970179 41.90986469 46.22549732 41.91518837 45.43813515 41.92067337 C41.39293038 41.94740233 37.34775644 41.96677768 33.30249023 41.98120117 C29.12582082 41.99784574 24.94994101 42.04262144 20.77357006 42.09357262 C17.56076663 42.12724236 14.34815066 42.13877821 11.13518715 42.14442825 C9.59578736 42.15114195 8.05639995 42.16636736 6.51717186 42.19031906 C4.35999764 42.22197028 2.20495324 42.22200916 0.04760742 42.21459961 C-1.17879959 42.22268646 -2.4052066 42.23077332 -3.66877747 42.23910522 C-7.84300844 41.45706619 -9.31790339 39.92592531 -11.9140625 36.63110352 C-12.56103516 33.29711914 -12.56103516 33.29711914 -12.578125 29.53735352 C-12.58290863 28.86820923 -12.58769226 28.19906494 -12.59262085 27.50964355 C-12.59600906 26.10105017 -12.58688172 24.692377 -12.56591797 23.28393555 C-12.53912539 21.13614465 -12.56569016 18.99357698 -12.59765625 16.84594727 C-12.59435195 15.4722379 -12.58794526 14.09853176 -12.578125 12.72485352 C-12.57248535 11.48413086 -12.5668457 10.2434082 -12.56103516 8.96508789 C-11.18997349 1.89972258 -6.71913783 0.00530839 0 0 Z " fill="#59606A" transform="translate(174.9140625,198.368896484375)"/>
    <path d="M0 0 C0.61299957 0.26493759 1.22599915 0.52987518 1.85757446 0.80284119 C3.79585626 1.64226004 5.72995033 2.49086827 7.6640625 3.33984375 C8.98541026 3.91402588 10.30702252 4.48759974 11.62890625 5.06054688 C14.85204636 6.45912637 18.07150042 7.86597084 21.2890625 9.27734375 C21.2890625 14.43847168 19.02098528 16.34843925 15.7265625 19.96484375 C14.13671275 21.74220401 12.5574406 23.52362902 11.00830078 25.33666992 C9.2890625 27.27734375 9.2890625 27.27734375 7.17529297 29.2902832 C4.98930958 31.57109473 3.51813108 33.35952991 2.2890625 36.27734375 C2.77012672 40.9518066 4.58131014 44.85214612 6.5390625 49.08984375 C7.00570312 50.18876953 7.47234375 51.28769531 7.953125 52.41992188 C8.84587378 54.51245596 9.75665375 56.59747182 10.69238281 58.67114258 C11.21928711 59.86118896 11.74619141 61.05123535 12.2890625 62.27734375 C12.71116501 63.12801422 13.13326752 63.97868469 13.56816101 64.85513306 C17.34229943 72.93005533 17.95976671 79.73462479 17.77734375 88.57421875 C17.77026901 89.88900208 17.76319427 91.2037854 17.75590515 92.55841064 C17.73704492 96.01112665 17.68813541 99.46274808 17.63238525 102.91503906 C17.58073123 106.4549249 17.55801757 109.99499732 17.53320312 113.53515625 C17.48265473 120.45017736 17.38475156 127.36221456 17.2890625 134.27734375 C-1.1909375 134.27734375 -19.6709375 134.27734375 -38.7109375 134.27734375 C-40.83225066 71.62789504 -40.83225066 71.62789504 -28.69506836 47.91918945 C-28.34349167 47.22597092 -27.99191498 46.53275238 -27.62968445 45.81852722 C-26.67550873 43.98940838 -25.65706924 42.19420713 -24.63378906 40.40283203 C-23.2953684 37.19059026 -23.2953684 37.19059026 -25.3347168 34.09960938 C-26.11886963 33.16826172 -26.90302246 32.23691406 -27.7109375 31.27734375 C-28.23888916 30.61911621 -28.76684082 29.96088867 -29.31079102 29.28271484 C-29.81537842 28.71117676 -30.31996582 28.13963867 -30.83984375 27.55078125 C-31.67999023 26.59171875 -31.67999023 26.59171875 -32.53710938 25.61328125 C-33.11009766 24.96617187 -33.68308594 24.3190625 -34.2734375 23.65234375 C-43.7109375 12.93893593 -43.7109375 12.93893593 -43.7109375 10.27734375 C-39.41497506 8.24528412 -35.11012321 6.23396153 -30.79589844 4.2409668 C-29.33073368 3.56066549 -27.86811802 2.87484517 -26.40820312 2.18334961 C-24.30470203 1.18819872 -22.19272035 0.21349875 -20.078125 -0.7578125 C-19.43100555 -1.0692067 -18.78388611 -1.38060089 -18.11715698 -1.70143127 C-11.18551266 -4.83498294 -6.67022797 -2.90675072 0 0 Z " fill="#DA4453" transform="translate(266.7109375,377.72265625)"/>
    <path d="M0 0 C7.26849087 21.00771141 13.50510994 42.37253172 19.73339844 63.70776367 C21.10672373 68.38226891 22.5241204 73.04298537 23.9453125 77.703125 C24.39134575 79.16714249 24.39134575 79.16714249 24.84638977 80.66073608 C29.3718263 95.50884487 33.90938589 110.35325934 38.44586182 125.19799805 C39.44030969 128.45231665 40.43456795 131.70669318 41.42882824 134.96106911 C42.40081078 138.14243378 43.37291597 141.32376097 44.34505653 144.50507736 C44.80231749 146.001508 45.25954209 147.49794975 45.7167263 148.99440384 C46.14870168 150.40830031 46.58076213 151.82217079 47.0129137 153.23601341 C47.42338939 154.57927726 47.83354446 155.92263912 48.24335003 157.26610756 C49.21734361 160.45605277 50.19906391 163.64332278 51.19692993 166.8258667 C51.56418182 168.00143127 51.93143372 169.17699585 52.30981445 170.38818359 C52.63633499 171.42526459 52.96285553 172.46234558 53.29927063 173.53085327 C54 176 54 176 54 178 C39.18591674 179.90676319 39.18591674 179.90676319 34.24511719 176.94970703 C31.01443279 174.0433506 28.63567196 170.49756662 26.26220703 166.88183594 C24.18399556 163.78341156 21.8284719 160.91191868 19.5 158 C18.58278238 156.82334594 17.6661148 155.64626289 16.75 154.46875 C14.08237675 151.07359314 11.30822337 147.77917076 8.5 144.5 C3.24046077 138.35464363 -1.75078564 132.02002174 -6.71875 125.63818359 C-9.77568385 121.72964203 -12.89053623 117.86678302 -16 114 C-14.13176354 109.04976837 -9.89461743 105.89667518 -6.08007812 102.421875 C-4.24353261 100.72421448 -4.24353261 100.72421448 -2 98 C-2.46571519 94.15727163 -4.41220819 91.83712481 -6.75 88.8125 C-7.14195557 88.30130615 -7.53391113 87.7901123 -7.93774414 87.26342773 C-8.80953606 86.12736498 -9.68412127 84.99344197 -10.56103516 83.86132812 C-12.09473468 81.87745891 -13.61677872 79.88505348 -15.13671875 77.890625 C-21.73119265 69.23998962 -28.36323539 60.61820637 -35 52 C-36.87528491 49.56271912 -38.75014489 47.12511151 -40.625 44.6875 C-41.47134665 43.5872338 -42.31770008 42.48697282 -43.1640625 41.38671875 C-43.76992187 40.59910156 -44.37578125 39.81148438 -45 39 C-43.5045292 35.40278644 -41.47293692 33.36902779 -38.5625 30.8125 C-37.66015625 30.01972656 -36.7578125 29.22695313 -35.828125 28.41015625 C-32.28897401 25.39405658 -28.68945531 22.45932049 -25.07421875 19.53515625 C-20.71751991 15.94240206 -16.46494704 12.23357097 -12.21411133 8.51660156 C-2.45799827 0 -2.45799827 0 0 0 Z " fill="#656D78" transform="translate(171,334)"/>
    <path d="M0 0 C4.46046822 1.41923989 7.3282346 3.86639504 10.625 7.0625 C14.42042726 10.64243062 18.24638447 14.09901155 22.3125 17.375 C26.9508531 21.12501355 31.52745899 24.93860515 36.0625 28.8125 C36.71839111 29.36405762 37.37428223 29.91561523 38.05004883 30.48388672 C38.66388428 31.01127441 39.27771973 31.53866211 39.91015625 32.08203125 C40.45808838 32.54843018 41.00602051 33.0148291 41.57055664 33.49536133 C43.1824882 35.19208792 44.05469645 36.87056432 45 39 C44.65445068 39.44053711 44.30890137 39.88107422 43.95288086 40.33496094 C36.32886289 50.06668527 28.81758032 59.87192519 21.42456055 69.78027344 C16.76572473 76.01164232 12.00892595 82.15628759 7.171875 88.25 C6.45515625 89.1575 5.7384375 90.065 5 91 C4.38640625 91.70125 3.7728125 92.4025 3.140625 93.125 C1.78637425 94.91207432 1.78637425 94.91207432 2.24487305 96.91503906 C3.11442427 99.31593382 4.11660891 100.4627271 5.94140625 102.234375 C6.52470703 102.80800781 7.10800781 103.38164062 7.70898438 103.97265625 C8.32064453 104.55917969 8.93230469 105.14570313 9.5625 105.75 C10.17802734 106.35199219 10.79355469 106.95398438 11.42773438 107.57421875 C12.94514813 109.05634381 14.47170596 110.5290967 16 112 C14.52745531 116.67903255 11.77835457 119.85361435 8.5625 123.4375 C4.44406104 128.13059047 0.44743578 132.87506853 -3.375 137.8125 C-8.13707206 143.95026235 -13.04747099 149.95454652 -17.99926758 155.93994141 C-21.79696998 160.53219296 -25.55512068 165.15161896 -29.25390625 169.82421875 C-29.83011719 170.54222656 -30.40632813 171.26023437 -31 172 C-31.70382812 173.07121094 -32.40765625 174.14242187 -33.1328125 175.24609375 C-36.14902071 178.14313297 -36.53675109 178.40693089 -40.42578125 178.5859375 C-42.05584975 178.55193585 -43.68511045 178.47441167 -45.3125 178.375 C-46.86213149 178.30601122 -48.41186367 178.23926082 -49.96166992 178.17431641 C-51.30777995 178.11621094 -52.65388997 178.05810547 -54 178 C-49.45205565 161.77688522 -44.58982411 145.65666364 -39.6519165 129.54852295 C-38.67354289 126.35566341 -37.69722096 123.16217762 -36.72070312 119.96875 C-35.57187579 116.21200231 -34.42279372 112.45533418 -33.27259827 108.69900513 C-31.50936831 102.94019064 -29.74927745 97.18047589 -27.99975586 91.41748047 C-27.68723373 90.38819427 -27.37471161 89.35890808 -27.05271912 88.2984314 C-26.48129097 86.41505574 -25.91054927 84.53147158 -25.3407135 82.64761353 C-23.4359267 76.36940583 -21.45001896 70.11942299 -19.4375 63.875 C-16.89825278 55.95273047 -14.53054672 47.99836621 -12.27587891 39.99072266 C-10.36449917 33.2200324 -8.36122633 26.48036919 -6.3125 19.75 C-6.02697266 18.80970947 -5.74144531 17.86941895 -5.44726562 16.90063477 C-3.71641653 11.23737354 -1.90283638 5.60781629 0 0 Z " fill="#656D78" transform="translate(341,334)"/>
    <path d="M0 0 C5.99876747 0.56515062 11.24469082 1.88408015 16.9375 3.8125 C53.70701026 15.75991604 92.57304155 18.55878845 131.01171875 18.39111328 C134.94817979 18.37408198 138.88402902 18.38416784 142.8204689 18.40144157 C184.32267444 18.55525519 226.45799479 15.26523104 266.01293945 1.87939453 C269.55911063 0.68964569 272.21786371 0 276 0 C276.69821417 2.10063576 277.38324472 4.20565737 278.0625 6.3125 C278.44535156 7.48425781 278.82820313 8.65601562 279.22265625 9.86328125 C280 13 280 13 279 16 C276.37402344 17.10327148 276.37402344 17.10327148 272.859375 18.12109375 C272.23013123 18.30590302 271.60088745 18.49071228 270.95257568 18.68112183 C268.88896964 19.28135111 266.82032674 19.86090937 264.75 20.4375 C264.04206299 20.63797943 263.33412598 20.83845886 262.60473633 21.04501343 C250.83476094 24.37292502 239.11194958 27.21565937 227 29 C225.29239502 29.25257568 225.29239502 29.25257568 223.55029297 29.51025391 C219.68192219 30.06908027 215.81095229 30.60259361 211.9375 31.125 C210.77476562 31.28395752 209.61203125 31.44291504 208.4140625 31.60668945 C184.81056942 34.61575453 161.11349686 35.40619896 137.34476089 35.37735748 C135.15206557 35.37496128 132.95938906 35.37607749 130.76669312 35.37738037 C108.96721125 35.3746026 87.45866301 34.53930943 65.84130859 31.52734375 C63.20783765 31.16581475 60.58429528 30.83056446 57.94384766 30.53515625 C49.0487457 29.53104544 40.43980664 27.93083257 31.75 25.75 C30.51088867 25.44425049 29.27177734 25.13850098 27.99511719 24.82348633 C20.37342868 22.91707872 12.78787647 20.90288329 5.25 18.6875 C4.41694336 18.44547852 3.58388672 18.20345703 2.72558594 17.95410156 C0.79651798 17.36634514 -1.1058585 16.69209016 -3 16 C-4.57159226 12.85681547 -3.04018399 10.07066611 -2.0625 6.875 C-1.86720703 6.21628906 -1.67191406 5.55757813 -1.47070312 4.87890625 C-0.98695014 3.25066448 -0.49430925 1.62506818 0 0 Z " fill="#EA5565" transform="translate(118,111)"/>
    <path d="M0 0 C6.94761924 2.23931529 13.7300172 4.77220108 20.5 7.5 C22.00046875 8.08587891 22.00046875 8.08587891 23.53125 8.68359375 C24.48 9.06644531 25.42875 9.44929688 26.40625 9.84375 C27.26541016 10.18599609 28.12457031 10.52824219 29.00976562 10.88085938 C31 12 31 12 32 15 C31.55029297 17.09033203 31.55029297 17.09033203 30.7421875 19.5078125 C30.44570313 20.41402344 30.14921875 21.32023437 29.84375 22.25390625 C29.36421875 23.67509766 29.36421875 23.67509766 28.875 25.125 C26.70231771 31.67138621 24.61259988 38.23129737 22.68041992 44.85302734 C22.23611615 46.36932053 21.79171666 47.88558566 21.347229 49.40182495 C21.0104929 50.5517071 21.0104929 50.5517071 20.66695404 51.72481918 C17.67302182 61.9380224 14.64159785 72.14003321 11.58241177 82.33386993 C10.37883024 86.34605876 9.18201396 90.36003311 7.99926758 94.37841797 C6.84114303 98.31230493 5.66676535 102.24098822 4.4806385 106.16651917 C4.03420343 107.65435817 3.59367694 109.14398344 3.1592083 110.63536072 C2.55587078 112.70271968 1.93191839 114.76272621 1.30249023 116.82226562 C0.95339096 117.99454712 0.60429169 119.16682861 0.24461365 120.37463379 C-1 123 -1 123 -3.14390564 123.8861084 C-3.75641678 123.92369263 -4.36892792 123.96127686 -5 124 C-4.9792189 123.33047806 -4.95843781 122.66095612 -4.93702698 121.97114563 C-4.69077055 113.41886779 -4.57682992 104.86804068 -4.5625 96.3125 C-4.56094784 95.63065392 -4.55939568 94.94880783 -4.55779648 94.24629974 C-4.54965525 73.75834847 -6.62688544 56.18588463 -16.06665039 37.6418457 C-16.41580505 36.94862717 -16.76495972 36.25540863 -17.12469482 35.54118347 C-18.07077285 33.71285328 -19.07950952 31.91731872 -20.09301758 30.12548828 C-21 27 -21 27 -19.35595703 23.80200195 C-18.57849121 22.87734131 -17.80102539 21.95268066 -17 21 C-16.51281494 20.38777588 -16.02562988 19.77555176 -15.52368164 19.14477539 C-15.07371826 18.63422607 -14.62375488 18.12367676 -14.16015625 17.59765625 C-13.65419922 17.01693359 -13.14824219 16.43621094 -12.62695312 15.83789062 C-12.11068359 15.25201172 -11.59441406 14.66613281 -11.0625 14.0625 C-7.08199083 9.54124241 -3.43469956 4.95279881 0 0 Z " fill="#E5E6EA" transform="translate(289,388)"/>
    <path d="M0 0 C0.56203125 0.71800781 1.1240625 1.43601562 1.703125 2.17578125 C4.70342911 5.8649307 7.9354455 9.31119701 11.171875 12.79296875 C11.59380127 13.2818457 12.01572754 13.77072266 12.45043945 14.27441406 C14.06583509 16.11996218 14.06583509 16.11996218 16.25854492 18.13964844 C18.70947756 20.68272526 20.48278027 22.80345497 22 26 C21.66097989 30.75351898 19.83410878 34.60188378 17.8125 38.875 C17.34134766 39.96941406 16.87019531 41.06382812 16.38476562 42.19140625 C15.48381536 44.27431453 14.56237099 46.34858666 13.61254883 48.40966797 C13.08040771 49.59447754 12.5482666 50.77928711 12 52 C11.57970016 52.8499353 11.15940033 53.69987061 10.72636414 54.57556152 C6.98613174 62.61321812 6.26529749 69.49805314 6.29296875 78.296875 C6.27784744 79.61165833 6.26272614 80.92644165 6.24714661 82.28106689 C6.2077117 85.73338622 6.19713353 89.18517745 6.19311523 92.63769531 C6.18370417 96.17789313 6.14624223 99.71779061 6.11132812 103.2578125 C6.04717729 110.17183213 6.01358965 117.08570064 6 124 C5.01 124 4.02 124 3 124 C-2.86012084 106.91081068 -8.13027103 89.65590384 -13.34387207 72.36187744 C-14.21565044 69.47284446 -15.09051967 66.5847517 -15.96543884 63.69666862 C-21.07541422 46.82609623 -26.11157254 29.93638487 -31 13 C-29.7790564 12.54693481 -29.7790564 12.54693481 -28.53344727 12.0847168 C-18.83489621 8.4676042 -9.42767902 4.26414663 0 0 Z " fill="#E5E7EB" transform="translate(222,388)"/>
    <path d="M0 0 C1.02522011 -0.0010952 1.02522011 -0.0010952 2.07115173 -0.00221252 C4.31738255 0.0012551 6.56150723 0.04007054 8.80737305 0.0793457 C10.36963264 0.08867693 11.93190692 0.09579158 13.4941864 0.1007843 C17.59629054 0.1198302 21.69750253 0.16890883 25.79925537 0.2243042 C29.98868746 0.27554952 34.17826442 0.29830953 38.36791992 0.32348633 C46.58121892 0.37703115 54.79379422 0.46231325 63.0065918 0.56762695 C63.0065918 0.89762695 63.0065918 1.22762695 63.0065918 1.56762695 C57.0665918 1.56762695 51.1265918 1.56762695 45.0065918 1.56762695 C44.73975586 3.26661133 44.47291992 4.9655957 44.19799805 6.71606445 C43.04855735 13.60865774 41.53785336 20.3910265 39.9440918 27.19262695 C39.5409375 28.94639648 39.5409375 28.94639648 39.12963867 30.7355957 C37.13942121 39.30196813 37.13942121 39.30196813 36.0065918 41.56762695 C29.97435976 41.6913709 23.94286894 41.78203509 17.90966797 41.84228516 C15.85810474 41.86740502 13.80663079 41.90150732 11.75537109 41.94482422 C8.80373089 42.00558697 5.85327529 42.03386188 2.90112305 42.0559082 C1.98635696 42.08171463 1.07159088 42.10752106 0.12910461 42.1341095 C-4.22976483 42.13602248 -6.38504985 41.98029501 -10.0703125 39.48046875 C-12.4419741 35.88820081 -12.63798565 33.76058938 -12.6574707 29.47387695 C-12.66225433 28.80473267 -12.66703796 28.13558838 -12.67196655 27.44616699 C-12.67535477 26.03757361 -12.66622742 24.62890044 -12.64526367 23.22045898 C-12.61847109 21.07266809 -12.64503586 18.93010042 -12.67700195 16.7824707 C-12.67369765 15.40876133 -12.66729096 14.0350552 -12.6574707 12.66137695 C-12.65183105 11.4206543 -12.64619141 10.17993164 -12.64038086 8.90161133 C-11.25755064 1.77560021 -6.76306383 -0.0609285 0 0 Z " fill="#646C77" transform="translate(174.993408203125,198.432373046875)"/>
    <path d="M0 0 C0.61299957 0.26493759 1.22599915 0.52987518 1.85757446 0.80284119 C3.79585626 1.64226004 5.72995033 2.49086827 7.6640625 3.33984375 C8.98541026 3.91402588 10.30702252 4.48759974 11.62890625 5.06054688 C14.85204636 6.45912637 18.07150042 7.86597084 21.2890625 9.27734375 C21.2890625 15.04657253 17.78942854 17.7116036 14.09082031 21.76220703 C11.5435882 24.58356424 9.4028186 27.07135298 7.5546875 30.41796875 C5.71763476 33.73223916 4.53882165 35.26975364 1.2890625 37.27734375 C-6.50003198 39.33730771 -14.95782571 39.56322381 -22.7109375 37.27734375 C-27.9433343 34.12427076 -31.20867591 29.2825833 -34.44287109 24.21435547 C-36.26240846 21.43495434 -38.37224361 18.99500444 -40.5234375 16.46484375 C-43.7109375 12.54126128 -43.7109375 12.54126128 -43.7109375 10.27734375 C-39.41497506 8.24528412 -35.11012321 6.23396153 -30.79589844 4.2409668 C-29.33073368 3.56066549 -27.86811802 2.87484517 -26.40820312 2.18334961 C-24.30470203 1.18819872 -22.19272035 0.21349875 -20.078125 -0.7578125 C-19.43100555 -1.0692067 -18.78388611 -1.38060089 -18.11715698 -1.70143127 C-11.18551266 -4.83498294 -6.67022797 -2.90675072 0 0 Z " fill="#EC5666" transform="translate(266.7109375,377.72265625)"/>
    <path d="M0 0 C3.27053517 -0.11608726 6.5405418 -0.18720711 9.8125 -0.25 C10.74126953 -0.28351563 11.67003906 -0.31703125 12.62695312 -0.3515625 C13.9659668 -0.37089844 13.9659668 -0.37089844 15.33203125 -0.390625 C16.56530151 -0.4220459 16.56530151 -0.4220459 17.82348633 -0.45410156 C20 0 20 0 21.76245117 1.57128906 C24.26487169 6.48233252 23.51762284 12.34148815 23.50097656 17.75390625 C23.50000283 19.99348985 23.54166726 22.22965976 23.5859375 24.46875 C23.59114405 25.89582621 23.5938327 27.32291429 23.59375 28.75 C23.60083984 30.04421875 23.60792969 31.3384375 23.61523438 32.671875 C23 36 23 36 20.86254883 38.42871094 C17.48186683 40.28440981 15.44425912 40.46339828 11.60546875 40.390625 C10.40341797 40.37773437 9.20136719 40.36484375 7.96289062 40.3515625 C6.71701172 40.31804687 5.47113281 40.28453125 4.1875 40.25 C2.92228516 40.23195312 1.65707031 40.21390625 0.35351562 40.1953125 C-2.76509335 40.14823916 -5.88215973 40.08249094 -9 40 C-8.75765625 38.84886719 -8.5153125 37.69773438 -8.265625 36.51171875 C-8.10553955 35.75109131 -7.9454541 34.99046387 -7.78051758 34.20678711 C-7.42394416 32.51351461 -7.06700475 30.82031914 -6.7097168 29.12719727 C-5.7575781 24.61256679 -4.81168259 20.09679876 -3.87890625 15.578125 C-3.70004883 14.71614502 -3.52119141 13.85416504 -3.33691406 12.96606445 C-2.99158597 11.30099787 -2.64843041 9.63547899 -2.30761719 7.96948242 C-1.11243241 2.22486481 -1.11243241 2.22486481 0 0 Z " fill="#545C66" transform="translate(326,200)"/>
    <path d="M0 0 C1.80791016 0.01933594 1.80791016 0.01933594 3.65234375 0.0390625 C4.90660156 0.07257813 6.16085938 0.10609375 7.453125 0.140625 C8.72285156 0.15867188 9.99257812 0.17671875 11.30078125 0.1953125 C14.43565577 0.24245347 17.5690106 0.30824836 20.703125 0.390625 C19.94244764 7.94985629 18.31832972 15.2861354 16.703125 22.703125 C16.42984375 23.97736328 16.1565625 25.25160156 15.875 26.56445312 C13.84386748 35.96839756 13.84386748 35.96839756 12.703125 39.390625 C9.43258983 39.50671226 6.1625832 39.57783211 2.890625 39.640625 C1.96185547 39.67414063 1.03308594 39.70765625 0.07617188 39.7421875 C-0.81650391 39.75507813 -1.70917969 39.76796875 -2.62890625 39.78125 C-3.86217651 39.8126709 -3.86217651 39.8126709 -5.12036133 39.84472656 C-7.296875 39.390625 -7.296875 39.390625 -9.06152344 37.80566406 C-10.72709757 34.54956538 -10.70204277 32.01105605 -10.73046875 28.359375 C-10.7357106 27.68644409 -10.74095245 27.01351318 -10.74635315 26.32019043 C-10.7527591 24.90146257 -10.75145477 23.4826815 -10.74291992 22.06396484 C-10.73440065 19.89714853 -10.76319817 17.73296287 -10.79492188 15.56640625 C-10.79653392 14.18489662 -10.7959563 12.80338234 -10.79296875 11.421875 C-10.79482178 10.16955078 -10.7966748 8.91722656 -10.79858398 7.62695312 C-10.296875 4.390625 -10.296875 4.390625 -8.65942383 1.97558594 C-5.58506916 -0.08690352 -3.68451796 -0.06951921 0 0 Z " fill="#545C66" transform="translate(173.296875,199.609375)"/>
    <path d="M0 0 C23.1 0 46.2 0 70 0 C70 0.33 70 0.66 70 1 C64.06 1 58.12 1 52 1 C51.73316406 2.69898438 51.46632812 4.39796875 51.19140625 6.1484375 C50.04196555 13.04103079 48.53126156 19.82339955 46.9375 26.625 C46.5343457 28.37876953 46.5343457 28.37876953 46.12304688 30.16796875 C44.13282941 38.73434118 44.13282941 38.73434118 43 41 C41.68 41 40.36 41 39 41 C40.5340136 32.2337181 42.30719237 23.52377968 44.125 14.8125 C45.07375 10.254375 46.0225 5.69625 47 1 C31.49 1 15.98 1 0 1 C0 0.67 0 0.34 0 0 Z " fill="#6C7079" transform="translate(168,199)"/>
    <path d="M0 0 C22.77 0 45.54 0 69 0 C69 0.33 69 0.66 69 1 C63.39 1 57.78 1 52 1 C51.67386719 2.73765625 51.34773438 4.4753125 51.01171875 6.265625 C50.57049496 8.59378459 50.12907839 10.92190764 49.6875 13.25 C49.47416016 14.38953125 49.26082031 15.5290625 49.04101562 16.703125 C45.28691227 36.42617546 45.28691227 36.42617546 43 41 C41.68 41 40.36 41 39 41 C41.42140828 27.6133526 44.20128491 14.31280693 47 1 C31.49 1 15.98 1 0 1 C0 0.67 0 0.34 0 0 Z " fill="#6C7079" transform="translate(274,199)"/>
    <path d="M0 0 C7.92 0 15.84 0 24 0 C24 2.31 24 4.62 24 7 C16.08 7 8.16 7 0 7 C0 4.69 0 2.38 0 0 Z " fill="#434A54" transform="translate(244,216)"/>
    <path d="M0 0 C1.32 0 2.64 0 4 0 C3.43695073 8.3389538 1.79263703 16.348575 0 24.5 C-0.27328125 25.77359375 -0.5465625 27.0471875 -0.828125 28.359375 C-2.85925752 37.71851504 -2.85925752 37.71851504 -4 40 C-5.32 40 -6.64 40 -8 40 C-7.39507454 34.662117 -6.54899929 29.46258039 -5.37109375 24.21875 C-5.21713638 23.51979614 -5.06317902 22.82084229 -4.90455627 22.10070801 C-4.41893635 19.89970371 -3.92831403 17.69985119 -3.4375 15.5 C-3.10448412 13.99486544 -2.77179888 12.48965768 -2.43945312 10.984375 C-1.63011625 7.32206064 -0.81629559 3.66076933 0 0 Z " fill="#545C66" transform="translate(317,200)"/>
    <path d="M0 0 C1.32 0 2.64 0 4 0 C3.31071024 7.94406447 1.70614883 15.59270793 0 23.375 C-0.27328125 24.64472656 -0.5465625 25.91445312 -0.828125 27.22265625 C-2.85058891 36.55176672 -2.85058891 36.55176672 -4 40 C-5.32 40 -6.64 40 -8 40 C-6.5684577 26.4250299 -3.17699651 13.24894217 0 0 Z " fill="#545C66" transform="translate(211,200)"/>
</svg>