<svg version="1.1" xmlns="http://www.w3.org/2000/svg" width="512" height="512">
    <path d="M0 0 C1.19496094 0.42410156 2.38992188 0.84820313 3.62109375 1.28515625 C27.14690351 10.53572109 44.86226411 29.09448298 55 52 C58.33281709 60.88431068 59.68579938 69.54256144 60 79 C61.21816406 78.96519531 62.43632812 78.93039063 63.69140625 78.89453125 C65.31509028 78.86637488 66.93878935 78.83907671 68.5625 78.8125 C69.36236328 78.78736328 70.16222656 78.76222656 70.98632812 78.73632812 C76.44794805 78.66945115 80.12924103 79.5090481 85 82 C84.51035941 86.52917548 84.51035941 86.52917548 82.3359375 88.53515625 C74.95309903 93.16486265 65.58274431 94.61251719 57 95 C57.33 95.99 57.66 96.98 58 98 C58.36879804 104.92139584 58.38150202 111.80359404 57.0625 118.625 C55.96571875 124.41886614 55.52897953 130.18428026 55.1875 136.0625 C55.08997437 137.45686279 55.08997437 137.45686279 54.99047852 138.87939453 C54.94592529 139.7557959 54.90137207 140.63219727 54.85546875 141.53515625 C54.78815552 142.71670288 54.78815552 142.71670288 54.71948242 143.92211914 C55.07441134 146.55118791 56.1173763 147.22295566 58 149 C57.6875 151.6875 57.6875 151.6875 57 154 C55.68 154.33 54.36 154.66 53 155 C52.9575415 155.65556885 52.91508301 156.3111377 52.87133789 156.98657227 C51.24236787 178.3326708 43.95536279 213.04463721 28 229 C27.27802777 238.20397393 28.58586949 247.53290213 29.5 256.6875 C29.6450127 258.17898973 29.78954727 259.67052602 29.93359375 261.16210938 C30.28356165 264.77529219 30.63996149 268.38780509 31 272 C31.53625 271.649375 32.0725 271.29875 32.625 270.9375 C37.53805517 268.99813612 42.07676376 271.2808949 46.71115112 273.24781799 C47.40201813 273.54888962 48.09288513 273.84996124 48.8046875 274.16015625 C49.5286673 274.46948593 50.25264709 274.77881561 50.99856567 275.09751892 C53.29341031 276.07968862 55.58420409 277.07092913 57.875 278.0625 C59.43724067 278.73302639 60.99973822 279.40295465 62.5625 280.07226562 C66.3780073 281.70793706 70.18991017 283.35175095 74 285 C73.67 287.31 73.34 289.62 73 292 C73.83756836 292.1134375 74.67513672 292.226875 75.53808594 292.34375 C79.30643567 293.05808879 82.79542636 294.20203643 86.390625 295.5 C87.94870607 296.05133848 89.50681312 296.60260356 91.06494141 297.15380859 C91.9042218 297.45277039 92.7435022 297.75173218 93.60821533 298.05975342 C109.44623525 303.69671705 125.34306195 309.1542347 141.2734375 314.5234375 C142.10889099 314.8050901 142.94434448 315.08674271 143.80511475 315.37693024 C152.29438291 318.23824329 160.78555335 321.09385884 169.27876091 323.94345665 C172.49818957 325.02422219 175.7168599 326.10723353 178.93538284 327.1906929 C180.45632047 327.70199894 181.97763712 328.21217898 183.49934006 328.72120285 C185.59241663 329.42136131 187.68426983 330.12506192 189.77587891 330.82958984 C190.95856354 331.22624847 192.14124817 331.6229071 193.35977173 332.03158569 C196 333 196 333 197 334 C197.37894135 336.15965685 197.69759057 338.32990097 197.99342346 340.50250244 C198.08819959 341.18994939 198.18297572 341.87739633 198.28062385 342.585675 C198.59942282 344.90586491 198.91210953 347.2268383 199.22485352 349.54785156 C199.4512439 351.2049385 199.67799799 352.86197579 199.90509033 354.51896667 C200.52259674 359.03303061 201.1347327 363.5478082 201.74576306 368.06275272 C202.38507712 372.78135029 203.02865535 377.49936642 203.6716156 382.21746826 C204.75142992 390.1463656 205.82778186 398.07572725 206.90209961 406.00537109 C208.1444009 415.17460596 209.39208278 424.34309631 210.64268738 433.5112021 C211.84447217 442.32231261 213.04247965 451.13393271 214.23875237 459.94579315 C214.74829201 463.69863191 215.25914858 467.45128794 215.77105904 471.20380402 C216.37411572 475.62576248 216.97386262 480.04815759 217.57106018 484.47091103 C217.79081927 486.09442716 218.01171317 487.71779015 218.23382378 489.34098625 C218.53682884 491.55677295 218.83571373 493.77307785 219.13356018 495.98956299 C219.30187127 497.22991932 219.47018236 498.47027565 219.64359379 499.74821854 C220 503 220 503 220 508 C55.66 508 -108.68 508 -278 508 C-276.875 494.5 -276.875 494.5 -276.04454041 488.40679932 C-275.95384783 487.73501074 -275.86315525 487.06322216 -275.76971442 486.37107635 C-275.47171005 484.16917697 -275.16935604 481.96789944 -274.86694336 479.76660156 C-274.64978389 478.16882885 -274.43289819 476.57101891 -274.21626282 474.97317505 C-273.63233054 470.67198971 -273.04461014 466.37132985 -272.45616603 462.07075977 C-271.84000964 457.56275611 -271.22739695 453.05427091 -270.61439514 448.5458374 C-269.45526893 440.02481552 -268.29299384 431.50422632 -267.12956387 422.98379111 C-265.80425291 413.2766561 -264.482488 403.56903927 -263.16100872 393.86138201 C-260.4445951 373.9070525 -257.72376795 353.95332688 -255 334 C-249.56605642 331.79406624 -244.14200181 329.63177675 -238.58032227 327.7644043 C-236.83546539 327.17604797 -236.83546539 327.17604797 -235.05535889 326.57580566 C-233.82150452 326.16278198 -232.58765015 325.7497583 -231.31640625 325.32421875 C-229.98933864 324.87746026 -228.66237587 324.43039027 -227.33551025 323.98303223 C-224.52912894 323.03727368 -221.72225933 322.09298683 -218.91494751 321.1499939 C-211.59209115 318.6899989 -204.27208142 316.22157139 -196.953125 313.75 C-196.22564875 313.50440023 -195.49817249 313.25880047 -194.7486515 313.00575829 C-179.62816186 307.89829436 -164.55664902 302.65421312 -149.51977539 297.30541992 C-147.91553047 296.73876068 -146.31128262 296.17210973 -144.70703125 295.60546875 C-144.00378723 295.35236938 -143.30054321 295.09927002 -142.57598877 294.83850098 C-138.73543884 293.48563247 -135.03659303 292.54042995 -131 292 C-131.33 289.69 -131.66 287.38 -132 285 C-126.97166292 282.82857747 -121.93634294 280.67460079 -116.89379883 278.53637695 C-115.17985956 277.80674103 -113.46791581 277.07239876 -111.75805664 276.33325195 C-109.29824615 275.27088245 -106.8317279 274.22571099 -104.36328125 273.18359375 C-103.22080681 272.68369179 -103.22080681 272.68369179 -102.05525208 272.1736908 C-98.00952129 270.4866617 -95.32335529 269.43403261 -91 271 C-90.34 271.33 -89.68 271.66 -89 272 C-88.56590098 267.6447707 -88.13898498 263.28890996 -87.71826172 258.93237305 C-87.57465064 257.45529938 -87.42919335 255.97840386 -87.28173828 254.50170898 C-84.71890109 237.76384504 -84.71890109 237.76384504 -89.5625 222.3125 C-90.30609658 221.12390605 -91.04285912 219.93101475 -91.7734375 218.734375 C-92.14694336 218.12529297 -92.52044922 217.51621094 -92.90527344 216.88867188 C-103.40708648 198.7704681 -110.19506665 175.88802035 -111 155 C-112.32 154.67 -113.64 154.34 -115 154 C-115.6875 151.6875 -115.6875 151.6875 -116 149 C-115.51442627 148.54165771 -115.02885254 148.08331543 -114.52856445 147.61108398 C-112.80899577 146.11330222 -112.80899577 146.11330222 -112.71948242 143.92211914 C-112.76435791 143.13442139 -112.8092334 142.34672363 -112.85546875 141.53515625 C-112.92229858 140.2205542 -112.92229858 140.2205542 -112.99047852 138.87939453 C-113.05549561 137.94981934 -113.1205127 137.02024414 -113.1875 136.0625 C-113.24284912 135.10972168 -113.29819824 134.15694336 -113.35522461 133.17529297 C-113.73026033 127.32712642 -114.47323077 121.67248936 -115.5859375 115.91796875 C-116.51915775 109.3414072 -117.11108981 101.33326944 -115 95 C-115.54785156 94.98582031 -116.09570312 94.97164063 -116.66015625 94.95703125 C-122.38113297 94.61284241 -127.52121076 93.40594045 -132.9375 91.625 C-133.5879126 91.41593018 -134.2383252 91.20686035 -134.90844727 90.99145508 C-140.99001982 88.90918184 -140.99001982 88.90918184 -143 86 C-142.6875 83.3125 -142.6875 83.3125 -142 81 C-136.75044832 78.84241727 -132.19189716 78.75957789 -126.625 78.875 C-125.79355469 78.88402344 -124.96210938 78.89304687 -124.10546875 78.90234375 C-122.07018663 78.9257378 -120.03505436 78.96160275 -118 79 C-117.91363281 77.85144531 -117.82726562 76.70289062 -117.73828125 75.51953125 C-115.7151264 51.94493589 -104.76488802 31.70506929 -86.78125 16.19140625 C-76.96398456 8.45617323 -66.81716314 2.99021093 -55 -1 C-54.03578125 -1.3403125 -53.0715625 -1.680625 -52.078125 -2.03125 C-35.75944421 -6.79454061 -15.91930266 -5.65902121 0 0 Z " fill="#00233F" transform="translate(285,4)"/>
    <path d="M0 0 C1.19496094 0.42410156 2.38992188 0.84820313 3.62109375 1.28515625 C27.14690351 10.53572109 44.86226411 29.09448298 55 52 C58.33281709 60.88431068 59.68579938 69.54256144 60 79 C61.21816406 78.96519531 62.43632812 78.93039063 63.69140625 78.89453125 C65.31509028 78.86637488 66.93878935 78.83907671 68.5625 78.8125 C69.36236328 78.78736328 70.16222656 78.76222656 70.98632812 78.73632812 C76.44794805 78.66945115 80.12924103 79.5090481 85 82 C84.51035941 86.52917548 84.51035941 86.52917548 82.3359375 88.53515625 C74.95309903 93.16486265 65.58274431 94.61251719 57 95 C57.33 95.99 57.66 96.98 58 98 C58.36879804 104.92139584 58.38150202 111.80359404 57.0625 118.625 C55.96571875 124.41886614 55.52897953 130.18428026 55.1875 136.0625 C55.12248291 136.9920752 55.05746582 137.92165039 54.99047852 138.87939453 C54.94592529 139.7557959 54.90137207 140.63219727 54.85546875 141.53515625 C54.81059326 142.322854 54.76571777 143.11055176 54.71948242 143.92211914 C55.07441134 146.55118791 56.1173763 147.22295566 58 149 C57.6875 151.6875 57.6875 151.6875 57 154 C55.68 154.33 54.36 154.66 53 155 C52.9575415 155.65556885 52.91508301 156.3111377 52.87133789 156.98657227 C51.24236787 178.3326708 43.95536279 213.04463721 28 229 C27.27802777 238.20397393 28.58586949 247.53290213 29.5 256.6875 C29.6450127 258.17898973 29.78954727 259.67052602 29.93359375 261.16210938 C30.28356165 264.77529219 30.63996149 268.38780509 31 272 C31.53625 271.649375 32.0725 271.29875 32.625 270.9375 C37.53805517 268.99813612 42.07676376 271.2808949 46.71115112 273.24781799 C47.40201813 273.54888962 48.09288513 273.84996124 48.8046875 274.16015625 C49.8906572 274.62415077 49.8906572 274.62415077 50.99856567 275.09751892 C53.29341031 276.07968862 55.58420409 277.07092913 57.875 278.0625 C59.43724067 278.73302639 60.99973822 279.40295465 62.5625 280.07226562 C66.3780073 281.70793706 70.18991017 283.35175095 74 285 C73.38724332 289.57397689 72.18366359 293.53030645 70.515625 297.828125 C70.26403625 298.4821077 70.01244751 299.13609039 69.75323486 299.80989075 C68.92490959 301.95900749 68.08824656 304.10473497 67.25 306.25 C66.05550261 309.31571272 64.86301112 312.38219855 63.671875 315.44921875 C63.36612549 316.23489731 63.06037598 317.02057587 62.74536133 317.83006287 C60.64308817 323.25935494 58.64971099 328.7202555 56.703125 334.20703125 C51.36822734 349.12068618 46.22922445 362.33746554 35.47851562 374.29980469 C33.12387666 377.00748398 31.10439264 379.92867867 29.0625 382.875 C24.03727011 389.99998831 18.8608196 397.01036233 13.67578125 404.01953125 C11.15863461 407.42317767 8.65791276 410.83812492 6.16796875 414.26171875 C5.5430957 415.11805908 4.91822266 415.97439941 4.27441406 416.85668945 C3.08153907 418.49205701 1.89189329 420.12978672 0.70605469 421.77026367 C-2.28260419 425.85774631 -5.2989403 429.54016393 -9 433 C-11.33651192 415.69712842 -13.4651037 398.37540585 -15.41079712 381.02426147 C-15.63620934 379.01453355 -15.86290603 377.00494925 -16.09091187 374.99551392 C-16.41378393 372.14329526 -16.73119012 369.29052208 -17.046875 366.4375 C-17.14355972 365.5875798 -17.24024445 364.73765961 -17.33985901 363.86198425 C-17.84507491 359.22590081 -18.25320373 354.66999337 -18 350 C-16.3203125 348.00390625 -16.3203125 348.00390625 -14.125 346.5625 C-13.04605469 345.82193359 -13.04605469 345.82193359 -11.9453125 345.06640625 C-10 344 -10 344 -8 344 C-13.91201616 329.51207819 -13.91201616 329.51207819 -24.33154297 318.76513672 C-29.31645683 317.54878097 -34.00905695 318.03323137 -39 319 C-39.22429687 319.79664063 -39.44859375 320.59328125 -39.6796875 321.4140625 C-41.37583647 326.02076296 -43.70070092 330.11719741 -46.125 334.375 C-46.59292969 335.20644531 -47.06085938 336.03789062 -47.54296875 336.89453125 C-48.69070549 338.93234954 -49.84313282 340.96735569 -51 343 C-47.69340894 346.48144594 -47.69340894 346.48144594 -43.82177734 349.26342773 C-42 351 -42 351 -41.74462891 353.89086914 C-41.86241699 355.07285889 -41.98020508 356.25484863 -42.1015625 357.47265625 C-42.16235992 358.12847183 -42.22315735 358.78428741 -42.28579712 359.4599762 C-42.497842 361.64357409 -42.74522892 363.82099337 -43 366 C-43.08439331 366.7502948 -43.16878662 367.5005896 -43.2557373 368.27362061 C-43.90590027 374.00233243 -44.63515829 379.71979631 -45.375 385.4375 C-45.60029242 387.20437117 -45.82514227 388.97129883 -46.04956055 390.73828125 C-46.49209157 394.21885286 -46.93672659 397.69914412 -47.38330078 401.17919922 C-48.20854944 407.61753828 -49.01127714 414.05862948 -49.8125 420.5 C-50.04804479 422.3854332 -50.28370499 424.27085199 -50.51953125 426.15625 C-50.67808594 427.4246875 -50.83664063 428.693125 -51 430 C-55.42608698 425.86239169 -58.89398827 421.27679131 -62.4375 416.375 C-63.6860831 414.66397871 -64.93478431 412.9530436 -66.18359375 411.2421875 C-66.81765137 410.37045898 -67.45170898 409.49873047 -68.10498047 408.60058594 C-71.05320069 404.55466455 -74.02724857 400.52791023 -77 396.5 C-78.15765154 394.92845867 -79.31520316 393.35684374 -80.47265625 391.78515625 C-83.51262048 387.65906557 -86.55928345 383.53795951 -89.60717773 379.41772461 C-91.39012341 377.00169885 -93.16448301 374.57956721 -94.9375 372.15625 C-96.6546667 369.81125722 -98.39019228 367.50389838 -100.1875 365.21875 C-103.76518858 360.55497738 -106.04094592 355.72709372 -108.109375 350.25 C-108.40663986 349.47438217 -108.70390472 348.69876434 -109.01017761 347.89964294 C-113.60040321 335.87849016 -118.06725216 323.80941181 -122.54321289 311.74536133 C-123.72980896 308.54900513 -124.92116161 305.35445571 -126.11328125 302.16015625 C-126.47472733 301.18216568 -126.8361734 300.20417511 -127.20857239 299.19654846 C-127.71501534 297.84254189 -127.71501534 297.84254189 -128.23168945 296.46118164 C-128.52590286 295.66942032 -128.82011627 294.877659 -129.12324524 294.06190491 C-130.02800669 291.75770399 -130.02800669 291.75770399 -132 289 C-132 287.68 -132 286.36 -132 285 C-126.97166292 282.82857747 -121.93634294 280.67460079 -116.89379883 278.53637695 C-115.17985956 277.80674103 -113.46791581 277.07239876 -111.75805664 276.33325195 C-109.29824615 275.27088245 -106.8317279 274.22571099 -104.36328125 273.18359375 C-103.22080681 272.68369179 -103.22080681 272.68369179 -102.05525208 272.1736908 C-98.00952129 270.4866617 -95.32335529 269.43403261 -91 271 C-90.34 271.33 -89.68 271.66 -89 272 C-88.56590098 267.6447707 -88.13898498 263.28890996 -87.71826172 258.93237305 C-87.57465064 257.45529938 -87.42919335 255.97840386 -87.28173828 254.50170898 C-84.71890109 237.76384504 -84.71890109 237.76384504 -89.5625 222.3125 C-90.30609658 221.12390605 -91.04285912 219.93101475 -91.7734375 218.734375 C-92.14694336 218.12529297 -92.52044922 217.51621094 -92.90527344 216.88867188 C-103.40708648 198.7704681 -110.19506665 175.88802035 -111 155 C-112.32 154.67 -113.64 154.34 -115 154 C-115.6875 151.6875 -115.6875 151.6875 -116 149 C-115.2716394 148.31248657 -115.2716394 148.31248657 -114.52856445 147.61108398 C-112.80899577 146.11330222 -112.80899577 146.11330222 -112.71948242 143.92211914 C-112.76435791 143.13442139 -112.8092334 142.34672363 -112.85546875 141.53515625 C-112.90002197 140.65875488 -112.9445752 139.78235352 -112.99047852 138.87939453 C-113.05549561 137.94981934 -113.1205127 137.02024414 -113.1875 136.0625 C-113.24284912 135.10972168 -113.29819824 134.15694336 -113.35522461 133.17529297 C-113.73026033 127.32712642 -114.47323077 121.67248936 -115.5859375 115.91796875 C-116.51915775 109.3414072 -117.11108981 101.33326944 -115 95 C-115.54785156 94.98582031 -116.09570312 94.97164063 -116.66015625 94.95703125 C-122.38113297 94.61284241 -127.52121076 93.40594045 -132.9375 91.625 C-133.5879126 91.41593018 -134.2383252 91.20686035 -134.90844727 90.99145508 C-140.99001982 88.90918184 -140.99001982 88.90918184 -143 86 C-142.6875 83.3125 -142.6875 83.3125 -142 81 C-136.75044832 78.84241727 -132.19189716 78.75957789 -126.625 78.875 C-125.79355469 78.88402344 -124.96210938 78.89304687 -124.10546875 78.90234375 C-122.07018663 78.9257378 -120.03505436 78.96160275 -118 79 C-117.91363281 77.85144531 -117.82726562 76.70289062 -117.73828125 75.51953125 C-115.7151264 51.94493589 -104.76488802 31.70506929 -86.78125 16.19140625 C-76.96398456 8.45617323 -66.81716314 2.99021093 -55 -1 C-54.03578125 -1.3403125 -53.0715625 -1.680625 -52.078125 -2.03125 C-35.75944421 -6.79454061 -15.91930266 -5.65902121 0 0 Z " fill="#F8BC9F" transform="translate(285,4)"/>
    <path d="M0 0 C0 17.16 0 34.32 0 52 C-5.61 52.66 -11.22 53.32 -17 54 C-26.0462602 57.67814975 -32.11288222 62.71958957 -38.38671875 70.1328125 C-39.86841632 71.84770702 -41.30410736 73.49565446 -43 75 C-43.66 75 -44.32 75 -45 75 C-44.67 75.66 -44.34 76.32 -44 77 C-34.0921009 77.89349791 -26.36487075 75.19263549 -17.5625 70.77734375 C-10.84635742 67.43126557 -8.59755657 68 0 68 C0 84.5 0 101 0 118 C-14.7218067 118 -24.39242406 113.56749653 -36 105 C-34.53043919 108.06316117 -32.85750404 110.92060576 -31.05078125 113.796875 C-30.4568457 114.74457764 -29.86291016 115.69228027 -29.25097656 116.66870117 C-28.6112793 117.68552979 -27.97158203 118.7023584 -27.3125 119.75 C-25.95959924 121.9075294 -24.60673579 124.06508219 -23.25390625 126.22265625 C-22.55539551 127.33527832 -21.85688477 128.44790039 -21.13720703 129.59423828 C-17.66792528 135.12102081 -14.20923676 140.6544263 -10.75 146.1875 C-9.80314331 147.70005371 -9.80314331 147.70005371 -8.8371582 149.24316406 C-8.24636475 150.18772461 -7.65557129 151.13228516 -7.046875 152.10546875 C-6.52963867 152.93199951 -6.01240234 153.75853027 -5.47949219 154.61010742 C-4.74714355 155.79310425 -4.74714355 155.79310425 -4 157 C-3.4421582 157.88469971 -2.88431641 158.76939941 -2.30957031 159.6809082 C-1 162 -1 162 -1 164 C10.52217495 157.21591568 21.80569773 150.08175416 33.06689453 142.87451172 C36.07141979 140.95435649 39.07994143 139.0406205 42.08984375 137.12890625 C43.07976318 136.50008545 44.06968262 135.87126465 45.08959961 135.22338867 C46.98215258 134.02143258 48.8748838 132.81975709 50.76782227 131.6184082 C51.62819092 131.07144287 52.48855957 130.52447754 53.375 129.9609375 C54.58542969 129.19861816 54.58542969 129.19861816 55.8203125 128.42089844 C57.15629801 127.5499939 58.47082201 126.64345261 59.7421875 125.68066406 C62.23114383 123.79621461 63.51518802 122.9627373 66.68408203 123.20629883 C70.58044545 124.13893596 74.14512285 125.56536149 77.8046875 127.16015625 C78.5286673 127.46948593 79.25264709 127.77881561 79.99856567 128.09751892 C82.29341031 129.07968862 84.58420409 130.07092913 86.875 131.0625 C88.43724067 131.73302639 89.99973822 132.40295465 91.5625 133.07226562 C95.3780073 134.70793706 99.18991017 136.35175095 103 138 C102.38724332 142.57397689 101.18366359 146.53030645 99.515625 150.828125 C99.26403625 151.4821077 99.01244751 152.13609039 98.75323486 152.80989075 C97.92490959 154.95900749 97.08824656 157.10473497 96.25 159.25 C95.05550261 162.31571272 93.86301112 165.38219855 92.671875 168.44921875 C92.36612549 169.23489731 92.06037598 170.02057587 91.74536133 170.83006287 C89.64308817 176.25935494 87.64971099 181.7202555 85.703125 187.20703125 C80.36822734 202.12068618 75.22922445 215.33746554 64.47851562 227.29980469 C62.12387666 230.00748398 60.10439264 232.92867867 58.0625 235.875 C53.03727011 242.99998831 47.8608196 250.01036233 42.67578125 257.01953125 C40.15863461 260.42317767 37.65791276 263.83812492 35.16796875 267.26171875 C34.5430957 268.11805908 33.91822266 268.97439941 33.27441406 269.85668945 C32.08153907 271.49205701 30.89189329 273.12978672 29.70605469 274.77026367 C26.71739581 278.85774631 23.7010597 282.54016393 20 286 C17.66348808 268.69712842 15.5348963 251.37540585 13.58920288 234.02426147 C13.36379066 232.01453355 13.13709397 230.00494925 12.90908813 227.99551392 C12.58621607 225.14329526 12.26880988 222.29052208 11.953125 219.4375 C11.85644028 218.5875798 11.75975555 217.73765961 11.66014099 216.86198425 C11.15492509 212.22590081 10.74679627 207.66999337 11 203 C12.6796875 201.00390625 12.6796875 201.00390625 14.875 199.5625 C15.95394531 198.82193359 15.95394531 198.82193359 17.0546875 198.06640625 C19 197 19 197 21 197 C15.08798384 182.51207819 15.08798384 182.51207819 4.66845703 171.76513672 C-0.31645683 170.54878097 -5.00905695 171.03323137 -10 172 C-10.22429687 172.79664063 -10.44859375 173.59328125 -10.6796875 174.4140625 C-12.37583647 179.02076296 -14.70070092 183.11719741 -17.125 187.375 C-17.82689453 188.62216797 -17.82689453 188.62216797 -18.54296875 189.89453125 C-19.69070549 191.93234954 -20.84313282 193.96735569 -22 196 C-18.69340894 199.48144594 -18.69340894 199.48144594 -14.82177734 202.26342773 C-13 204 -13 204 -12.74462891 206.89086914 C-12.86241699 208.07285889 -12.98020508 209.25484863 -13.1015625 210.47265625 C-13.19275864 211.45637962 -13.19275864 211.45637962 -13.28579712 212.4599762 C-13.497842 214.64357409 -13.74522892 216.82099337 -14 219 C-14.08439331 219.7502948 -14.16878662 220.5005896 -14.2557373 221.27362061 C-14.90590027 227.00233243 -15.63515829 232.71979631 -16.375 238.4375 C-16.60029242 240.20437117 -16.82514227 241.97129883 -17.04956055 243.73828125 C-17.49209157 247.21885286 -17.93672659 250.69914412 -18.38330078 254.17919922 C-19.20854944 260.61753828 -20.01127714 267.05862948 -20.8125 273.5 C-21.04804479 275.3854332 -21.28370499 277.27085199 -21.51953125 279.15625 C-21.67808594 280.4246875 -21.83664063 281.693125 -22 283 C-26.42608698 278.86239169 -29.89398827 274.27679131 -33.4375 269.375 C-34.6860831 267.66397871 -35.93478431 265.9530436 -37.18359375 264.2421875 C-37.81765137 263.37045898 -38.45170898 262.49873047 -39.10498047 261.60058594 C-42.05320069 257.55466455 -45.02724857 253.52791023 -48 249.5 C-49.15765154 247.92845867 -50.31520316 246.35684374 -51.47265625 244.78515625 C-54.51262048 240.65906557 -57.55928345 236.53795951 -60.60717773 232.41772461 C-62.39012341 230.00169885 -64.16448301 227.57956721 -65.9375 225.15625 C-67.6546667 222.81125722 -69.39019228 220.50389838 -71.1875 218.21875 C-74.76518858 213.55497738 -77.04094592 208.72709372 -79.109375 203.25 C-79.40663986 202.47438217 -79.70390472 201.69876434 -80.01017761 200.89964294 C-84.60040321 188.87849016 -89.06725216 176.80941181 -93.54321289 164.74536133 C-94.72980896 161.54900513 -95.92116161 158.35445571 -97.11328125 155.16015625 C-97.65545036 153.69317039 -97.65545036 153.69317039 -98.20857239 152.19654846 C-98.54620102 151.29387741 -98.88382965 150.39120636 -99.23168945 149.46118164 C-99.52590286 148.66942032 -99.82011627 147.877659 -100.12324524 147.06190491 C-101.02800669 144.75770399 -101.02800669 144.75770399 -103 142 C-103 140.68 -103 139.36 -103 138 C-97.97166292 135.82857747 -92.93634294 133.67460079 -87.89379883 131.53637695 C-86.17985956 130.80674103 -84.46791581 130.07239876 -82.75805664 129.33325195 C-80.29824615 128.27088245 -77.8317279 127.22571099 -75.36328125 126.18359375 C-74.22080681 125.68369179 -74.22080681 125.68369179 -73.05525208 125.1736908 C-69.00952129 123.4866617 -66.32335529 122.43403261 -62 124 C-61.01 124.495 -61.01 124.495 -60 125 C-59.56590098 120.6447707 -59.13898498 116.28890996 -58.71826172 111.93237305 C-58.57465064 110.45529938 -58.42919335 108.97840386 -58.28173828 107.50170898 C-55.71890109 90.76384504 -55.71890109 90.76384504 -60.5625 75.3125 C-61.30609658 74.12390605 -62.04285912 72.93101475 -62.7734375 71.734375 C-63.14694336 71.12529297 -63.52044922 70.51621094 -63.90527344 69.88867188 C-74.48751399 51.63171092 -80.93728585 28.98860449 -82 8 C-76.39 8 -70.78 8 -65 8 C-64.443125 9.546875 -63.88625 11.09375 -63.3125 12.6875 C-60.2297971 20.31369882 -55.06244431 24.15850309 -48 28 C-41.3660421 30.2113193 -34.1292579 29.9405838 -27.75 27.0625 C-23.14245536 24.48049431 -19.98209344 21.07587808 -16.69140625 16.98828125 C-15 15 -15 15 -12 13 C-11.17159758 10.94845264 -11.17159758 10.94845264 -10.625 8.625 C-8.8141859 2.737484 -6.40976181 0 0 0 Z " fill="#FEFEFE" transform="translate(256,151)"/>
    <path d="M0 0 C1.19496094 0.42410156 2.38992188 0.84820313 3.62109375 1.28515625 C27.14690351 10.53572109 44.86226411 29.09448298 55 52 C58.33281709 60.88431068 59.68579938 69.54256144 60 79 C61.21816406 78.96519531 62.43632812 78.93039063 63.69140625 78.89453125 C65.31509028 78.86637488 66.93878935 78.83907671 68.5625 78.8125 C69.36236328 78.78736328 70.16222656 78.76222656 70.98632812 78.73632812 C76.44794805 78.66945115 80.12924103 79.5090481 85 82 C84.51035941 86.52917548 84.51035941 86.52917548 82.3359375 88.53515625 C74.95309903 93.16486265 65.58274431 94.61251719 57 95 C57.33 95.99 57.66 96.98 58 98 C58.4917314 107.2285404 57.88927514 115.94160043 56 125 C55.67 125 55.34 125 55 125 C55 121.7 55 118.4 55 115 C53.68 114.34 52.36 113.68 51 113 C49.45275854 111.61347552 47.95531262 110.17022433 46.5 108.6875 C45.7471875 107.92824219 44.994375 107.16898437 44.21875 106.38671875 C42 104 42 104 40.12109375 101.23046875 C38.14925245 98.71176228 38.14925245 98.71176228 34.94140625 98.4765625 C33.82636719 98.52554688 32.71132813 98.57453125 31.5625 98.625 C30.45003906 98.65851563 29.33757812 98.69203125 28.19140625 98.7265625 C25.11576902 98.92644383 25.11576902 98.92644383 22.60040283 99.49772644 C20.09742745 99.98118167 17.74632173 100.19828874 15.20214844 100.30981445 C13.80950775 100.37134956 13.80950775 100.37134956 12.38873291 100.43412781 C11.3890448 100.47262344 10.38935669 100.51111908 9.359375 100.55078125 C8.30312927 100.59262039 7.24688354 100.63445953 6.15863037 100.67756653 C-4.98105397 101.08550626 -16.11680474 101.18609806 -27.26315308 101.18530273 C-30.84359537 101.18755898 -34.42375854 101.20616594 -38.00415039 101.22460938 C-48.73286006 101.24914323 -59.33904301 101.15697271 -70.01171875 99.98828125 C-85.90500068 97.52675234 -85.90500068 97.52675234 -100.703125 102.0078125 C-107.14838369 107.33252985 -111.57751876 113.54561145 -112.5 122 C-112.40584017 124.80189493 -112.40584017 124.80189493 -112 127 C-117.05654076 121.94345924 -116.17915174 111.79225622 -116.1875 104.9375 C-116.15408805 98.46226415 -116.15408805 98.46226415 -115 95 C-115.54785156 94.98582031 -116.09570312 94.97164063 -116.66015625 94.95703125 C-122.38113297 94.61284241 -127.52121076 93.40594045 -132.9375 91.625 C-133.5879126 91.41593018 -134.2383252 91.20686035 -134.90844727 90.99145508 C-140.99001982 88.90918184 -140.99001982 88.90918184 -143 86 C-142.6875 83.3125 -142.6875 83.3125 -142 81 C-136.75044832 78.84241727 -132.19189716 78.75957789 -126.625 78.875 C-125.79355469 78.88402344 -124.96210938 78.89304687 -124.10546875 78.90234375 C-122.07018663 78.9257378 -120.03505436 78.96160275 -118 79 C-117.91363281 77.85144531 -117.82726562 76.70289062 -117.73828125 75.51953125 C-115.7151264 51.94493589 -104.76488802 31.70506929 -86.78125 16.19140625 C-76.96398456 8.45617323 -66.81716314 2.99021093 -55 -1 C-54.03578125 -1.3403125 -53.0715625 -1.680625 -52.078125 -2.03125 C-35.75944421 -6.79454061 -15.91930266 -5.65902121 0 0 Z " fill="#01243F" transform="translate(285,4)"/>
    <path d="M0 0 C0.73075648 2.3140622 1.40138258 4.64828869 2 7 C1.36312256 7.35602295 0.72624512 7.7120459 0.07006836 8.07885742 C-14.35372431 16.14395405 -28.75884018 24.24079533 -43.13964844 32.38232422 C-47.0328115 34.58410797 -50.9290471 36.78038757 -54.828125 38.97167969 C-56.76393778 40.06704434 -58.69376305 41.17306403 -60.6171875 42.29003906 C-65.16496742 44.9204021 -69.66138027 47.34601211 -74.4921875 49.41796875 C-83.12508147 53.22039161 -83.12508147 53.22039161 -89.17675781 60.15869141 C-91.2356864 65.9449103 -91.83982113 71.97177115 -92.51464844 78.046875 C-93.0624666 82.50878227 -93.79294157 86.917127 -94.5703125 91.34375 C-94.71520615 92.1695607 -94.86009979 92.9953714 -95.00938416 93.84620667 C-95.31095219 95.56161923 -95.61295654 97.27695513 -95.91537476 98.99221802 C-96.5363415 102.54918115 -97.13328972 106.11001197 -97.73045349 109.67103577 C-99.5250251 120.36407687 -101.44668754 131.02944765 -103.4375 141.6875 C-106.55126705 158.36183048 -109.47277126 175.06673511 -112.33569336 191.78588867 C-112.49852814 192.73213104 -112.66136292 193.67837341 -112.82913208 194.65328979 C-113.13211136 196.41421598 -113.43334691 198.17544356 -113.73239136 199.93704224 C-113.87008942 200.73617035 -114.00778748 201.53529846 -114.1496582 202.35864258 C-114.26622269 203.04122635 -114.38278717 203.72381012 -114.50288391 204.42707825 C-115.2515291 208.30183817 -116.14390121 212.14755546 -117 216 C-127.56 216 -138.12 216 -149 216 C-147.875 202.5 -147.875 202.5 -147.04454041 196.40679932 C-146.95384783 195.73501074 -146.86315525 195.06322216 -146.76971442 194.37107635 C-146.47171005 192.16917697 -146.16935604 189.96789944 -145.86694336 187.76660156 C-145.64978389 186.16882885 -145.43289819 184.57101891 -145.21626282 182.97317505 C-144.63233054 178.67198971 -144.04461014 174.37132985 -143.45616603 170.07075977 C-142.84000964 165.56275611 -142.22739695 161.05427091 -141.61439514 156.5458374 C-140.45526893 148.02481552 -139.29299384 139.50422632 -138.12956387 130.98379111 C-136.80425291 121.2766561 -135.482488 111.56903927 -134.16100872 101.86138201 C-131.4445951 81.9070525 -128.72376795 61.95332688 -126 42 C-120.56605642 39.79406624 -115.14200181 37.63177675 -109.58032227 35.7644043 C-108.41708435 35.37216171 -107.25384644 34.97991913 -106.05535889 34.57579041 C-104.82150452 34.16277176 -103.58765015 33.74975311 -102.31640625 33.32421875 C-100.98933964 32.87750311 -99.66237684 32.43047897 -98.33551025 31.98316956 C-95.52911807 31.0374893 -92.722242 30.09326689 -89.91494751 29.15026855 C-82.59174295 26.68991189 -75.272147 24.21886049 -67.953125 21.74609375 C-67.22564875 21.50037251 -66.49817249 21.25465126 -65.7486515 21.00148392 C-48.31407926 15.11031366 -30.93185851 9.07084138 -13.57598877 2.95179749 C-11.71854966 2.29771255 -9.85933417 1.64867832 -8 1 C-6.89229248 0.59362305 -5.78458496 0.18724609 -4.64331055 -0.23144531 C-2 -1 -2 -1 0 0 Z " fill="#0B537A" transform="translate(156,296)"/>
    <path d="M0 0 C25.63002561 8.48935419 51.20537436 17.1356147 76.75959778 25.85032654 C82.77126455 27.90042639 88.78423755 29.9466107 94.79876709 31.98829651 C98.38364812 33.20566317 101.96771489 34.42541311 105.55157471 35.64578247 C107.21574919 36.21193512 108.88025591 36.7771122 110.54510498 37.34127808 C112.81355756 38.11021912 115.0807544 38.88275152 117.34765625 39.65625 C118.01484177 39.88143814 118.68202728 40.10662628 119.36943054 40.33863831 C123.88587125 41.88587125 123.88587125 41.88587125 125 43 C125.37894135 45.15965685 125.69759057 47.32990097 125.99342346 49.50250244 C126.08819959 50.18994939 126.18297572 50.87739633 126.28062385 51.585675 C126.59942282 53.90586491 126.91210953 56.2268383 127.22485352 58.54785156 C127.4512439 60.2049385 127.67799799 61.86197579 127.90509033 63.51896667 C128.52259674 68.03303061 129.1347327 72.5478082 129.74576306 77.06275272 C130.38507712 81.78135029 131.02865535 86.49936642 131.6716156 91.21746826 C132.75142992 99.1463656 133.82778186 107.07572725 134.90209961 115.00537109 C136.1444009 124.17460596 137.39208278 133.34309631 138.64268738 142.5112021 C139.84447217 151.32231261 141.04247965 160.13393271 142.23875237 168.94579315 C142.74829201 172.69863191 143.25914858 176.45128794 143.77105904 180.20380402 C144.37411572 184.62576248 144.97386262 189.04815759 145.57106018 193.47091103 C145.79081927 195.09442716 146.01171317 196.71779015 146.23382378 198.34098625 C146.53682884 200.55677295 146.83571373 202.77307785 147.13356018 204.98956299 C147.38602682 206.85009748 147.38602682 206.85009748 147.64359379 208.74821854 C148 212 148 212 148 217 C137.44 217 126.88 217 116 217 C113.02773364 201.11695166 110.1343835 185.2228014 107.3125 169.3125 C107.14712738 168.38025604 106.98175476 167.44801208 106.81137085 166.48751831 C106.11065811 162.53702847 105.41008349 158.58651416 104.70967102 154.63597107 C102.63232508 142.92146742 100.5471494 131.20836295 98.45809937 119.49594116 C98.03637354 117.13062843 97.61499206 114.76525427 97.19400024 112.39981079 C94.91525896 99.59662107 92.61193962 86.79809168 90.26171875 74.0078125 C90.05021683 72.84893524 89.8387149 71.69005798 89.62080383 70.49606323 C89.42327011 69.42631256 89.22573639 68.35656189 89.0222168 67.25439453 C88.8486113 66.31000519 88.6750058 65.36561584 88.49613953 64.39260864 C87.78752994 60.45232465 87.78752994 60.45232465 85.14013672 57.67236328 C84.32818848 57.22618652 83.51624023 56.78000977 82.6796875 56.3203125 C81.76380859 55.81048828 80.84792969 55.30066406 79.90429688 54.77539062 C78.90462891 54.23076172 77.90496094 53.68613281 76.875 53.125 C74.75767744 51.95076434 72.64049369 50.77627834 70.5234375 49.6015625 C68.89293457 48.7029248 68.89293457 48.7029248 67.22949219 47.78613281 C62.29953805 45.05952679 57.40045669 42.27915499 52.5 39.5 C50.58611689 38.41765148 48.67205364 37.33562144 46.7578125 36.25390625 C45.3351709 35.44977295 45.3351709 35.44977295 43.88378906 34.62939453 C40.98291043 32.99034408 38.08137838 31.35245575 35.1796875 29.71484375 C22.4297115 22.51725941 9.70424794 15.27799987 -3 8 C-2.01 5.36 -1.02 2.72 0 0 Z " fill="#0B5279" transform="translate(357,295)"/>
    <path d="M0 0 C0 17.16 0 34.32 0 52 C-5.61 52.66 -11.22 53.32 -17 54 C-26.0462602 57.67814975 -32.11288222 62.71958957 -38.38671875 70.1328125 C-39.86841632 71.84770702 -41.30410736 73.49565446 -43 75 C-43.66 75 -44.32 75 -45 75 C-44.67 75.66 -44.34 76.32 -44 77 C-34.0921009 77.89349791 -26.36487075 75.19263549 -17.5625 70.77734375 C-10.84635742 67.43126557 -8.59755657 68 0 68 C0 84.5 0 101 0 118 C-14.7218067 118 -24.39242406 113.56749653 -36 105 C-34.53043919 108.06316117 -32.85750404 110.92060576 -31.05078125 113.796875 C-30.4568457 114.74449707 -29.86291016 115.69211914 -29.25097656 116.66845703 C-28.6112793 117.68536621 -27.97158203 118.70227539 -27.3125 119.75 C-26.3239502 121.3275708 -26.3239502 121.3275708 -25.31542969 122.93701172 C-22.50600721 127.41997695 -19.69209405 131.90009037 -16.87451172 136.37792969 C-15.49237501 138.57454556 -14.11124702 140.77179649 -12.73120117 142.96972656 C-11.43560739 145.03309736 -10.13768722 147.09500972 -8.8371582 149.15527344 C-5.99575046 153.68261669 -3.25359138 158.14987943 -1 163 C-6.01349842 161.30220173 -10.20600112 158.47025695 -14.625 155.625 C-16.329341 154.53762548 -18.03377063 153.45038987 -19.73828125 152.36328125 C-20.6092041 151.80592285 -21.48012695 151.24856445 -22.37744141 150.67431641 C-25.71458006 148.54379166 -29.06375774 146.4327355 -32.4140625 144.32299805 C-38.99905577 140.17587332 -45.57302108 136.01161023 -52.125 131.8125 C-52.71128174 131.43778564 -53.29756348 131.06307129 -53.90161133 130.67700195 C-57.8808893 128.1191107 -57.8808893 128.1191107 -59 127 C-59.59241463 118.6789703 -58.49438112 110.28356548 -57.7109375 102.00976562 C-55.96185715 88.07195594 -55.96185715 88.07195594 -60.5625 75.3125 C-61.30609658 74.12390605 -62.04285912 72.93101475 -62.7734375 71.734375 C-63.14694336 71.12529297 -63.52044922 70.51621094 -63.90527344 69.88867188 C-74.48751399 51.63171092 -80.93728585 28.98860449 -82 8 C-76.39 8 -70.78 8 -65 8 C-64.443125 9.546875 -63.88625 11.09375 -63.3125 12.6875 C-60.2297971 20.31369882 -55.06244431 24.15850309 -48 28 C-41.3660421 30.2113193 -34.1292579 29.9405838 -27.75 27.0625 C-23.14245536 24.48049431 -19.98209344 21.07587808 -16.69140625 16.98828125 C-15 15 -15 15 -12 13 C-11.17159758 10.94845264 -11.17159758 10.94845264 -10.625 8.625 C-8.8141859 2.737484 -6.40976181 0 0 0 Z " fill="#FBCBB8" transform="translate(256,151)"/>
    <path d="M0 0 C0 31.02 0 62.04 0 94 C-10.209375 94.061875 -20.41875 94.12375 -30.9375 94.1875 C-35.7172229 94.22846802 -35.7172229 94.22846802 -40.59350586 94.27026367 C-57.03499111 94.35270906 -72.12306064 93.64934147 -88 89 C-91.18904435 70.29668585 -83.9597909 53.44306929 -74 38 C-56.19049736 13.21457304 -30.33291201 0 0 0 Z " fill="#0B537A" transform="translate(256,0)"/>
    <path d="M0 0 C4.97682126 0.59924991 9.2448236 2.17302179 13.8046875 4.16015625 C14.5286673 4.46948593 15.25264709 4.77881561 15.99856567 5.09751892 C18.29341031 6.07968862 20.58420409 7.07092913 22.875 8.0625 C24.43724067 8.73302639 25.99973822 9.40295465 27.5625 10.07226562 C31.3780073 11.70793706 35.18991017 13.35175095 39 15 C38.38724332 19.57397689 37.18366359 23.53030645 35.515625 27.828125 C35.26403625 28.4821077 35.01244751 29.13609039 34.75323486 29.80989075 C33.92490959 31.95900749 33.08824656 34.10473497 32.25 36.25 C31.05550261 39.31571272 29.86301112 42.38219855 28.671875 45.44921875 C28.36612549 46.23489731 28.06037598 47.02057587 27.74536133 47.83006287 C25.64308817 53.25935494 23.64971099 58.7202555 21.703125 64.20703125 C16.36822734 79.12068618 11.22922445 92.33746554 0.47851562 104.29980469 C-1.87612334 107.00748398 -3.89560736 109.92867867 -5.9375 112.875 C-10.96272989 119.99998831 -16.1391804 127.01036233 -21.32421875 134.01953125 C-23.84136539 137.42317767 -26.34208724 140.83812492 -28.83203125 144.26171875 C-29.4569043 145.11805908 -30.08177734 145.97439941 -30.72558594 146.85668945 C-31.91846093 148.49205701 -33.10810671 150.12978672 -34.29394531 151.77026367 C-37.28260419 155.85774631 -40.2989403 159.54016393 -44 163 C-46.33651192 145.69712842 -48.4651037 128.37540585 -50.41079712 111.02426147 C-50.63620934 109.01453355 -50.86290603 107.00494925 -51.09091187 104.99551392 C-51.41378393 102.14329526 -51.73119012 99.29052208 -52.046875 96.4375 C-52.14355972 95.5875798 -52.24024445 94.73765961 -52.33985901 93.86198425 C-52.84507491 89.22590081 -53.25320373 84.66999337 -53 80 C-51.3203125 78.00390625 -51.3203125 78.00390625 -49.125 76.5625 C-48.04605469 75.82193359 -48.04605469 75.82193359 -46.9453125 75.06640625 C-45 74 -45 74 -43 74 C-45.14803303 69.99828905 -47.34961109 66.02866057 -49.5625 62.0625 C-50.17158203 60.92619141 -50.78066406 59.78988281 -51.40820312 58.61914062 C-52.01728516 57.53955078 -52.62636719 56.45996094 -53.25390625 55.34765625 C-53.80377197 54.34742432 -54.3536377 53.34719238 -54.92016602 52.31665039 C-56.91961518 49.63861182 -56.91961518 49.63861182 -60.73413086 49.16577148 C-62.35073608 49.0837146 -62.35073608 49.0837146 -64 49 C-64 46.69 -64 44.38 -64 42 C-59.83135811 43.28588612 -56.13509503 44.86024992 -52.30859375 46.94921875 C-50.66515991 47.83963867 -50.66515991 47.83963867 -48.98852539 48.74804688 C-48.41055206 49.06378662 -47.83257874 49.37952637 -47.23709106 49.70483398 C-44.13011626 51.40139639 -41.01430024 53.08155058 -37.8984375 54.76171875 C-36.9297448 55.28449905 -36.9297448 55.28449905 -35.94148254 55.81784058 C-27.69542759 60.25703833 -19.36563644 64.53377609 -11.03491211 68.8112793 C-3.30613277 72.78508291 4.36291716 76.8533673 12 81 C11.67 80.34 11.34 79.68 11 79 C10.76218058 77.63499905 10.5686236 76.26212511 10.39916992 74.88696289 C10.29189575 74.03241013 10.18462158 73.17785736 10.07409668 72.29740906 C9.96069946 71.36524063 9.84730225 70.4330722 9.73046875 69.47265625 C9.54889221 68.01996086 9.54889221 68.01996086 9.36364746 66.53791809 C9.10376256 64.45862112 8.84534118 62.37914082 8.58822632 60.29949951 C6.75274626 45.47280162 4.90042492 30.65074095 2.6875 15.875 C2.52854248 14.81289307 2.36958496 13.75078613 2.20581055 12.65649414 C1.55934691 8.41414313 0.86314428 4.20439303 0 0 Z " fill="#C3CDD5" transform="translate(320,274)"/>
    <path d="M0 0 C10.99897689 1.1646909 22.02015029 1.02413242 33.06813049 0.96363831 C36.57303725 0.94486107 40.07764501 0.94184206 43.58259583 0.94212341 C54.65753529 0.92500982 65.71658367 0.74596683 76.78327942 0.30760193 C77.78296753 0.26910629 78.78265564 0.23061066 79.81263733 0.19094849 C80.74106445 0.14992508 81.66949158 0.10890167 82.62605286 0.06663513 C83.83959442 0.01343864 83.83959442 0.01343864 85.07765198 -0.04083252 C88.54534566 -0.33989528 91.86951868 -1.12116871 95.26374817 -1.86817932 C99.82338029 -2.42016505 103.51121302 -2.68244189 107.34333801 0.20115662 C111.2424642 3.88492123 114.68265599 7.94708555 118.00447083 12.15281677 C119.52511722 14.00882476 119.52511722 14.00882476 122.42390442 15.75682068 C122.78034973 18.4907074 122.78034973 18.4907074 122.75202942 21.93650818 C122.74687317 23.17529724 122.74171692 24.4140863 122.73640442 25.69041443 C122.71577942 26.99107849 122.69515442 28.29174255 122.67390442 29.63182068 C122.66874817 30.92475037 122.66359192 32.21768005 122.65827942 33.54978943 C122.57862716 43.1379297 122.57862716 43.1379297 121.42390442 47.75682068 C115.81390442 47.75682068 110.20390442 47.75682068 104.42390442 47.75682068 C103.70202942 45.87994568 102.98015442 44.00307068 102.23640442 42.06932068 C98.86873987 34.01908884 94.04889982 29.37616527 86.09187317 25.67088318 C79.37130903 23.36837658 72.35981139 23.91027365 65.98640442 26.94432068 C58.68759197 31.13006136 55.18030707 36.419847 51.42390442 43.75682068 C50.33077942 43.26182068 49.23765442 42.76682068 48.11140442 42.25682068 C41.66026463 39.85480055 34.63572205 39.53646298 28.23640442 42.25682068 C27.30827942 42.75182068 26.38015442 43.24682068 25.42390442 43.75682068 C24.63115294 42.34076078 23.8397513 40.92394515 23.04890442 39.50682068 C22.60804504 38.71791443 22.16718567 37.92900818 21.71296692 37.11619568 C20.42390442 34.75682068 20.42390442 34.75682068 19.50984192 32.58494568 C18.12849576 30.25951401 16.89525933 29.78352327 14.42390442 28.75682068 C13.78452942 28.40361755 13.14515442 28.05041443 12.48640442 27.68650818 C6.19200434 24.46778086 0.42342163 23.69960193 -6.57609558 24.75682068 C-14.93403657 27.58923401 -20.30548709 32.03423073 -24.32609558 39.88182068 C-25.58464842 42.50247818 -26.65566439 44.99552711 -27.57609558 47.75682068 C-33.18609558 47.75682068 -38.79609558 47.75682068 -44.57609558 47.75682068 C-46.07075616 41.77817837 -45.69667457 35.87367875 -45.56486511 29.7563324 C-45.53969109 27.56390896 -45.53969109 27.56390896 -45.94718933 24.63572693 C-46.44649395 17.28881618 -42.83577441 11.82555539 -38.26359558 6.38182068 C-27.29240336 -4.83890677 -14.11936626 -1.60436027 0 0 Z " fill="#F6BB9F" transform="translate(217.5760955810547,103.24317932128906)"/>
    <path d="M0 0 C-1.09210638 11.79762286 -2.60867474 23.48999226 -4.39086914 35.20288086 C-5.9563639 45.54065708 -7.34586462 55.89684712 -8.69287109 66.26489258 C-8.84965332 67.4639624 -9.00643555 68.66303223 -9.16796875 69.8984375 C-9.30485107 70.95724121 -9.4417334 72.01604492 -9.58276367 73.10693359 C-9.96590323 75.76357713 -10.44483387 78.37453316 -11 81 C10.42345456 70.05422187 10.42345456 70.05422187 31.625 58.6875 C38.96904905 54.6483419 46.33602767 50.65965754 53.75 46.75 C54.65057129 46.27135498 55.55114258 45.79270996 56.47900391 45.29956055 C57.30577637 44.86554932 58.13254883 44.43153809 58.984375 43.984375 C59.71366211 43.59991211 60.44294922 43.21544922 61.19433594 42.81933594 C63 42 63 42 65 42 C65 44.31 65 46.62 65 49 C61.7 49 58.4 49 55 49 C54.77570313 49.79664063 54.55140625 50.59328125 54.3203125 51.4140625 C52.62416353 56.02076296 50.29929908 60.11719741 47.875 64.375 C47.40707031 65.20644531 46.93914062 66.03789062 46.45703125 66.89453125 C45.30929451 68.93234954 44.15686718 70.96735569 43 73 C46.30659106 76.48144594 46.30659106 76.48144594 50.17822266 79.26342773 C52 81 52 81 52.25537109 83.89086914 C52.13758301 85.07285889 52.01979492 86.25484863 51.8984375 87.47265625 C51.83764008 88.12847183 51.77684265 88.78428741 51.71420288 89.4599762 C51.502158 91.64357409 51.25477108 93.82099337 51 96 C50.91560669 96.7502948 50.83121338 97.5005896 50.7442627 98.27362061 C50.09409973 104.00233243 49.36484171 109.71979631 48.625 115.4375 C48.39970758 117.20437117 48.17485773 118.97129883 47.95043945 120.73828125 C47.50790843 124.21885286 47.06327341 127.69914412 46.61669922 131.17919922 C45.79145056 137.61753828 44.98872286 144.05862948 44.1875 150.5 C43.95195521 152.3854332 43.71629501 154.27085199 43.48046875 156.15625 C43.32191406 157.4246875 43.16335937 158.693125 43 160 C38.57391302 155.86239169 35.10601173 151.27679131 31.5625 146.375 C30.3139169 144.66397871 29.06521569 142.9530436 27.81640625 141.2421875 C27.18234863 140.37045898 26.54829102 139.49873047 25.89501953 138.60058594 C22.94679931 134.55466455 19.97275143 130.52791023 17 126.5 C15.84234846 124.92845867 14.68479684 123.35684374 13.52734375 121.78515625 C10.48737952 117.65906557 7.44071655 113.53795951 4.39282227 109.41772461 C2.60987659 107.00169885 0.83551699 104.57956721 -0.9375 102.15625 C-2.6546667 99.81125722 -4.39019228 97.50389838 -6.1875 95.21875 C-9.76518858 90.55497738 -12.04094592 85.72709372 -14.109375 80.25 C-14.40663986 79.47438217 -14.70390472 78.69876434 -15.01017761 77.89964294 C-19.60040321 65.87849016 -24.06725216 53.80941181 -28.54321289 41.74536133 C-29.72980896 38.54900513 -30.92116161 35.35445571 -32.11328125 32.16015625 C-32.47472733 31.18216568 -32.8361734 30.20417511 -33.20857239 29.19654846 C-33.54620102 28.29387741 -33.88382965 27.39120636 -34.23168945 26.46118164 C-34.52590286 25.66942032 -34.82011627 24.877659 -35.12324524 24.06190491 C-36.02800669 21.75770399 -36.02800669 21.75770399 -38 19 C-38 17.68 -38 16.36 -38 15 C-32.9115518 12.85925348 -27.82119885 10.72312744 -22.72900391 8.59130859 C-20.99604661 7.86504579 -19.26362191 7.13751082 -17.53173828 6.40869141 C-15.0459782 5.36287935 -12.55835479 4.3216188 -10.0703125 3.28125 C-9.29317902 2.95314331 -8.51604553 2.62503662 -7.71536255 2.2869873 C-2.22774341 0 -2.22774341 0 0 0 Z " fill="#E6EAEE" transform="translate(191,274)"/>
    <path d="M0 0 C7.2379912 4.14424058 11.17994743 9.89981399 15.5625 16.8125 C16.7071875 16.07 16.7071875 16.07 17.875 15.3125 C23.36684897 13.07852754 29.0970839 12.77287517 34.828125 14.4921875 C36.75 15.3125 36.75 15.3125 39.5625 16.8125 C39.96339844 16.08804688 40.36429687 15.36359375 40.77734375 14.6171875 C45.75845963 6.14590198 51.17855465 0.99253594 60.5625 -2.1875 C69.01122307 -3.32275982 75.49171367 -1.91005471 82.5625 2.8125 C88.72047781 7.8757262 92.53078251 13.92883265 93.5625 21.8125 C94.82707031 21.70550781 96.09164062 21.59851563 97.39453125 21.48828125 C99.05462645 21.36635335 100.71478643 21.24530533 102.375 21.125 C103.20837891 21.05216797 104.04175781 20.97933594 104.90039062 20.90429688 C105.70283203 20.84951172 106.50527344 20.79472656 107.33203125 20.73828125 C108.07042236 20.68067627 108.80881348 20.62307129 109.56958008 20.5637207 C111.5625 20.8125 111.5625 20.8125 113.3425293 22.15307617 C114.5625 23.8125 114.5625 23.8125 114.3125 26.4375 C113.5625 28.8125 113.5625 28.8125 112.5625 29.8125 C111.0737814 29.89919432 109.581055 29.91953494 108.08984375 29.91015625 C107.19072266 29.90693359 106.29160156 29.90371094 105.36523438 29.90039062 C103.94694336 29.88782227 103.94694336 29.88782227 102.5 29.875 C101.0759082 29.86823242 101.0759082 29.86823242 99.62304688 29.86132812 C97.26946935 29.8495011 94.91601523 29.83302025 92.5625 29.8125 C92.45035156 30.70839844 92.33820313 31.60429687 92.22265625 32.52734375 C91.09138261 38.15693624 88.03586332 42.81255388 83.5625 46.4296875 C76.06466534 51.22943772 69.47502862 52.87933634 60.5625 51.8125 C53.35659658 49.5262077 48.55378027 45.30163175 43.5625 39.8125 C42.655 39.02875 41.7475 38.245 40.8125 37.4375 C38.5647812 34.8151614 37.99909309 33.41354288 37.0625 30.1875 C36.13019312 27.07463092 35.77128574 26.00388693 33.3125 23.75 C29.75003023 22.53552167 27.30349887 22.27807159 23.5625 22.8125 C19.28266994 25.92510368 17.97460351 29.10152568 16.359375 33.90234375 C15.09595218 36.93084258 12.99426714 38.65707003 10.5625 40.8125 C10.046875 41.3796875 9.53125 41.946875 9 42.53125 C3.15485188 48.91761554 -2.65407584 51.95013446 -11.375 52.375 C-18.97898234 52.1034292 -24.57868079 49.2362815 -30.3125 44.375 C-34.32537891 39.53594014 -36.56699073 36.07146162 -37.4375 29.8125 C-38.03288574 29.82821045 -38.62827148 29.8439209 -39.24169922 29.86010742 C-41.93187003 29.92235801 -44.62188957 29.96145783 -47.3125 30 C-48.71822266 30.03770508 -48.71822266 30.03770508 -50.15234375 30.07617188 C-51.04824219 30.08583984 -51.94414062 30.09550781 -52.8671875 30.10546875 C-53.69460449 30.1211792 -54.52202148 30.13688965 -55.37451172 30.15307617 C-56.39569092 29.98449097 -56.39569092 29.98449097 -57.4375 29.8125 C-59.4375 26.8125 -59.4375 26.8125 -59.0625 24.125 C-58.85625 23.361875 -58.65 22.59875 -58.4375 21.8125 C-55.61304408 20.87101469 -54.29578382 20.73938305 -51.42578125 20.93359375 C-50.66845703 20.98193359 -49.91113281 21.03027344 -49.13085938 21.08007812 C-48.34517578 21.13615234 -47.55949219 21.19222656 -46.75 21.25 C-45.95271484 21.30220703 -45.15542969 21.35441406 -44.33398438 21.40820312 C-42.36813478 21.53769022 -40.40276335 21.67440041 -38.4375 21.8125 C-38.3240625 20.925625 -38.210625 20.03875 -38.09375 19.125 C-36.68805565 12.02959043 -32.83774695 6.37393699 -26.875 2.3125 C-18.32851423 -2.92812586 -9.31075994 -4.43236776 0 0 Z " fill="#184A60" transform="translate(228.4375,129.1875)"/>
    <path d="M0 0 C0.33 0 0.66 0 1 0 C1.43306319 4.65850068 1.86005571 9.31750612 2.28173828 13.97705078 C2.42562997 15.55792788 2.57110122 17.13866212 2.71826172 18.71923828 C3.13216291 23.17078786 3.51703195 27.62268959 3.85058594 32.08102417 C3.98274273 33.77835896 4.14171244 35.47355955 4.3046875 37.16821289 C4.45521274 39.59072853 4.51937125 41.63113065 4 44 C1.869662 46.30445216 0.652165 47.25988609 -2 48.6875 C-2.65645508 49.08211426 -3.31291016 49.47672852 -3.98925781 49.88330078 C-5.47619795 50.7766123 -6.9719899 51.65529443 -8.47460938 52.52197266 C-12.26493763 54.74032603 -15.96525752 57.09713086 -19.67919922 59.44042969 C-22.75487424 61.37807072 -25.84089263 63.29819942 -28.9296875 65.21484375 C-32.8670104 67.66265695 -36.78897857 70.13194044 -40.6953125 72.62890625 C-42.01063965 73.46832764 -42.01063965 73.46832764 -43.35253906 74.32470703 C-45.00003141 75.37806887 -46.64531988 76.43488784 -48.28808594 77.49560547 C-49.01543945 77.9598291 -49.74279297 78.42405273 -50.4921875 78.90234375 C-51.12495605 79.30960693 -51.75772461 79.71687012 -52.40966797 80.13647461 C-54 81 -54 81 -56 81 C-57.13818359 79.46557617 -57.13818359 79.46557617 -58.3984375 77.29296875 C-58.87152344 76.48851318 -59.34460938 75.68405762 -59.83203125 74.85522461 C-60.34121094 73.97487549 -60.85039062 73.09452637 -61.375 72.1875 C-62.4642929 70.33744943 -63.55548606 68.48851658 -64.6484375 66.640625 C-65.2062793 65.69638672 -65.76412109 64.75214844 -66.33886719 63.77929688 C-68.82396128 59.62140282 -71.40234989 55.52572491 -74 51.4375 C-74.48549316 50.67074951 -74.97098633 49.90399902 -75.47119141 49.11401367 C-78.10439761 44.96205048 -80.75716389 40.82321395 -83.421875 36.69140625 C-83.97875 35.82265869 -84.535625 34.95391113 -85.109375 34.05883789 C-86.18171794 32.38633397 -87.25962117 30.71737864 -88.34375 29.05249023 C-88.82328125 28.30298096 -89.3028125 27.55347168 -89.796875 26.78125 C-90.22323242 26.12189453 -90.64958984 25.46253906 -91.08886719 24.78320312 C-92 23 -92 23 -92 20 C-91.31035156 20.53109375 -90.62070313 21.0621875 -89.91015625 21.609375 C-75.69521422 32.29495557 -62.61341801 35.42143373 -45 34 C-40.65909657 33.20249629 -36.96847159 31.91286041 -33 30 C-32.03191406 29.53722656 -31.06382812 29.07445312 -30.06640625 28.59765625 C-18.2237264 22.29901378 -8.8292057 13.04848243 -1.390625 1.984375 C-0.70226562 1.00210938 -0.70226562 1.00210938 0 0 Z " fill="#E28F71" transform="translate(311,234)"/>
    <path d="M0 0 C8.09649656 1.00864336 16.13863543 1.25230842 24.29264832 1.43688965 C28.50014832 1.56063965 32.70764832 1.68438965 37.04264832 1.81188965 C37.04264832 14.02188965 37.04264832 26.23188965 37.04264832 38.81188965 C30.60764832 41.28688965 30.60764832 41.28688965 24.04264832 43.81188965 C19.13237224 35.02507983 19.13237224 35.02507983 18.12858582 32.64001465 C16.74723965 30.31458298 15.51400323 29.83859224 13.04264832 28.81188965 C12.40327332 28.45868652 11.76389832 28.1054834 11.10514832 27.74157715 C4.81074823 24.52284983 -0.95783447 23.7546709 -7.95735168 24.81188965 C-16.31529268 27.64430298 -21.68674319 32.0892997 -25.70735168 39.93688965 C-26.96590453 42.55754715 -28.03692049 45.05059608 -28.95735168 47.81188965 C-34.56735168 47.81188965 -40.17735168 47.81188965 -45.95735168 47.81188965 C-47.45201226 41.83324734 -47.07793067 35.92874771 -46.94612122 29.81140137 C-46.9209472 27.61897793 -46.9209472 27.61897793 -47.32844543 24.6907959 C-47.82822469 17.33690108 -44.21157191 11.89021589 -39.64485168 6.43688965 C-28.688184 -5.03925414 -14.28437454 -1.79487981 0 0 Z " fill="#FACAB8" transform="translate(218.9573516845703,103.1881103515625)"/>
    <path d="M0 0 C0.73075648 2.3140622 1.40138258 4.64828869 2 7 C1.36312256 7.35602295 0.72624512 7.7120459 0.07006836 8.07885742 C-14.3462658 16.1397836 -28.74412351 24.23213913 -43.11767578 32.36914062 C-46.09710426 34.05494295 -49.07768331 35.73869468 -52.05859375 37.421875 C-53.05616699 37.98559814 -54.05374023 38.54932129 -55.08154297 39.13012695 C-57.04410663 40.23774581 -59.00794337 41.34311245 -60.97314453 42.44604492 C-65.12449313 44.78050272 -69.25377593 47.12986154 -73.30859375 49.62890625 C-73.94337646 50.01393311 -74.57815918 50.39895996 -75.23217773 50.7956543 C-76.85122705 51.78416652 -78.45756767 52.79341636 -80.0625 53.8046875 C-85.80087396 56.13971733 -91.88086658 53.59773579 -97.578125 51.8203125 C-98.27137878 51.60688202 -98.96463257 51.39345154 -99.67889404 51.17355347 C-101.13184534 50.72411719 -102.58392649 50.27185894 -104.03515625 49.81689453 C-106.25460923 49.12356012 -108.47854689 48.44621459 -110.703125 47.76953125 C-112.12009141 47.32908816 -113.53676891 46.8877143 -114.953125 46.4453125 C-115.6156427 46.24519562 -116.2781604 46.04507874 -116.96075439 45.83889771 C-120.43197426 44.73348251 -122.55574458 43.67002795 -125 41 C-124.16840866 40.72010727 -123.33681732 40.44021454 -122.48002625 40.15184021 C-111.88131603 36.58395533 -101.28388616 33.01228128 -90.6875 29.4375 C-89.84450851 29.15311443 -89.00151703 28.86872887 -88.13298035 28.57572556 C-63.15493403 20.14794527 -38.20180516 11.65871543 -13.34608459 2.87515259 C-11.5653121 2.24653313 -9.78271373 1.62309297 -8 1 C-6.34822754 0.39369751 -6.34822754 0.39369751 -4.66308594 -0.22485352 C-2 -1 -2 -1 0 0 Z " fill="#037092" transform="translate(156,296)"/>
    <path d="M0 0 C-5.85273014 6.99472627 -12.05685463 13.23393838 -18.96484375 19.18359375 C-21.05858541 21.05228832 -23.03126897 23.00044735 -25 25 C-28.2215855 28.27202128 -31.58592145 31.29316055 -35.06640625 34.28515625 C-36.95494597 35.96004299 -38.73155648 37.69947587 -40.5 39.5 C-42.89053167 41.93389732 -45.35046262 44.21355559 -47.9375 46.4375 C-50.74576347 48.85617779 -53.39970593 51.35899683 -56 54 C-59.2215855 57.27202128 -62.58592145 60.29316055 -66.06640625 63.28515625 C-67.95494597 64.96004299 -69.73155648 66.69947587 -71.5 68.5 C-76.65784499 73.7402763 -82.24603319 78.43067341 -88 83 C-86.11298967 57.90557911 -76.08557216 36.84436317 -56.78125 20.19140625 C-40.33893018 7.23615145 -21.25862736 -1.03420349 0 0 Z " fill="#037093" transform="translate(255,0)"/>
    <path d="M0 0 C4.10820662 4.05632882 7.8101668 8.31307499 11.42578125 12.80273438 C13.5054989 15.34638904 15.23969996 17.15979997 18 19 C19.16259766 20.81030273 19.16259766 20.81030273 20.2890625 22.99609375 C23.06721599 28.19088858 26.1852535 33.11265891 29.375 38.0625 C30.60883481 39.99039803 31.84187801 41.91880285 33.07421875 43.84765625 C33.71278809 44.84684082 34.35135742 45.84602539 35.00927734 46.87548828 C38.42470007 52.23611865 41.81029623 57.61523162 45.1875 63 C45.82284668 64.00812744 46.45819336 65.01625488 47.11279297 66.05493164 C49.96870804 70.61535756 52.73180475 75.11719423 55 80 C49.98650158 78.30220173 45.79399888 75.47025695 41.375 72.625 C39.670659 71.53762548 37.96622937 70.45038987 36.26171875 69.36328125 C35.3907959 68.80592285 34.51987305 68.24856445 33.62255859 67.67431641 C30.28541994 65.54379166 26.93624226 63.4327355 23.5859375 61.32299805 C17.00094423 57.17587332 10.42697892 53.01161023 3.875 48.8125 C3.28871826 48.43778564 2.70243652 48.06307129 2.09838867 47.67700195 C-1.8808893 45.1191107 -1.8808893 45.1191107 -3 44 C-3.36516444 34.74308136 -2.35712172 25.58090909 -1.5 16.375 C-1.35505853 14.78258937 -1.21052405 13.19014164 -1.06640625 11.59765625 C-0.71562701 7.73132724 -0.35934819 3.86554161 0 0 Z " fill="#F8BDA0" transform="translate(200,234)"/>
    <path d="M0 0 C3.51025669 3.02832906 6.53156667 6.39381112 9.48828125 9.95703125 C11.45201985 12.19364668 13.73064044 13.91277732 16.0625 15.75 C16.0625 16.41 16.0625 17.07 16.0625 17.75 C12.07981539 19.7413423 7.39604666 19.20907115 3.0625 18.75 C-0.39177042 17.5853829 -3.51992135 15.92708943 -6.75 14.25 C-18.23433867 8.8885699 -30.20891089 6.78359537 -42.58935547 10.55859375 C-47.30445105 12.3264218 -51.78115458 14.45521129 -56.18017578 16.90209961 C-59.99623501 18.74332963 -63.49320338 18.8624321 -67.6875 18.8125 C-68.67234375 18.80347656 -69.6571875 18.79445312 -70.671875 18.78515625 C-71.41953125 18.77355469 -72.1671875 18.76195312 -72.9375 18.75 C-73.2675 17.76 -73.5975 16.77 -73.9375 15.75 C-73.44121094 15.3375 -72.94492188 14.925 -72.43359375 14.5 C-68.79175317 11.40408998 -65.47878496 8.31949397 -62.4375 4.625 C-48.61989003 -11.65328023 -16.64741322 -12.18579494 0 0 Z " fill="#062741" transform="translate(284.9375,210.25)"/>
    <path d="M0 0 C4.34048798 3.02068221 7.47521474 7.11878867 8.82421875 12.26953125 C9.4477767 18.60903708 8.48838252 23.00440977 4.82421875 28.26953125 C0.54307414 32.90255076 -3.7597084 35.03188474 -9.98828125 35.64453125 C-15.34239213 35.48289771 -19.79139298 33.47282674 -23.71875 29.84375 C-27.91818404 25.07782339 -29.68100344 20.7706412 -29.48828125 14.38671875 C-28.71488708 9.14697322 -26.18739864 4.8742445 -22.23828125 1.39453125 C-14.86154362 -3.72402139 -7.86778296 -4.3744255 0 0 Z " fill="#7AA4A8" transform="translate(305.17578125,137.73046875)"/>
    <path d="M0 0 C3.61879574 2.6135747 6.11397619 5.24208474 7.8984375 9.37109375 C8.83062174 15.17931862 8.99918121 21.10953992 6.2109375 26.43359375 C2.76737371 30.80785046 -0.68185751 33.85861794 -6.1015625 35.37109375 C-12.44106833 35.9946517 -16.83644102 35.03525752 -22.1015625 31.37109375 C-26.73458201 27.08994914 -28.86391599 22.7871666 -29.4765625 16.55859375 C-29.31492896 11.20448287 -27.30485799 6.75548202 -23.67578125 2.828125 C-16.55298097 -3.44803752 -8.27909908 -4.72857635 0 0 Z " fill="#B6D7DA" transform="translate(227.1015625,137.62890625)"/>
    <path d="M0 0 C12.5093694 -1.27048283 12.5093694 -1.27048283 17 0 C20.96195134 3.73260538 22.80696993 8.07786585 25 13 C26.14019669 14.91186994 27.3041773 16.80992092 28.5 18.6875 C31 22.75 31 22.75 31 25 C29.3203125 26.5078125 29.3203125 26.5078125 27.125 28.125 C26.40570313 28.66382813 25.68640625 29.20265625 24.9453125 29.7578125 C23 31 23 31 21 31 C20.67 31.99 20.34 32.98 20 34 C19.67 33.67 19.34 33.34 19 33 C18.67 33.66 18.34 34.32 18 35 C15.2604675 36.5219625 12.74060543 37.81985273 9.6875 38.5625 C9.130625 38.706875 8.57375 38.85125 8 39 C7.67 39.66 7.34 40.32 7 41 C4.41359791 38.92045364 1.83144261 36.83569844 -0.75 34.75 C-1.47960937 34.16347656 -2.20921875 33.57695312 -2.9609375 32.97265625 C-3.66992188 32.39902344 -4.37890625 31.82539063 -5.109375 31.234375 C-5.75874023 30.71069336 -6.40810547 30.18701172 -7.07714844 29.64746094 C-9.14871188 27.87258662 -11.07106844 25.92893156 -13 24 C-8.71 16.08 -4.42 8.16 0 0 Z " fill="#012440" transform="translate(246,323)"/>
    <path d="M0 0 C1.17139023 -0.00953201 2.34278046 -0.01906403 3.54966736 -0.02888489 C4.8204866 -0.02797348 6.09130585 -0.02706207 7.40063477 -0.02612305 C8.7002565 -0.03040817 9.99987823 -0.0346933 11.33888245 -0.03910828 C14.09201124 -0.04657532 16.84501182 -0.04627592 19.59814453 -0.04101562 C23.12691263 -0.03522209 26.65515566 -0.05214604 30.18383694 -0.0753603 C33.54779184 -0.09363334 36.91163044 -0.08991245 40.27563477 -0.08862305 C42.17882729 -0.10243767 42.17882729 -0.10243767 44.12046814 -0.11653137 C45.88228172 -0.10718819 45.88228172 -0.10718819 47.6796875 -0.09765625 C48.71512192 -0.09828568 49.75055634 -0.0989151 50.81736755 -0.0995636 C53.40454102 0.2746582 53.40454102 0.2746582 55.27406311 1.63386536 C56.40454102 3.2746582 56.40454102 3.2746582 56.21704102 5.8996582 C55.40454102 8.2746582 55.40454102 8.2746582 53.40454102 9.2746582 C51.54164774 9.38100295 49.67496759 9.42347728 47.80908203 9.43579102 C46.6376918 9.44539856 45.46630157 9.4550061 44.25941467 9.46490479 C42.98859543 9.46915466 41.71777618 9.47340454 40.40844727 9.4777832 C39.10882553 9.48348328 37.8092038 9.48918335 36.47019958 9.49505615 C33.71710824 9.50556373 30.96404608 9.51140817 28.2109375 9.51489258 C24.68220469 9.52038113 21.15385701 9.54441726 17.62524509 9.57286453 C14.26131943 9.59595872 10.89744815 9.59793817 7.53344727 9.6027832 C6.26465225 9.61513 4.99585724 9.62747681 3.68861389 9.64019775 C1.92680031 9.63569611 1.92680031 9.63569611 0.12939453 9.63110352 C-0.90603989 9.63474915 -1.9414743 9.63839478 -3.00828552 9.64215088 C-5.59545898 9.2746582 -5.59545898 9.2746582 -7.46498108 7.88128662 C-8.59545898 6.2746582 -8.59545898 6.2746582 -8.40795898 4.2121582 C-6.57596782 -0.1564361 -4.347674 0.0193608 0 0 Z " fill="#A9C9CF" transform="translate(348.595458984375,412.725341796875)"/>
    <path d="M0 0 C0.66 0 1.32 0 2 0 C2.85972966 5.03452503 3.71406541 10.06992494 4.56347656 15.10620117 C4.85302054 16.81836476 5.14402135 18.53028265 5.43652344 20.24194336 C5.85737785 22.70623204 6.2729372 25.17136484 6.6875 27.63671875 C6.81874268 28.39836838 6.94998535 29.16001801 7.08520508 29.94474792 C7.70595352 33.66728704 8.15667081 37.2235806 8 41 C0.94216182 35.74121861 -6.03098109 30.37549325 -13 25 C-8.83871581 16.5666282 -4.57835962 8.21756854 0 0 Z " fill="#0E547A" transform="translate(246,323)"/>
    <path d="M0 0 C4.10703441 0.85563217 5.55401113 2.24378009 8 5.625 C8.62491523 9.58279649 8.61006839 11.63363886 6.5 15.0625 C2.97873756 17.26328902 0.04560357 17.42914661 -4 16.625 C-6.5 15.0625 -6.5 15.0625 -8 12.625 C-8.5625 9.1875 -8.5625 9.1875 -8 5.625 C-5.55401113 2.24378009 -4.10703441 0.85563217 0 0 Z " fill="#F5F6F7" transform="translate(255,475.375)"/>
</svg>
