<svg version="1.1" xmlns="http://www.w3.org/2000/svg" width="512" height="512">
    <path d="M0 0 C1.36160017 -0.00543555 2.72319444 -0.01256617 4.08477783 -0.02124023 C7.74606301 -0.03930683 11.40689186 -0.03247611 15.0681839 -0.01972389 C18.92225767 -0.0095088 22.77629558 -0.01901295 26.63037109 -0.02526855 C33.0993543 -0.03252044 39.5681541 -0.02302228 46.03710938 -0.00390625 C53.48764687 0.01785787 60.93774634 0.01080474 68.38827324 -0.01121187 C74.81586358 -0.02943643 81.243323 -0.03188994 87.67093086 -0.0214572 C91.49641206 -0.0152608 95.32168821 -0.01427911 99.14715576 -0.02760315 C102.74583923 -0.0392646 106.34396482 -0.03095143 109.94258881 -0.00802612 C111.8724646 -0.000322 113.80238828 -0.01200646 115.73223877 -0.02453613 C129.32140098 0.10567503 141.17802163 4.35782559 151.265625 13.61914062 C162.09154734 25.09380737 165.49172676 38.45305851 165.08163452 53.88742065 C164.66073393 64.42338262 163.76507173 74.94184222 162.9765625 85.45507812 C162.78335602 88.08459886 162.59064352 90.71415594 162.3984375 93.34375 C161.93017647 99.73545643 161.45580835 106.12668643 160.9765625 112.51757812 C162.89903809 112.48615723 162.89903809 112.48615723 164.86035156 112.45410156 C169.61626001 112.38169147 174.37211974 112.33577453 179.12841797 112.29785156 C181.18676955 112.27773843 183.24506402 112.25044415 185.30322266 112.21582031 C188.26218763 112.16728929 191.22039711 112.14460647 194.1796875 112.12695312 C195.09961487 112.10630798 196.01954224 112.08566284 196.96734619 112.06439209 C203.27771586 112.06217673 203.27771586 112.06217673 206.55566406 114.19824219 C208.27996168 117.01281734 208.49232964 118.72636399 208.5078125 122.01757812 C208.51296875 123.06945312 208.518125 124.12132812 208.5234375 125.20507812 C208.50796875 126.29820312 208.4925 127.39132813 208.4765625 128.51757812 C208.49203125 129.61070312 208.5075 130.70382813 208.5234375 131.83007812 C208.51828125 132.88195312 208.513125 133.93382812 208.5078125 135.01757812 C208.50330078 135.97664062 208.49878906 136.93570313 208.49414062 137.92382812 C207.80283658 141.38817444 206.87750171 142.50513129 203.9765625 144.51757812 C201.3091759 144.93559582 199.03547269 145.1222777 196.3671875 145.12695312 C195.64037781 145.14348938 194.91356812 145.16002563 194.16473389 145.17706299 C191.85192381 145.22550173 189.53977093 145.24690301 187.2265625 145.26757812 C185.65491493 145.29574153 184.08329791 145.32566949 182.51171875 145.35742188 C178.66672081 145.43125859 174.82208678 145.48085761 170.9765625 145.51757812 C171.51708252 145.78022461 172.05760254 146.04287109 172.61450195 146.31347656 C173.32823975 146.66442383 174.04197754 147.01537109 174.77734375 147.37695312 C175.48286377 147.72209961 176.18838379 148.06724609 176.9152832 148.42285156 C184.03094986 152.20191697 188.14751936 157.98334182 191.09375 165.28710938 C193.45418203 173.9246195 193.12819354 184.29381203 189.234375 192.40820312 C184.74583868 199.93556217 178.95373979 204.34006306 170.9765625 207.83007812 C167.20634879 208.69408543 163.84427729 208.56116917 159.9765625 208.51757812 C159.99750977 209.59015869 160.01845703 210.66273926 160.04003906 211.76782227 C160.11350435 215.82139247 160.15874115 219.87490654 160.19628906 223.92895508 C160.21616585 225.66961626 160.24327715 227.41021286 160.27832031 229.15063477 C160.74266277 252.83892853 154.18357787 273.61761721 137.77319336 291.24194336 C128.87759748 300.3863057 117.7851175 307.66240779 105.9765625 312.51757812 C105.3165625 312.51757812 104.6565625 312.51757812 103.9765625 312.51757812 C103.9765625 317.46757812 103.9765625 322.41757812 103.9765625 327.51757812 C104.96398437 327.01226562 105.95140625 326.50695312 106.96875 325.98632812 C108.26291426 325.32986799 109.55719095 324.67362946 110.8515625 324.01757812 C111.50253906 323.68371094 112.15351563 323.34984375 112.82421875 323.00585938 C117.75 320.51757812 117.75 320.51757812 119.9765625 320.51757812 C120.3065625 326.78757812 120.6365625 333.05757813 120.9765625 339.51757812 C123.4829834 340.1013623 125.9894043 340.68514648 128.57177734 341.28662109 C137.04942938 343.26135837 145.52681284 345.23724682 154.00407982 347.2136364 C159.12125062 348.40661884 164.23849899 349.59926591 169.35595703 350.79101562 C180.26805115 353.33246911 191.17859868 355.88033646 202.08666611 358.43902206 C208.03956394 359.83408887 213.99535264 361.2159286 219.95361137 362.58791161 C223.79401823 363.47408255 227.6324201 364.36872673 231.47044754 365.26514053 C233.26204566 365.68162323 235.05448188 366.09452044 236.84782028 366.50344467 C254.91971812 370.62777845 270.50575153 375.63603472 281.4153595 391.62644958 C283.31362666 395.14177358 284.28318521 398.70138152 285.24487305 402.54907227 C285.45013611 403.34317001 285.65539917 404.13726776 285.86688232 404.95542908 C286.54028164 407.56923497 287.20202093 410.18583345 287.86328125 412.80273438 C288.32925218 414.62461094 288.7957981 416.44634053 289.26289368 418.26792908 C290.23866449 422.08042837 291.20892951 425.89427229 292.17504883 429.70922852 C293.41377906 434.59967681 294.66388297 439.48712752 295.91781902 444.37369633 C296.88151235 448.1327829 297.84033052 451.89309892 298.79755592 455.6538372 C299.25682927 457.45668474 299.71735219 459.25921442 300.17914391 461.06141853 C300.823028 463.57825232 301.46061251 466.096598 302.09643555 468.61547852 C302.28808792 469.36000275 302.4797403 470.10452698 302.67720032 470.87161255 C303.51890393 474.23250088 303.9765625 477.02444255 303.9765625 480.51757812 C140.2965625 480.51757812 -23.3834375 480.51757812 -192.0234375 480.51757812 C-191.33668462 475.02355508 -190.52471801 469.92922422 -189.18505859 464.60791016 C-189.00108521 463.86202637 -188.81711182 463.11614258 -188.62756348 462.34765625 C-188.02306324 459.90543258 -187.41091499 457.46523227 -186.796875 455.02539062 C-186.58587788 454.18466885 -186.37488075 453.34394707 -186.15748978 452.47774887 C-185.04015544 448.02970226 -183.9163116 443.5833554 -182.78759766 439.13818359 C-181.63034672 434.57453144 -180.49731242 430.00522564 -179.36957359 425.43420601 C-178.49124112 421.89419318 -177.59421276 418.35910462 -176.69227982 414.82503891 C-176.26667393 413.1436983 -175.84804832 411.46057317 -175.43690109 409.77563858 C-172.18005712 396.46950083 -167.70705471 385.65449971 -156.0234375 377.51757812 C-147.7555176 372.6712915 -139.44947176 369.97427153 -130.16015625 367.81835938 C-128.78453283 367.48797425 -127.4091913 367.15641368 -126.03410339 366.82380676 C-122.20430531 365.90238552 -118.36994631 365.00147027 -114.53417206 364.10529327 C-111.93308221 363.49642767 -109.333143 362.88284661 -106.73345947 362.26800537 C-94.11702166 359.28481089 -81.49177801 356.34026038 -68.86334229 353.4083252 C-63.77366691 352.22602565 -58.68472769 351.04056583 -53.59570312 349.85546875 C-38.74111375 346.39722688 -23.88580455 342.94226149 -9.0234375 339.51757812 C-8.6934375 333.24757813 -8.3634375 326.97757812 -8.0234375 320.51757812 C-2.25329562 322.44095875 2.58968455 324.7513435 7.9765625 327.51757812 C7.9765625 322.56757813 7.9765625 317.61757813 7.9765625 312.51757812 C5.9965625 311.85757812 4.0165625 311.19757813 1.9765625 310.51757812 C-6.52980163 306.52347314 -14.02286837 301.77704466 -21.0234375 295.51757812 C-21.85617188 294.77894531 -22.68890625 294.0403125 -23.546875 293.27929688 C-36.83466979 280.78876977 -46.77831825 262.71023885 -48.19755554 244.25318909 C-48.25204593 241.94148662 -48.24916344 239.63829047 -48.21875 237.32617188 C-48.2159201 236.4954567 -48.21309021 235.66474152 -48.21017456 234.80885315 C-48.19910041 232.19077308 -48.1740211 229.57305242 -48.1484375 226.95507812 C-48.13839115 225.16536957 -48.12926822 223.37565558 -48.12109375 221.5859375 C-48.09920315 217.22968208 -48.06476383 212.87369075 -48.0234375 208.51757812 C-49.28728271 208.53127441 -50.55112793 208.5449707 -51.85327148 208.55908203 C-59.40261146 208.64089422 -66.02291805 205.3287944 -71.4921875 200.22070312 C-78.88585041 191.99713928 -80.60533817 183.28312178 -80.3359375 172.50585938 C-79.86233236 164.13291515 -76.25568852 157.09679146 -70.0234375 151.51757812 C-66.51473863 148.95429716 -63.1527891 146.89402866 -59.0234375 145.51757812 C-60.49151855 145.50355957 -60.49151855 145.50355957 -61.98925781 145.48925781 C-65.62757541 145.44932354 -69.26505041 145.38355679 -72.90283203 145.31005859 C-74.47596394 145.28186859 -76.04923697 145.26064415 -77.62255859 145.24658203 C-79.88712706 145.22512371 -82.15000254 145.17846465 -84.4140625 145.12695312 C-85.11525208 145.12572449 -85.81644165 145.12449585 -86.53887939 145.12322998 C-89.80615506 145.0256711 -91.75677141 144.70257039 -94.46582031 142.82324219 C-96.36681285 140.00929649 -96.53879226 138.39645228 -96.5546875 135.01757812 C-96.56242187 133.43976563 -96.56242187 133.43976563 -96.5703125 131.83007812 C-96.55484375 130.73695313 -96.539375 129.64382812 -96.5234375 128.51757812 C-96.54664062 126.87789062 -96.54664062 126.87789062 -96.5703125 125.20507812 C-96.56515625 124.15320313 -96.56 123.10132813 -96.5546875 122.01757812 C-96.55017578 121.05851562 -96.54566406 120.09945312 -96.54101562 119.11132812 C-96.0234375 116.51757812 -96.0234375 116.51757812 -94.60253906 114.19824219 C-90.6217967 111.60420296 -86.87532321 112.02262497 -82.2265625 112.12695312 C-81.27779236 112.13261292 -80.32902222 112.13827271 -79.35150146 112.144104 C-76.32496414 112.16647203 -73.29961621 112.21666955 -70.2734375 112.26757812 C-68.2200692 112.28764256 -66.16668231 112.30589343 -64.11328125 112.32226562 C-59.08287594 112.36633832 -54.05335829 112.43536921 -49.0234375 112.51757812 C-49.0735498 111.84931503 -49.12366211 111.18105194 -49.17529297 110.49253845 C-49.70099418 103.46743133 -50.21886714 96.44177675 -50.73242188 89.41577148 C-50.92446971 86.80201977 -51.11843972 84.18840849 -51.31445312 81.57495117 C-54.91808658 33.46828314 -54.91808658 33.46828314 -43.0234375 18.51757812 C-42.58386719 17.90527344 -42.14429688 17.29296875 -41.69140625 16.66210938 C-31.63067244 3.52806783 -15.68085727 -0.10180895 0 0 Z " fill="#FEC09D" transform="translate(200.0234375,23.482421875)"/>
    <path d="M0 0 C4.80328557 1.60109519 9.02559443 3.4169223 13.46875 5.74609375 C14.17855515 6.11353195 14.88836029 6.48097015 15.61967468 6.85954285 C17.13375218 7.64378939 18.64684623 8.42993707 20.1590271 9.21783447 C24.08725593 11.26447298 28.02252474 13.29749506 31.95703125 15.33203125 C32.73355545 15.73403748 33.51007965 16.1360437 34.31013489 16.55023193 C43.82212211 21.46952969 53.40314943 26.2486694 63 31 C63 31.66 63 32.32 63 33 C57.34280556 35.85388993 51.68252326 38.70158098 46.02001953 41.54492188 C44.09286456 42.51353746 42.16642905 43.48358582 40.24072266 44.45507812 C37.47745291 45.84880141 34.71166226 47.23740231 31.9453125 48.625 C31.0806839 49.06247559 30.2160553 49.49995117 29.32522583 49.95068359 C28.52454681 50.35109863 27.7238678 50.75151367 26.89892578 51.1640625 C26.1927713 51.51936035 25.48661682 51.8746582 24.75906372 52.24072266 C23 53 23 53 21 53 C32.3936311 75.37195544 32.3936311 75.37195544 44.25 97.5 C48.67772388 105.53487167 52.99975672 113.61970339 57.25 121.75 C57.82395508 122.84119141 58.39791016 123.93238281 58.98925781 125.05664062 C59.51358398 126.06404297 60.03791016 127.07144531 60.578125 128.109375 C61.04637695 129.00624023 61.51462891 129.90310547 61.99707031 130.82714844 C63 133 63 133 63 135 C63.66 135 64.32 135 65 135 C65.21914063 134.2265625 65.43828125 133.453125 65.6640625 132.65625 C67.47541452 127.69886552 69.90811516 123.15915125 72.375 118.5 C73.1779248 116.97149414 73.1779248 116.97149414 73.99707031 115.41210938 C77.97975598 107.8573723 82.07152701 100.3655747 86.18994141 92.88427734 C93.39035875 79.73007507 100.16596495 66.34699052 107 53 C106.18450684 52.75523926 105.36901367 52.51047852 104.52880859 52.25830078 C100.34699431 50.76715156 96.49414608 48.8717136 92.5390625 46.8671875 C91.74849457 46.47048859 90.95792664 46.07378967 90.1434021 45.66506958 C87.63535401 44.40547789 85.13015594 43.14033237 82.625 41.875 C80.91815433 41.01655799 79.21112497 40.15848113 77.50390625 39.30078125 C73.33379921 37.20474165 69.16623797 35.10371882 65 33 C65 32.34 65 31.68 65 31 C65.54298233 30.72961914 66.08596466 30.45923828 66.645401 30.18066406 C72.37464515 27.32723491 78.10239571 24.47082368 83.8293457 21.61279297 C85.95755644 20.55117852 88.08612785 19.49028676 90.21508789 18.43017578 C101.35264339 12.88365743 112.4619768 7.32550616 123.36499023 1.328125 C126 0 126 0 128 0 C128.33 6.27 128.66 12.54 129 19 C131.5064209 19.58378418 134.0128418 20.16756836 136.59521484 20.76904297 C145.07286688 22.74378024 153.55025034 24.71966869 162.02751732 26.69605827 C167.14468812 27.88904071 172.26193649 29.08168779 177.37939453 30.2734375 C188.29148865 32.81489099 199.20203618 35.36275834 210.11010361 37.92144394 C216.06300144 39.31651074 222.01879014 40.69835047 227.97704887 42.07033348 C231.81745573 42.95650443 235.6558576 43.8511486 239.49388504 44.74756241 C241.28548316 45.1640451 243.07791938 45.57694232 244.87125778 45.98586655 C262.94315562 50.11020033 278.52918903 55.1184566 289.438797 71.10887146 C291.33706416 74.62419546 292.30662271 78.1838034 293.26831055 82.03149414 C293.47357361 82.82559189 293.67883667 83.61968964 293.89031982 84.43785095 C294.56371914 87.05165684 295.22545843 89.66825533 295.88671875 92.28515625 C296.35268968 94.10703281 296.8192356 95.9287624 297.28633118 97.75035095 C298.26210199 101.56285025 299.23236701 105.37669417 300.19848633 109.19165039 C301.43721656 114.08209869 302.68732047 118.96954939 303.94125652 123.8561182 C304.90494985 127.61520477 305.86376802 131.3755208 306.82099342 135.13625908 C307.28026677 136.93910661 307.74078969 138.7416363 308.20258141 140.54384041 C308.8464655 143.06067419 309.48405001 145.57901987 310.11987305 148.09790039 C310.31152542 148.84242462 310.5031778 149.58694885 310.70063782 150.35403442 C311.54234143 153.71492276 312 156.50686442 312 160 C148.32 160 -15.36 160 -184 160 C-183.31324712 154.50597695 -182.50128051 149.4116461 -181.16162109 144.09033203 C-180.97764771 143.34444824 -180.79367432 142.59856445 -180.60412598 141.83007812 C-179.99962574 139.38785445 -179.38747749 136.94765414 -178.7734375 134.5078125 C-178.56244038 133.66709072 -178.35144325 132.82636894 -178.13405228 131.96017075 C-177.01671794 127.51212413 -175.8928741 123.06577728 -174.76416016 118.62060547 C-173.60690922 114.05695331 -172.47387492 109.48764751 -171.34613609 104.91662788 C-170.46780362 101.37661505 -169.57077526 97.84152649 -168.66884232 94.30746078 C-168.24323643 92.62612018 -167.82461082 90.94299504 -167.41346359 89.25806046 C-164.15661962 75.9519227 -159.68361721 65.13692158 -148 57 C-139.7320801 52.15371337 -131.42603426 49.45669341 -122.13671875 47.30078125 C-120.76109533 46.97039612 -119.3857538 46.63883556 -118.01066589 46.30622864 C-114.18086781 45.3848074 -110.34650881 44.48389214 -106.51073456 43.58771515 C-103.90964471 42.97884955 -101.3097055 42.36526849 -98.71002197 41.75042725 C-86.09358416 38.76723277 -73.46834051 35.82268225 -60.83990479 32.89074707 C-55.75022941 31.70844753 -50.66129019 30.5229877 -45.57226562 29.33789062 C-30.71767625 25.87964876 -15.86236705 22.42468336 -1 19 C-0.67 12.73 -0.34 6.46 0 0 Z " fill="#47323B" transform="translate(192,344)"/>
    <path d="M0 0 C1.36160017 -0.00543555 2.72319444 -0.01256617 4.08477783 -0.02124023 C7.74606301 -0.03930683 11.40689186 -0.03247611 15.0681839 -0.01972389 C18.92225767 -0.0095088 22.77629558 -0.01901295 26.63037109 -0.02526855 C33.0993543 -0.03252044 39.5681541 -0.02302228 46.03710938 -0.00390625 C53.48764687 0.01785787 60.93774634 0.01080474 68.38827324 -0.01121187 C74.81586358 -0.02943643 81.243323 -0.03188994 87.67093086 -0.0214572 C91.49641206 -0.0152608 95.32168821 -0.01427911 99.14715576 -0.02760315 C102.74583923 -0.0392646 106.34396482 -0.03095143 109.94258881 -0.00802612 C111.8724646 -0.000322 113.80238828 -0.01200646 115.73223877 -0.02453613 C129.32140098 0.10567503 141.17802163 4.35782559 151.265625 13.61914062 C162.09154734 25.09380737 165.49172676 38.45305851 165.08163452 53.88742065 C164.66073393 64.42338262 163.76507173 74.94184222 162.9765625 85.45507812 C162.78335602 88.08459886 162.59064352 90.71415594 162.3984375 93.34375 C161.93017647 99.73545643 161.45580835 106.12668643 160.9765625 112.51757812 C162.89903809 112.48615723 162.89903809 112.48615723 164.86035156 112.45410156 C169.61626001 112.38169147 174.37211974 112.33577453 179.12841797 112.29785156 C181.18676955 112.27773843 183.24506402 112.25044415 185.30322266 112.21582031 C188.26218763 112.16728929 191.22039711 112.14460647 194.1796875 112.12695312 C195.09961487 112.10630798 196.01954224 112.08566284 196.96734619 112.06439209 C203.27771586 112.06217673 203.27771586 112.06217673 206.55566406 114.19824219 C208.27996168 117.01281734 208.49232964 118.72636399 208.5078125 122.01757812 C208.51296875 123.06945312 208.518125 124.12132812 208.5234375 125.20507812 C208.50796875 126.29820312 208.4925 127.39132813 208.4765625 128.51757812 C208.49203125 129.61070312 208.5075 130.70382813 208.5234375 131.83007812 C208.51828125 132.88195312 208.513125 133.93382812 208.5078125 135.01757812 C208.50330078 135.97664062 208.49878906 136.93570313 208.49414062 137.92382812 C207.81980223 141.30315411 206.62248348 142.354508 203.9765625 144.51757812 C201.58641052 145.01897478 201.58641052 145.01897478 198.87280273 145.02094269 C197.317929 145.03658917 197.317929 145.03658917 195.73164368 145.05255175 C194.59430283 145.04362886 193.45696198 145.03470597 192.28515625 145.0255127 C190.47116585 145.03487264 190.47116585 145.03487264 188.62052917 145.04442167 C185.26210776 145.05763359 181.90457877 145.05285575 178.54621124 145.0404768 C174.92514445 145.03144081 171.30415666 145.04538878 167.68310547 145.05639648 C160.58888172 145.07420191 153.49482705 145.07033278 146.40059662 145.05874592 C140.63602814 145.0497198 134.87150711 145.04848403 129.10693359 145.05284119 C127.87721848 145.05376058 127.87721848 145.05376058 126.62266064 145.05469856 C124.95733768 145.05597743 123.29201474 145.05727428 121.62669182 145.05858892 C106.00350173 145.07000064 90.38040546 145.05687175 74.75723076 145.03538746 C61.34591935 145.01751592 47.93474641 145.02061986 34.5234375 145.0390625 C18.95693175 145.06045878 3.39050827 145.06890195 -12.17601013 145.05661345 C-13.83527627 145.05533922 -15.49454243 145.05408174 -17.15380859 145.05284119 C-17.97024243 145.05222408 -18.78667627 145.05160698 -19.62785053 145.05097118 C-25.38684879 145.04751454 -31.14579496 145.05335336 -36.90478516 145.0627594 C-43.92117097 145.07396699 -50.93737774 145.07096561 -57.95374298 145.04963642 C-61.53503781 145.03910912 -65.11603391 145.03503238 -68.69732666 145.04823303 C-72.57573121 145.06231284 -76.45364441 145.04552464 -80.33203125 145.0255127 C-81.4693721 145.03443558 -82.60671295 145.04335847 -83.77851868 145.05255175 C-84.81510117 145.04212076 -85.85168365 145.03168977 -86.91967773 145.02094269 C-87.8151683 145.02029328 -88.71065887 145.01964387 -89.63328552 145.01897478 C-92.80875981 144.35283631 -94.01673802 143.01300426 -96.0234375 140.51757812 C-96.54101562 137.92382812 -96.54101562 137.92382812 -96.5546875 135.01757812 C-96.55984375 133.96570313 -96.565 132.91382813 -96.5703125 131.83007812 C-96.54710938 130.19039063 -96.54710938 130.19039063 -96.5234375 128.51757812 C-96.53890625 127.42445313 -96.554375 126.33132812 -96.5703125 125.20507812 C-96.56257813 123.62726563 -96.56257813 123.62726563 -96.5546875 122.01757812 C-96.55017578 121.05851562 -96.54566406 120.09945312 -96.54101562 119.11132812 C-96.0234375 116.51757812 -96.0234375 116.51757812 -94.60253906 114.19824219 C-90.6217967 111.60420296 -86.87532321 112.02262497 -82.2265625 112.12695312 C-81.27779236 112.13261292 -80.32902222 112.13827271 -79.35150146 112.144104 C-76.32496414 112.16647203 -73.29961621 112.21666955 -70.2734375 112.26757812 C-68.2200692 112.28764256 -66.16668231 112.30589343 -64.11328125 112.32226562 C-59.08287594 112.36633832 -54.05335829 112.43536921 -49.0234375 112.51757812 C-49.0735498 111.84931503 -49.12366211 111.18105194 -49.17529297 110.49253845 C-49.70099418 103.46743133 -50.21886714 96.44177675 -50.73242188 89.41577148 C-50.92446971 86.80201977 -51.11843972 84.18840849 -51.31445312 81.57495117 C-54.91808658 33.46828314 -54.91808658 33.46828314 -43.0234375 18.51757812 C-42.58386719 17.90527344 -42.14429688 17.29296875 -41.69140625 16.66210938 C-31.63067244 3.52806783 -15.68085727 -0.10180895 0 0 Z " fill="#46313A" transform="translate(200.0234375,23.482421875)"/>
    <path d="M0 0 C1.55487373 -0.01564648 1.55487373 -0.01564648 3.14115906 -0.03160906 C4.27849991 -0.02268617 5.41584076 -0.01376328 6.58764648 -0.00457001 C8.40163689 -0.01392995 8.40163689 -0.01392995 10.25227356 -0.02347898 C13.61069497 -0.0366909 16.96822396 -0.03191306 20.32659149 -0.01953411 C23.94765828 -0.01049813 27.56864608 -0.02444609 31.18969727 -0.0354538 C38.28392102 -0.05325923 45.37797568 -0.04939009 52.47220612 -0.03780323 C58.2367746 -0.02877711 64.00129562 -0.02754134 69.76586914 -0.0318985 C70.99558425 -0.0328179 70.99558425 -0.0328179 72.2501421 -0.03375587 C73.91546505 -0.03503474 75.58078799 -0.0363316 77.24611092 -0.03764623 C92.869301 -0.04905796 108.49239727 -0.03592906 124.11557198 -0.01444477 C137.52688339 0.00342676 150.93805632 0.00032282 164.34936523 -0.01811981 C179.91587098 -0.03951609 195.48229447 -0.04795927 211.04881287 -0.03567076 C212.70807901 -0.03439653 214.36734516 -0.03313905 216.02661133 -0.0318985 C216.84304517 -0.0312814 217.65947901 -0.03066429 218.50065327 -0.03002849 C224.25965153 -0.02657186 230.0185977 -0.03241067 235.77758789 -0.04181671 C242.7939737 -0.0530243 249.81018047 -0.05002293 256.82654572 -0.02869374 C260.40784054 -0.01816643 263.98883664 -0.01408969 267.57012939 -0.02729034 C271.44853395 -0.04137015 275.32644715 -0.02458196 279.20483398 -0.00457001 C280.91084526 -0.01795434 280.91084526 -0.01795434 282.65132141 -0.03160906 C283.6879039 -0.02117807 284.72448639 -0.01074708 285.79248047 0 C286.68797104 0.00064941 287.58346161 0.00129882 288.50608826 0.00196791 C291.68156255 0.66810638 292.88954075 2.00793843 294.89624023 4.50336456 C295.41381836 7.09711456 295.41381836 7.09711456 295.42749023 10.00336456 C295.43264648 11.05523956 295.43780273 12.10711456 295.44311523 13.19086456 C295.42764648 14.28398956 295.41217773 15.37711456 295.39624023 16.50336456 C295.41170898 17.59648956 295.42717773 18.68961456 295.44311523 19.81586456 C295.43795898 20.86773956 295.43280273 21.91961456 295.42749023 23.00336456 C295.42297852 23.96242706 295.4184668 24.92148956 295.41381836 25.90961456 C294.73947997 29.28894055 293.54216121 30.34029444 290.89624023 32.50336456 C288.50608826 33.00476122 288.50608826 33.00476122 285.79248047 33.00672913 C284.23760674 33.02237561 284.23760674 33.02237561 282.65132141 33.03833818 C281.51398056 33.0294153 280.37663971 33.02049241 279.20483398 33.01129913 C277.39084358 33.02065908 277.39084358 33.02065908 275.54020691 33.03020811 C272.1817855 33.04342003 268.82425651 33.03864218 265.46588898 33.02626324 C261.84482218 33.01722725 258.22383439 33.03117522 254.6027832 33.04218292 C247.50855945 33.05998835 240.41450478 33.05611922 233.32027435 33.04453236 C227.55570587 33.03550624 221.79118484 33.03427047 216.02661133 33.03862762 C214.79689621 33.03954702 214.79689621 33.03954702 213.54233837 33.04048499 C211.87701542 33.04176387 210.21169248 33.04306072 208.54636955 33.04437536 C192.92317947 33.05578708 177.30008319 33.04265819 161.67690849 33.02117389 C148.26559708 33.00330236 134.85442415 33.0064063 121.44311523 33.02484894 C105.87660948 33.04624522 90.310186 33.05468839 74.7436676 33.04239988 C73.08440146 33.04112566 71.42513531 33.03986818 69.76586914 33.03862762 C68.9494353 33.03801052 68.13300146 33.03739342 67.2918272 33.03675762 C61.53282894 33.03330098 55.77388277 33.0391398 50.01489258 33.04854584 C42.99850677 33.05975342 35.9823 33.05675205 28.96593475 33.03542286 C25.38463993 33.02489556 21.80364383 33.02081882 18.22235107 33.03401947 C14.34394652 33.04809928 10.46603332 33.03131108 6.58764648 33.01129913 C4.88163521 33.02468346 4.88163521 33.02468346 3.14115906 33.03833818 C2.10457657 33.0279072 1.06799408 33.01747621 0 33.00672913 C-0.89549057 33.00607972 -1.79098114 33.00543031 -2.71360779 33.00476122 C-5.88908208 32.33862275 -7.09706029 30.9987907 -9.10375977 28.50336456 C-9.62133789 25.90961456 -9.62133789 25.90961456 -9.63500977 23.00336456 C-9.64016602 21.95148956 -9.64532227 20.89961456 -9.65063477 19.81586456 C-9.63516602 18.72273956 -9.61969727 17.62961456 -9.60375977 16.50336456 C-9.61922852 15.41023956 -9.63469727 14.31711456 -9.65063477 13.19086456 C-9.64290039 11.61305206 -9.64290039 11.61305206 -9.63500977 10.00336456 C-9.63049805 9.04430206 -9.62598633 8.08523956 -9.62133789 7.09711456 C-8.55540148 1.7553653 -5.14891575 0.00373399 0 0 Z " fill="#634652" transform="translate(113.103759765625,135.49663543701172)"/>
    <path d="M0 0 C70.62 0 141.24 0 214 0 C213.34 10.56 212.68 21.12 212 32 C142.7 32 73.4 32 2 32 C1.34 21.44 0.68 10.88 0 0 Z " fill="#743411" transform="translate(149,104)"/>
    <path d="M0 0 C3.2004196 0.57949984 6.33269262 1.33103281 9.4765625 2.15625 C22.56601343 5.65023049 22.56601343 5.65023049 36 7 C36.68964844 7.01901367 37.37929687 7.03802734 38.08984375 7.05761719 C55.82813097 7.50771516 72.42717624 6.23238702 89.4375 1.0234375 C93 0 93 0 96 0 C96 5.28 96 10.56 96 16 C85.04800733 21.84546115 74.02904724 27.54849762 62.9375 33.125 C61.78975098 33.70531982 60.64200195 34.28563965 59.45947266 34.88354492 C58.38874512 35.41955322 57.31801758 35.95556152 56.21484375 36.5078125 C55.25698975 36.98879395 54.29913574 37.46977539 53.31225586 37.96533203 C51 39 51 39 49 39 C49 39.66 49 40.32 49 41 C49.81549316 41.24476074 50.63098633 41.48952148 51.47119141 41.74169922 C55.65300569 43.23284844 59.50585392 45.1282864 63.4609375 47.1328125 C64.25150543 47.52951141 65.04207336 47.92621033 65.8565979 48.33493042 C68.36464599 49.59452211 70.86984406 50.85966763 73.375 52.125 C75.08184567 52.98344201 76.78887503 53.84151887 78.49609375 54.69921875 C82.66620079 56.79525835 86.83376203 58.89628118 91 61 C89.71312563 65.13327246 88.16222121 68.88094501 86.1640625 72.71875 C85.60074219 73.80414063 85.03742188 74.88953125 84.45703125 76.0078125 C83.55017578 77.73644531 83.55017578 77.73644531 82.625 79.5 C81.99074194 80.71607101 81.35662931 81.93221789 80.72265625 83.1484375 C76.43561191 91.3529955 72.03395964 99.491703 67.56787109 107.60009766 C61.15675772 119.28261861 55.09252314 131.14920007 49 143 C48.34 143 47.68 143 47 143 C46.60844727 142.23671387 46.21689453 141.47342773 45.81347656 140.68701172 C36.09261892 121.74523122 36.09261892 121.74523122 26 103 C21.48484699 94.80184356 17.09711729 86.54247883 12.78271484 78.23730469 C12.09758339 76.91887207 11.41107284 75.60115513 10.72314453 74.28417969 C9.76423905 72.44686249 8.81094187 70.6067514 7.859375 68.765625 C7.30733398 67.70118164 6.75529297 66.63673828 6.18652344 65.54003906 C5 63 5 63 5 61 C10.65719444 58.14611007 16.31747674 55.29841902 21.97998047 52.45507812 C23.90713544 51.48646254 25.83357095 50.51641418 27.75927734 49.54492188 C30.52254709 48.15119859 33.28833774 46.76259769 36.0546875 45.375 C36.9193161 44.93752441 37.7839447 44.50004883 38.67477417 44.04931641 C39.47545319 43.64890137 40.2761322 43.24848633 41.10107422 42.8359375 C41.8072287 42.48063965 42.51338318 42.1253418 43.24093628 41.75927734 C45 41 45 41 47 41 C47 40.34 47 39.68 47 39 C46.20182861 38.7635376 45.40365723 38.5270752 44.58129883 38.28344727 C40.09784734 36.67669122 35.9473792 34.60707546 31.69921875 32.46484375 C30.82223831 32.02612442 29.94525787 31.58740509 29.04170227 31.13539124 C27.19766705 30.21186861 25.35459991 29.28641073 23.51245117 28.35913086 C20.68182879 26.93464601 17.84802131 25.51666149 15.01367188 24.09960938 C13.22116427 23.20089948 11.42883999 22.30182384 9.63671875 21.40234375 C8.78575119 20.97630356 7.93478363 20.55026337 7.05802917 20.11131287 C6.27664078 19.71742874 5.49525238 19.32354462 4.69018555 18.91772461 C3.99990768 18.57067978 3.30962982 18.22363495 2.59843445 17.86607361 C1 17 1 17 0 16 C-0.07319621 13.30345146 -0.09242537 10.63308542 -0.0625 7.9375 C-0.05798828 7.17888672 -0.05347656 6.42027344 -0.04882812 5.63867188 C-0.0370068 3.75908129 -0.01907078 1.87953101 0 0 Z " fill="#F7E8D1" transform="translate(208,336)"/>
    <path d="M0 0 C10.53645164 -0.53774554 20.54970145 3.55261441 28.57421875 10.25 C35.34407518 16.72434682 39.03532169 23.01661763 40.57421875 32.25 C46.18421875 32.25 51.79421875 32.25 57.57421875 32.25 C57.57421875 37.53 57.57421875 42.81 57.57421875 48.25 C51.96421875 48.25 46.35421875 48.25 40.57421875 48.25 C40.20296875 49.714375 39.83171875 51.17875 39.44921875 52.6875 C36.72269693 61.66599976 31.40974158 69.0176409 23.57421875 74.25 C11.55393403 80.21379165 1.59132282 81.89896728 -11.47265625 78.28125 C-21.33831452 74.83609949 -29.24610789 68.53816 -33.99609375 59.14453125 C-38.6873516 48.1401807 -40.10967886 37.88336088 -36.42578125 26.25 C-31.34236768 14.49156093 -24.18422032 7.33341357 -12.42578125 2.25 C-8.30787497 0.94599634 -4.28062901 0.44115983 0 0 Z " fill="#D6A118" transform="translate(302.42578125,167.75)"/>
    <path d="M0 0 C0.21914062 0.56847656 0.43828125 1.13695312 0.6640625 1.72265625 C3.87924251 9.55148888 7.82820411 15.8206302 15.80078125 19.34375 C22.0449528 21.20701966 28.77512957 20.50961442 34.828125 18.234375 C41.88361284 14.22442148 45.79616812 7.57567208 48 0 C54.55529292 -0.47674858 59.36527424 0.50517964 65 4 C69.62391383 8.09642851 71.83154659 12.66812348 72.2734375 18.78515625 C72.30990468 20.21087306 72.34364365 21.63666163 72.375 23.0625 C72.83923034 33.94911081 74.87668478 43.24803633 83 51 C83.66 51.66 84.32 52.32 85 53 C77.1664546 56.9167727 61.98248891 54.24534232 53.91796875 52.02734375 C42.28064559 47.93013359 32.63885466 40.65306304 26.875 29.5625 C25.53577749 26.6854806 25 25.20931515 25 22 C24.34 22 23.68 22 23 22 C22.95875 22.804375 22.9175 23.60875 22.875 24.4375 C20.566385 33.83686107 12.85924196 41.98964034 4.796875 46.984375 C-8.40091608 54.26903812 -21.31486221 54.29370276 -36 54 C-36.33 53.34 -36.66 52.68 -37 52 C-36.54109375 51.68289063 -36.0821875 51.36578125 -35.609375 51.0390625 C-29.09414901 46.08420576 -26.74368708 39.83241928 -25 32 C-24.90832145 30.00344487 -24.81938719 28.00659453 -24.76098633 26.00878906 C-24.29058828 11.54990955 -24.29058828 11.54990955 -18.578125 5.4921875 C-12.66759466 0.16052353 -7.59948185 -0.2980189 0 0 Z " fill="#49333C" transform="translate(232,259)"/>
    <path d="M0 0 C7.38943971 -0.09317749 14.77875026 -0.16400459 22.16866112 -0.20724869 C25.60109768 -0.22801657 29.03312875 -0.25613212 32.46533203 -0.30175781 C36.42214908 -0.35402097 40.37880889 -0.37303456 44.3359375 -0.390625 C45.55300385 -0.41127014 46.77007019 -0.43191528 48.02401733 -0.45318604 C57.86694943 -0.45574865 66.1209661 1.43432211 73.46875 8.296875 C80.86241291 16.52043885 82.58190067 25.23445635 82.3125 36.01171875 C81.83817365 44.39741331 78.22530477 51.402937 72 57 C64.74010158 62.45944362 59.25683308 64 50 64 C50 53.44 50 42.88 50 32 C44.39 32 38.78 32 33 32 C32.29875 30.185 31.5975 28.37 30.875 26.5 C26.77210098 16.7311928 21.23305324 9.31151835 11.40625 4.8125 C9.71334136 4.13533654 8.01073615 3.48160484 6.296875 2.859375 C4.10464608 2.0391533 2.08306029 1.0618019 0 0 Z " fill="#F0A47C" transform="translate(310,168)"/>
    <path d="M0 0 C0 21.12 0 42.24 0 64 C-21.8361677 53.65655214 -21.8361677 53.65655214 -30.48046875 49.30859375 C-31.43021072 48.83301529 -32.3799527 48.35743683 -33.35847473 47.8674469 C-36.3024543 46.39272567 -39.24500838 44.91518745 -42.1875 43.4375 C-44.22060783 42.41842966 -46.25381049 41.39954848 -48.28710938 40.38085938 C-53.19249661 37.92274263 -58.09672708 35.46233128 -63 33 C-63 32.34 -63 31.68 -63 31 C-62.45701767 30.72961914 -61.91403534 30.45923828 -61.354599 30.18066406 C-55.62535485 27.32723491 -49.89760429 24.47082368 -44.1706543 21.61279297 C-42.04244356 20.55117852 -39.91387215 19.49028676 -37.78491211 18.43017578 C-26.64735661 12.88365743 -15.5380232 7.32550616 -4.63500977 1.328125 C-2 0 -2 0 0 0 Z " fill="#BA2240" transform="translate(320,344)"/>
    <path d="M0 0 C4.80328557 1.60109519 9.02559443 3.4169223 13.46875 5.74609375 C14.17855515 6.11353195 14.88836029 6.48097015 15.61967468 6.85954285 C17.13375218 7.64378939 18.64684623 8.42993707 20.1590271 9.21783447 C24.08725593 11.26447298 28.02252474 13.29749506 31.95703125 15.33203125 C32.73355545 15.73403748 33.51007965 16.1360437 34.31013489 16.55023193 C43.82212211 21.46952969 53.40314943 26.2486694 63 31 C63 31.66 63 32.32 63 33 C54.93464597 37.04423902 46.86822723 41.08634408 38.80042362 45.12569427 C35.05465019 47.00119534 31.30925412 48.87744208 27.56469727 50.75537109 C23.95405505 52.56610687 20.34245208 54.37491243 16.73016167 56.18235779 C15.34904696 56.87384223 13.9682857 57.56603307 12.58787727 58.25892639 C10.66114698 59.22589705 8.73319904 60.19039594 6.80493164 61.15429688 C5.15612755 61.98036438 5.15612755 61.98036438 3.47401428 62.82312012 C1 64 1 64 0 64 C0 42.88 0 21.76 0 0 Z " fill="#BA2240" transform="translate(192,344)"/>
    <path d="M0 0 C6.06343563 3.8805988 10.95667407 9.08758162 13.1875 16 C14.28146397 24.39553743 12.81376604 31.28126393 7.64453125 38.0078125 C2.96879743 43.12223073 -1.62616785 45.51037051 -8.484375 46.3125 C-14.78354151 46.5909162 -19.72160615 45.8531501 -24.8125 42 C-30.94998905 36.1959359 -34.90461478 30.73804388 -35.25 22.125 C-35.02618613 15.15233713 -33.53760694 10.85729496 -28.71875 5.8046875 C-20.54144386 -1.80020721 -10.69057161 -5.44614025 0 0 Z " fill="#F7E8CF" transform="translate(314.8125,186)"/>
    <path d="M0 0 C5.24623334 3.58045852 9.14433984 8.13627213 11.640625 13.9609375 C12.94279035 23.07609495 12.30208604 29.89794812 6.6328125 37.4765625 C1.79541707 42.83144674 -3.29798915 44.89430572 -10.375 45.7734375 C-16.38098695 46.06820987 -21.0134721 45.09536467 -25.859375 41.4609375 C-32.49382404 35.26172714 -35.80740954 30.22802146 -36.234375 21.0859375 C-36.06149574 14.36184418 -34.40452533 10.13429503 -29.765625 5.26171875 C-21.04841721 -2.83075582 -11.12704198 -5.64357165 0 0 Z " fill="#EFA37C" transform="translate(267.859375,234.5390625)"/>
    <path d="M0 0 C0 21.12 0 42.24 0 64 C-9.52216077 64 -16.42838175 62.27856327 -23.46875 55.703125 C-30.86241291 47.47956115 -32.58190067 38.76554365 -32.3125 27.98828125 C-31.83817365 19.60258669 -28.22530477 12.597063 -22 7 C-14.74010158 1.54055638 -9.25683308 0 0 0 Z " fill="#F0A47C" transform="translate(152,168)"/>
    <path d="M0 0 C16.5 0 33 0 50 0 C50 10.56 50 21.12 50 32 C44.39 32 38.78 32 33 32 C32.29875 30.185 31.5975 28.37 30.875 26.5 C26.77210098 16.7311928 21.23305324 9.31151835 11.40625 4.8125 C9.71334136 4.13533654 8.01073615 3.48160484 6.296875 2.859375 C4 2 4 2 0 0 Z " fill="#FEC09C" transform="translate(310,168)"/>
    <path d="M0 0 C4.18421805 0.87171209 5.42961969 2.20639419 8 5.625 C8.68745025 9.14220473 8.60807733 12.55353546 8.5 16.125 C8.50386719 17.53072266 8.50386719 17.53072266 8.5078125 18.96484375 C8.43739363 23.92937377 8.31960315 27.65449427 5 31.625 C2.19084526 33.02957737 0.11189466 32.87395157 -3 32.625 C-6.1359157 30.84515595 -6.84102736 30.10191793 -8 26.625 C-8.3042547 23.17190178 -8.3234943 19.71492872 -8.375 16.25 C-8.41238281 15.30382812 -8.44976562 14.35765625 -8.48828125 13.3828125 C-8.54802825 8.65616069 -8.56587514 6.38202359 -5.6640625 2.5 C-3 0.625 -3 0.625 0 0 Z " fill="#4A353D" transform="translate(304,191.375)"/>
    <path d="M0 0 C4.18421805 0.87171209 5.42961969 2.20639419 8 5.625 C8.68745025 9.14220473 8.60807733 12.55353546 8.5 16.125 C8.50386719 17.53072266 8.50386719 17.53072266 8.5078125 18.96484375 C8.43739363 23.92937377 8.31960315 27.65449427 5 31.625 C2.19084526 33.02957737 0.11189466 32.87395157 -3 32.625 C-6.1359157 30.84515595 -6.84102736 30.10191793 -8 26.625 C-8.3042547 23.17190178 -8.3234943 19.71492872 -8.375 16.25 C-8.41238281 15.30382812 -8.44976562 14.35765625 -8.48828125 13.3828125 C-8.54802825 8.65616069 -8.56587514 6.38202359 -5.6640625 2.5 C-3 0.625 -3 0.625 0 0 Z " fill="#4A343C" transform="translate(208,191.375)"/>
</svg>
